DINish-Bold.ufo
<glyph name="numbersign" format="2">
  <advance width="551"/>
  <unicode hex="0023"/>
  <outline>
    <contour>
      <point x="441" y="416" type="line"/>
      <point x="427" y="303" type="line"/>
      <point x="508" y="303" type="line"/>
      <point x="508" y="209" type="line"/>
      <point x="415" y="209" type="line"/>
      <point x="387" y="0" type="line"/>
      <point x="281" y="0" type="line"/>
      <point x="308" y="209" type="line"/>
      <point x="200" y="209" type="line"/>
      <point x="172" y="0" type="line"/>
      <point x="67" y="0" type="line"/>
      <point x="94" y="209" type="line"/>
      <point x="18" y="209" type="line"/>
      <point x="18" y="303" type="line"/>
      <point x="106" y="303" type="line"/>
      <point x="122" y="416" type="line"/>
      <point x="44" y="416" type="line"/>
      <point x="44" y="510" type="line"/>
      <point x="134" y="510" type="line"/>
      <point x="160" y="707" type="line"/>
      <point x="265" y="707" type="line"/>
      <point x="240" y="510" type="line"/>
      <point x="348" y="510" type="line"/>
      <point x="374" y="707" type="line"/>
      <point x="479" y="707" type="line"/>
      <point x="454" y="510" type="line"/>
      <point x="534" y="510" type="line"/>
      <point x="534" y="416" type="line"/>
    </contour>
    <contour>
      <point x="336" y="416" type="line"/>
      <point x="227" y="416" type="line"/>
      <point x="212" y="303" type="line"/>
      <point x="321" y="303" type="line"/>
    </contour>
  </outline>
</glyph>
<glyph name="dollar" format="2">
  <advance width="514"/>
  <unicode hex="0024"/>
  <outline>
    <contour>
      <point x="199" y="-61" type="line"/>
      <point x="304" y="-61" type="line"/>
      <point x="304" y="35" type="line"/>
      <point x="404" y="55"/>
      <point x="463" y="119"/>
      <point x="463" y="229" type="curve" smooth="yes"/>
      <point x="463" y="331"/>
      <point x="393" y="403"/>
      <point x="290" y="416" type="curve" smooth="yes"/>
      <point x="209" y="426"/>
      <point x="168" y="451"/>
      <point x="168" y="498" type="curve" smooth="yes"/>
      <point x="168" y="548"/>
      <point x="197" y="574"/>
      <point x="247" y="574" type="curve" smooth="yes"/>
      <point x="301" y="574"/>
      <point x="327" y="548"/>
      <point x="333" y="490" type="curve"/>
      <point x="454" y="490" type="line"/>
      <point x="448" y="592"/>
      <point x="392" y="656"/>
      <point x="304" y="676" type="curve"/>
      <point x="304" y="758" type="line"/>
      <point x="199" y="758" type="line"/>
      <point x="199" y="677" type="line"/>
      <point x="103" y="657"/>
      <point x="45" y="590"/>
      <point x="45" y="488" type="curve" smooth="yes"/>
      <point x="45" y="386"/>
      <point x="101" y="334"/>
      <point x="214" y="309" type="curve" smooth="yes"/>
      <point x="316" y="286"/>
      <point x="338" y="267"/>
      <point x="338" y="219" type="curve" smooth="yes"/>
      <point x="338" y="166"/>
      <point x="309" y="139"/>
      <point x="250" y="139" type="curve" smooth="yes"/>
      <point x="186" y="139"/>
      <point x="155" y="164"/>
      <point x="147" y="232" type="curve"/>
      <point x="30" y="232" type="line"/>
      <point x="36" y="118"/>
      <point x="97" y="49"/>
      <point x="199" y="33" type="curve"/>
    </contour>
  </outline>
</glyph>
<glyph name="ampersand" format="2">
  <advance width="612"/>
  <unicode hex="0026"/>
  <anchor x="460" y="13" name="new anchor"/>
  <outline>
    <contour>
      <point x="233" y="-11" type="curve" smooth="yes"/>
      <point x="303" y="-11"/>
      <point x="356" y="11"/>
      <point x="406" y="69" type="curve"/>
      <point x="452" y="5"/>
      <point x="478" y="0"/>
      <point x="516" y="0" type="curve" smooth="yes"/>
      <point x="565" y="0" type="line"/>
      <point x="565" y="110" type="line"/>
      <point x="543" y="110" type="line" smooth="yes"/>
      <point x="529" y="110"/>
      <point x="515" y="118"/>
      <point x="501" y="136" type="curve" smooth="yes"/>
      <point x="481" y="163" type="line"/>
      <point x="566" y="269" type="line"/>
      <point x="486" y="340" type="line"/>
      <point x="416" y="252" type="line"/>
      <point x="327" y="372" type="line"/>
      <point x="413" y="444"/>
      <point x="442" y="493"/>
      <point x="442" y="555" type="curve" smooth="yes"/>
      <point x="442" y="645"/>
      <point x="369" y="718"/>
      <point x="270" y="718" type="curve" smooth="yes"/>
      <point x="171" y="718"/>
      <point x="97" y="647"/>
      <point x="97" y="554" type="curve" smooth="yes"/>
      <point x="97" y="504"/>
      <point x="116" y="468"/>
      <point x="172" y="390" type="curve"/>
      <point x="80" y="314"/>
      <point x="46" y="253"/>
      <point x="46" y="175" type="curve" smooth="yes"/>
      <point x="46" y="63"/>
      <point x="115" y="-11"/>
    </contour>
    <contour>
      <point x="167" y="184" type="curve" smooth="yes"/>
      <point x="167" y="220"/>
      <point x="186" y="253"/>
      <point x="238" y="299" type="curve"/>
      <point x="341" y="158" type="line"/>
      <point x="303" y="112"/>
      <point x="278" y="98"/>
      <point x="244" y="98" type="curve" smooth="yes"/>
      <point x="196" y="98"/>
      <point x="167" y="130"/>
    </contour>
    <contour>
      <point x="262" y="461" type="curve"/>
      <point x="224" y="515"/>
      <point x="216" y="533"/>
      <point x="216" y="559" type="curve" smooth="yes"/>
      <point x="216" y="595"/>
      <point x="239" y="620"/>
      <point x="271" y="620" type="curve" smooth="yes"/>
      <point x="303" y="620"/>
      <point x="326" y="595"/>
      <point x="326" y="559" type="curve" smooth="yes"/>
      <point x="326" y="527"/>
      <point x="312" y="503"/>
    </contour>
  </outline>
</glyph>
<glyph name="quotesingle" format="2">
  <advance width="197"/>
  <unicode hex="0027"/>
  <outline>
    <contour>
      <point x="39" y="401" type="line"/>
      <point x="159" y="401" type="line"/>
      <point x="159" y="707" type="line"/>
      <point x="39" y="707" type="line"/>
    </contour>
  </outline>
</glyph>
<glyph name="parenright" format="2">
  <advance width="317"/>
  <unicode hex="0029"/>
  <outline>
    <contour>
      <point x="46" y="-86" type="curve"/>
      <point x="139" y="-86" type="line"/>
      <point x="227" y="44"/>
      <point x="271" y="185"/>
      <point x="271" y="336" type="curve" smooth="yes"/>
      <point x="271" y="490"/>
      <point x="227" y="630"/>
      <point x="138" y="758" type="curve"/>
      <point x="46" y="758" type="line"/>
      <point x="112" y="628"/>
      <point x="145" y="480"/>
      <point x="145" y="336" type="curve" smooth="yes"/>
      <point x="145" y="192"/>
      <point x="110" y="44"/>
    </contour>
  </outline>
</glyph>
<glyph name="zero" format="2">
  <advance width="524"/>
  <unicode hex="0030"/>
  <outline>
    <contour>
      <point x="51" y="232" type="curve" smooth="yes"/>
      <point x="51" y="482" type="line" smooth="yes"/>
      <point x="51" y="636"/>
      <point x="124" y="718"/>
      <point x="262" y="718" type="curve" smooth="yes"/>
      <point x="406" y="718"/>
      <point x="473" y="638"/>
      <point x="473" y="482" type="curve" smooth="yes"/>
      <point x="473" y="232" type="line" smooth="yes"/>
      <point x="473" y="70"/>
      <point x="406" y="-11"/>
      <point x="262" y="-11" type="curve" smooth="yes"/>
      <point x="118" y="-11"/>
      <point x="51" y="70"/>
    </contour>
    <contour>
      <point x="323" y="137" type="curve" smooth="yes"/>
      <point x="334" y="158"/>
      <point x="339" y="193"/>
      <point x="339" y="244" type="curve" smooth="yes"/>
      <point x="339" y="463" type="line" smooth="yes"/>
      <point x="339" y="514"/>
      <point x="334" y="549"/>
      <point x="323" y="569" type="curve" smooth="yes"/>
      <point x="312" y="589"/>
      <point x="292" y="600"/>
      <point x="262" y="600" type="curve" smooth="yes"/>
      <point x="232" y="600"/>
      <point x="212" y="589"/>
      <point x="202" y="569" type="curve" smooth="yes"/>
      <point x="192" y="549"/>
      <point x="186" y="514"/>
      <point x="186" y="463" type="curve" smooth="yes"/>
      <point x="186" y="244" type="line" smooth="yes"/>
      <point x="186" y="193"/>
      <point x="191" y="158"/>
      <point x="202" y="137" type="curve" smooth="yes"/>
      <point x="213" y="116"/>
      <point x="233" y="105"/>
      <point x="262" y="105" type="curve" smooth="yes"/>
      <point x="292" y="105"/>
      <point x="312" y="116"/>
    </contour>
  </outline>
</glyph>
<glyph name="one" format="2">
  <advance width="356"/>
  <unicode hex="0031"/>
  <outline>
    <contour>
      <point x="156" y="0" type="line"/>
      <point x="290" y="0" type="line"/>
      <point x="290" y="707" type="line"/>
      <point x="156" y="707" type="line"/>
      <point x="37" y="617" type="line"/>
      <point x="37" y="472" type="line"/>
      <point x="156" y="558" type="line"/>
    </contour>
  </outline>
</glyph>
<glyph name="two" format="2">
  <advance width="504"/>
  <unicode hex="0032"/>
  <outline>
    <contour>
      <point x="49" y="0" type="line"/>
      <point x="459" y="0" type="line"/>
      <point x="459" y="118" type="line"/>
      <point x="218" y="118" type="line"/>
      <point x="394" y="346" type="line" smooth="yes"/>
      <point x="436" y="400"/>
      <point x="459" y="449"/>
      <point x="459" y="511" type="curve" smooth="yes"/>
      <point x="459" y="528" type="line" smooth="yes"/>
      <point x="459" y="633"/>
      <point x="377" y="718"/>
      <point x="254" y="718" type="curve" smooth="yes"/>
      <point x="128" y="718"/>
      <point x="46" y="638"/>
      <point x="46" y="527" type="curve" smooth="yes"/>
      <point x="46" y="503" type="line"/>
      <point x="176" y="503" type="line"/>
      <point x="176" y="519" type="line" smooth="yes"/>
      <point x="176" y="573"/>
      <point x="203" y="604"/>
      <point x="249" y="604" type="curve" smooth="yes"/>
      <point x="295" y="604"/>
      <point x="323" y="574"/>
      <point x="323" y="524" type="curve" smooth="yes"/>
      <point x="323" y="510" type="line" smooth="yes"/>
      <point x="323" y="479"/>
      <point x="310" y="446"/>
      <point x="284" y="411" type="curve" smooth="yes"/>
      <point x="49" y="106" type="line"/>
    </contour>
  </outline>
</glyph>
<glyph name="three" format="2">
  <advance width="516"/>
  <unicode hex="0033"/>
  <outline>
    <contour>
      <point x="255" y="-11" type="curve" smooth="yes"/>
      <point x="375" y="-11"/>
      <point x="465" y="68"/>
      <point x="465" y="194" type="curve" smooth="yes"/>
      <point x="465" y="213" type="line" smooth="yes"/>
      <point x="465" y="293"/>
      <point x="433" y="350"/>
      <point x="371" y="376" type="curve"/>
      <point x="425" y="404"/>
      <point x="454" y="454"/>
      <point x="454" y="516" type="curve" smooth="yes"/>
      <point x="454" y="531" type="line" smooth="yes"/>
      <point x="454" y="645"/>
      <point x="378" y="718"/>
      <point x="254" y="718" type="curve" smooth="yes"/>
      <point x="128" y="718"/>
      <point x="51" y="647"/>
      <point x="51" y="529" type="curve" smooth="yes"/>
      <point x="51" y="512" type="line"/>
      <point x="174" y="512" type="line"/>
      <point x="174" y="529" type="line" smooth="yes"/>
      <point x="174" y="575"/>
      <point x="201" y="604"/>
      <point x="249" y="604" type="curve" smooth="yes"/>
      <point x="295" y="604"/>
      <point x="324" y="573"/>
      <point x="324" y="521" type="curve" smooth="yes"/>
      <point x="324" y="506" type="line" smooth="yes"/>
      <point x="324" y="452"/>
      <point x="294" y="421"/>
      <point x="242" y="421" type="curve" smooth="yes"/>
      <point x="207" y="421" type="line"/>
      <point x="207" y="307" type="line"/>
      <point x="243" y="307" type="line" smooth="yes"/>
      <point x="303" y="307"/>
      <point x="335" y="274"/>
      <point x="335" y="212" type="curve" smooth="yes"/>
      <point x="335" y="194" type="line" smooth="yes"/>
      <point x="335" y="138"/>
      <point x="303" y="102"/>
      <point x="253" y="102" type="curve" smooth="yes"/>
      <point x="199" y="102"/>
      <point x="171" y="127"/>
      <point x="171" y="177" type="curve" smooth="yes"/>
      <point x="171" y="193" type="line"/>
      <point x="46" y="193" type="line"/>
      <point x="46" y="171" type="line" smooth="yes"/>
      <point x="46" y="55"/>
      <point x="123" y="-11"/>
    </contour>
  </outline>
</glyph>
<glyph name="four" format="2">
  <advance width="533"/>
  <unicode hex="0034"/>
  <outline>
    <contour>
      <point x="306" y="0" type="line"/>
      <point x="440" y="0" type="line"/>
      <point x="440" y="113" type="line"/>
      <point x="498" y="113" type="line"/>
      <point x="498" y="230" type="line"/>
      <point x="440" y="230" type="line"/>
      <point x="440" y="396" type="line"/>
      <point x="306" y="396" type="line"/>
      <point x="306" y="230" type="line"/>
      <point x="170" y="230" type="line"/>
      <point x="372" y="707" type="line"/>
      <point x="238" y="707" type="line"/>
      <point x="36" y="230" type="line"/>
      <point x="36" y="113" type="line"/>
      <point x="306" y="113" type="line"/>
    </contour>
  </outline>
</glyph>
<glyph name="five" format="2">
  <advance width="508"/>
  <unicode hex="0035"/>
  <outline>
    <contour>
      <point x="251" y="-11" type="curve" smooth="yes"/>
      <point x="381" y="-11"/>
      <point x="458" y="65"/>
      <point x="458" y="195" type="curve" smooth="yes"/>
      <point x="458" y="261" type="line" smooth="yes"/>
      <point x="458" y="393"/>
      <point x="396" y="465"/>
      <point x="278" y="465" type="curve" smooth="yes"/>
      <point x="238" y="465"/>
      <point x="204" y="454"/>
      <point x="177" y="432" type="curve"/>
      <point x="177" y="592" type="line"/>
      <point x="443" y="592" type="line"/>
      <point x="443" y="707" type="line"/>
      <point x="61" y="707" type="line"/>
      <point x="61" y="304" type="line"/>
      <point x="177" y="304" type="line"/>
      <point x="191" y="336"/>
      <point x="216" y="352"/>
      <point x="250" y="352" type="curve" smooth="yes"/>
      <point x="304" y="352"/>
      <point x="328" y="320"/>
      <point x="328" y="254" type="curve" smooth="yes"/>
      <point x="328" y="201" type="line" smooth="yes"/>
      <point x="328" y="137"/>
      <point x="303" y="102"/>
      <point x="251" y="102" type="curve" smooth="yes"/>
      <point x="203" y="102"/>
      <point x="174" y="128"/>
      <point x="174" y="172" type="curve" smooth="yes"/>
      <point x="174" y="178" type="line"/>
      <point x="51" y="178" type="line"/>
      <point x="51" y="163" type="line" smooth="yes"/>
      <point x="51" y="53"/>
      <point x="129" y="-11"/>
    </contour>
  </outline>
</glyph>
<glyph name="six" format="2">
  <advance width="528"/>
  <unicode hex="0036"/>
  <outline>
    <contour>
      <point x="264" y="-11" type="curve" smooth="yes"/>
      <point x="396" y="-11"/>
      <point x="482" y="68"/>
      <point x="482" y="202" type="curve" smooth="yes"/>
      <point x="482" y="234" type="line" smooth="yes"/>
      <point x="482" y="295"/>
      <point x="466" y="343"/>
      <point x="433" y="378" type="curve" smooth="yes"/>
      <point x="400" y="413"/>
      <point x="355" y="431"/>
      <point x="300" y="431" type="curve" smooth="yes"/>
      <point x="281" y="431"/>
      <point x="264" y="428"/>
      <point x="249" y="421" type="curve"/>
      <point x="395" y="707" type="line"/>
      <point x="254" y="707" type="line"/>
      <point x="92" y="392" type="line" smooth="yes"/>
      <point x="77" y="362"/>
      <point x="66" y="334"/>
      <point x="58" y="309" type="curve" smooth="yes"/>
      <point x="50" y="284"/>
      <point x="46" y="257"/>
      <point x="46" y="229" type="curve" smooth="yes"/>
      <point x="46" y="198" type="line" smooth="yes"/>
      <point x="46" y="66"/>
      <point x="128" y="-11"/>
    </contour>
    <contour>
      <point x="203" y="127" type="curve" smooth="yes"/>
      <point x="188" y="143"/>
      <point x="181" y="166"/>
      <point x="181" y="195" type="curve" smooth="yes"/>
      <point x="181" y="228" type="line" smooth="yes"/>
      <point x="181" y="257"/>
      <point x="188" y="279"/>
      <point x="203" y="295" type="curve" smooth="yes"/>
      <point x="218" y="311"/>
      <point x="238" y="319"/>
      <point x="264" y="319" type="curve" smooth="yes"/>
      <point x="290" y="319"/>
      <point x="311" y="311"/>
      <point x="326" y="295" type="curve" smooth="yes"/>
      <point x="341" y="279"/>
      <point x="348" y="256"/>
      <point x="348" y="227" type="curve" smooth="yes"/>
      <point x="348" y="196" type="line" smooth="yes"/>
      <point x="348" y="167"/>
      <point x="341" y="143"/>
      <point x="326" y="127" type="curve" smooth="yes"/>
      <point x="311" y="111"/>
      <point x="290" y="102"/>
      <point x="264" y="102" type="curve" smooth="yes"/>
      <point x="238" y="102"/>
      <point x="218" y="111"/>
    </contour>
  </outline>
</glyph>
<glyph name="eight" format="2">
  <advance width="537"/>
  <unicode hex="0038"/>
  <outline>
    <contour>
      <point x="268" y="-11" type="curve" smooth="yes"/>
      <point x="394" y="-11"/>
      <point x="486" y="70"/>
      <point x="486" y="196" type="curve" smooth="yes"/>
      <point x="486" y="219" type="line" smooth="yes"/>
      <point x="486" y="281"/>
      <point x="455" y="339"/>
      <point x="401" y="371" type="curve"/>
      <point x="443" y="397"/>
      <point x="474" y="447"/>
      <point x="474" y="507" type="curve" smooth="yes"/>
      <point x="474" y="525" type="line" smooth="yes"/>
      <point x="474" y="630"/>
      <point x="395" y="718"/>
      <point x="269" y="718" type="curve" smooth="yes"/>
      <point x="143" y="718"/>
      <point x="65" y="630"/>
      <point x="65" y="525" type="curve" smooth="yes"/>
      <point x="65" y="507" type="line" smooth="yes"/>
      <point x="65" y="445"/>
      <point x="93" y="397"/>
      <point x="137" y="371" type="curve"/>
      <point x="83" y="339"/>
      <point x="51" y="282"/>
      <point x="51" y="218" type="curve" smooth="yes"/>
      <point x="51" y="195" type="line" smooth="yes"/>
      <point x="51" y="72"/>
      <point x="142" y="-11"/>
    </contour>
    <contour>
      <point x="269" y="102" type="curve" smooth="yes"/>
      <point x="215" y="102"/>
      <point x="181" y="141"/>
      <point x="181" y="197" type="curve" smooth="yes"/>
      <point x="181" y="221" type="line" smooth="yes"/>
      <point x="181" y="275"/>
      <point x="217" y="313"/>
      <point x="269" y="313" type="curve" smooth="yes"/>
      <point x="323" y="313"/>
      <point x="357" y="275"/>
      <point x="357" y="221" type="curve" smooth="yes"/>
      <point x="357" y="197" type="line" smooth="yes"/>
      <point x="357" y="139"/>
      <point x="323" y="102"/>
    </contour>
    <contour>
      <point x="269" y="424" type="curve" smooth="yes"/>
      <point x="223" y="424"/>
      <point x="194" y="456"/>
      <point x="194" y="506" type="curve" smooth="yes"/>
      <point x="194" y="525" type="line" smooth="yes"/>
      <point x="194" y="571"/>
      <point x="223" y="604"/>
      <point x="269" y="604" type="curve" smooth="yes"/>
      <point x="315" y="604"/>
      <point x="345" y="571"/>
      <point x="345" y="525" type="curve" smooth="yes"/>
      <point x="345" y="506" type="line" smooth="yes"/>
      <point x="345" y="458"/>
      <point x="315" y="424"/>
    </contour>
  </outline>
</glyph>
<glyph name="nine" format="2">
  <advance width="528"/>
  <unicode hex="0039"/>
  <outline>
    <contour>
      <point x="133" y="0" type="line"/>
      <point x="274" y="0" type="line"/>
      <point x="436" y="314" type="line" smooth="yes"/>
      <point x="451" y="344"/>
      <point x="463" y="372"/>
      <point x="471" y="398" type="curve" smooth="yes"/>
      <point x="479" y="424"/>
      <point x="482" y="450"/>
      <point x="482" y="477" type="curve" smooth="yes"/>
      <point x="482" y="509" type="line" smooth="yes"/>
      <point x="482" y="575"/>
      <point x="463" y="626"/>
      <point x="424" y="663" type="curve" smooth="yes"/>
      <point x="385" y="700"/>
      <point x="332" y="718"/>
      <point x="264" y="718" type="curve" smooth="yes"/>
      <point x="198" y="718"/>
      <point x="146" y="700"/>
      <point x="106" y="662" type="curve" smooth="yes"/>
      <point x="66" y="624"/>
      <point x="46" y="572"/>
      <point x="46" y="505" type="curve" smooth="yes"/>
      <point x="46" y="472" type="line" smooth="yes"/>
      <point x="46" y="411"/>
      <point x="63" y="363"/>
      <point x="96" y="328" type="curve" smooth="yes"/>
      <point x="129" y="293"/>
      <point x="173" y="275"/>
      <point x="228" y="275" type="curve" smooth="yes"/>
      <point x="247" y="275"/>
      <point x="265" y="279"/>
      <point x="280" y="286" type="curve"/>
    </contour>
    <contour>
      <point x="203" y="411" type="curve" smooth="yes"/>
      <point x="188" y="427"/>
      <point x="180" y="450"/>
      <point x="180" y="479" type="curve" smooth="yes"/>
      <point x="180" y="511" type="line" smooth="yes"/>
      <point x="180" y="540"/>
      <point x="188" y="564"/>
      <point x="203" y="580" type="curve" smooth="yes"/>
      <point x="218" y="596"/>
      <point x="238" y="604"/>
      <point x="264" y="604" type="curve" smooth="yes"/>
      <point x="290" y="604"/>
      <point x="310" y="596"/>
      <point x="325" y="580" type="curve" smooth="yes"/>
      <point x="340" y="564"/>
      <point x="347" y="541"/>
      <point x="347" y="512" type="curve" smooth="yes"/>
      <point x="347" y="478" type="line" smooth="yes"/>
      <point x="347" y="449"/>
      <point x="340" y="427"/>
      <point x="325" y="411" type="curve" smooth="yes"/>
      <point x="310" y="395"/>
      <point x="290" y="387"/>
      <point x="264" y="387" type="curve" smooth="yes"/>
      <point x="238" y="387"/>
      <point x="218" y="395"/>
    </contour>
  </outline>
</glyph>
<glyph name="equal" format="2">
  <advance width="541"/>
  <unicode hex="003D"/>
  <outline>
    <contour>
      <point x="49" y="332" type="line"/>
      <point x="492" y="332" type="line"/>
      <point x="492" y="447" type="line"/>
      <point x="49" y="447" type="line"/>
    </contour>
    <contour>
      <point x="49" y="118" type="line"/>
      <point x="492" y="118" type="line"/>
      <point x="492" y="233" type="line"/>
      <point x="49" y="233" type="line"/>
    </contour>
  </outline>
</glyph>
<glyph name="question" format="2">
  <advance width="461"/>
  <unicode hex="003F"/>
  <outline>
    <contour>
      <point x="161" y="198" type="line"/>
      <point x="288" y="198" type="line"/>
      <point x="288" y="241" type="line" smooth="yes"/>
      <point x="288" y="258"/>
      <point x="289" y="271"/>
      <point x="293" y="282" type="curve" smooth="yes"/>
      <point x="297" y="293"/>
      <point x="304" y="305"/>
      <point x="315" y="319" type="curve" smooth="yes"/>
      <point x="375" y="399" type="line" smooth="yes"/>
      <point x="393" y="423"/>
      <point x="407" y="445"/>
      <point x="415" y="466" type="curve" smooth="yes"/>
      <point x="423" y="487"/>
      <point x="427" y="510"/>
      <point x="427" y="535" type="curve" smooth="yes"/>
      <point x="427" y="640"/>
      <point x="347" y="717"/>
      <point x="227" y="717" type="curve" smooth="yes"/>
      <point x="101" y="717"/>
      <point x="30" y="648"/>
      <point x="28" y="520" type="curve"/>
      <point x="152" y="520" type="line"/>
      <point x="154" y="574"/>
      <point x="173" y="601"/>
      <point x="223" y="601" type="curve" smooth="yes"/>
      <point x="273" y="601"/>
      <point x="296" y="574"/>
      <point x="296" y="530" type="curve" smooth="yes"/>
      <point x="296" y="516"/>
      <point x="293" y="503"/>
      <point x="288" y="490" type="curve" smooth="yes"/>
      <point x="283" y="477"/>
      <point x="273" y="462"/>
      <point x="259" y="444" type="curve" smooth="yes"/>
      <point x="203" y="372" type="line" smooth="yes"/>
      <point x="185" y="349"/>
      <point x="173" y="329"/>
      <point x="168" y="313" type="curve" smooth="yes"/>
      <point x="163" y="297"/>
      <point x="161" y="277"/>
      <point x="161" y="250" type="curve" smooth="yes"/>
    </contour>
    <contour>
      <point x="157" y="0" type="line"/>
      <point x="291" y="0" type="line"/>
      <point x="291" y="129" type="line"/>
      <point x="157" y="129" type="line"/>
    </contour>
  </outline>
</glyph>
<glyph name="at" format="2">
  <advance width="893"/>
  <unicode hex="0040"/>
  <outline>
    <contour>
      <point x="447" y="-139" type="curve" smooth="yes"/>
      <point x="547" y="-139"/>
      <point x="625" y="-118"/>
      <point x="705" y="-72" type="curve"/>
      <point x="659" y="15" type="line"/>
      <point x="589" y="-21"/>
      <point x="529" y="-37"/>
      <point x="447" y="-37" type="curve" smooth="yes"/>
      <point x="270" y="-37"/>
      <point x="161" y="79"/>
      <point x="161" y="253" type="curve" smooth="yes"/>
      <point x="161" y="326" type="line" smooth="yes"/>
      <point x="161" y="504"/>
      <point x="269" y="612"/>
      <point x="447" y="612" type="curve" smooth="yes"/>
      <point x="624" y="612"/>
      <point x="733" y="502"/>
      <point x="733" y="328" type="curve" smooth="yes"/>
      <point x="733" y="256" type="line" smooth="yes"/>
      <point x="733" y="180"/>
      <point x="714" y="150"/>
      <point x="676" y="150" type="curve" smooth="yes"/>
      <point x="646" y="150"/>
      <point x="626" y="170"/>
      <point x="626" y="214" type="curve" smooth="yes"/>
      <point x="626" y="506" type="line"/>
      <point x="514" y="506" type="line"/>
      <point x="514" y="465" type="line"/>
      <point x="496" y="497"/>
      <point x="458" y="517"/>
      <point x="408" y="517" type="curve" smooth="yes"/>
      <point x="308" y="517"/>
      <point x="260" y="449"/>
      <point x="260" y="331" type="curve" smooth="yes"/>
      <point x="260" y="241" type="line" smooth="yes"/>
      <point x="260" y="117"/>
      <point x="312" y="55"/>
      <point x="415" y="55" type="curve" smooth="yes"/>
      <point x="481" y="55"/>
      <point x="524" y="78"/>
      <point x="546" y="122" type="curve"/>
      <point x="570" y="80"/>
      <point x="613" y="55"/>
      <point x="675" y="55" type="curve" smooth="yes"/>
      <point x="775" y="55"/>
      <point x="848" y="125"/>
      <point x="848" y="257" type="curve" smooth="yes"/>
      <point x="848" y="329" type="line" smooth="yes"/>
      <point x="848" y="554"/>
      <point x="678" y="715"/>
      <point x="447" y="715" type="curve" smooth="yes"/>
      <point x="210" y="715"/>
      <point x="46" y="555"/>
      <point x="46" y="324" type="curve" smooth="yes"/>
      <point x="46" y="252" type="line" smooth="yes"/>
      <point x="46" y="21"/>
      <point x="210" y="-139"/>
    </contour>
    <contour>
      <point x="444" y="152" type="curve" smooth="yes"/>
      <point x="394" y="152"/>
      <point x="375" y="185"/>
      <point x="375" y="247" type="curve" smooth="yes"/>
      <point x="375" y="331" type="line" smooth="yes"/>
      <point x="375" y="387"/>
      <point x="396" y="421"/>
      <point x="444" y="421" type="curve" smooth="yes"/>
      <point x="489" y="421"/>
      <point x="512" y="391"/>
      <point x="512" y="330" type="curve" smooth="yes"/>
      <point x="512" y="244" type="line" smooth="yes"/>
      <point x="512" y="183"/>
      <point x="489" y="152"/>
    </contour>
  </outline>
</glyph>
<glyph name="B" format="2">
  <advance width="612"/>
  <unicode hex="0042"/>
  <outline>
    <contour>
      <point x="60" y="0" type="line"/>
      <point x="344" y="0" type="line" smooth="yes"/>
      <point x="480" y="0"/>
      <point x="561" y="75"/>
      <point x="561" y="203" type="curve" smooth="yes"/>
      <point x="561" y="279"/>
      <point x="527" y="336"/>
      <point x="463" y="364" type="curve"/>
      <point x="519" y="392"/>
      <point x="552" y="448"/>
      <point x="552" y="510" type="curve" smooth="yes"/>
      <point x="552" y="636"/>
      <point x="471" y="707"/>
      <point x="333" y="707" type="curve" smooth="yes"/>
      <point x="60" y="707" type="line"/>
    </contour>
    <contour>
      <point x="195" y="418" type="line"/>
      <point x="195" y="590" type="line"/>
      <point x="323" y="590" type="line" smooth="yes"/>
      <point x="385" y="590"/>
      <point x="417" y="560"/>
      <point x="417" y="502" type="curve" smooth="yes"/>
      <point x="417" y="448"/>
      <point x="385" y="418"/>
      <point x="323" y="418" type="curve" smooth="yes"/>
    </contour>
    <contour>
      <point x="195" y="117" type="line"/>
      <point x="195" y="301" type="line"/>
      <point x="331" y="301" type="line" smooth="yes"/>
      <point x="395" y="301"/>
      <point x="427" y="268"/>
      <point x="427" y="212" type="curve" smooth="yes"/>
      <point x="427" y="152"/>
      <point x="395" y="117"/>
      <point x="331" y="117" type="curve" smooth="yes"/>
    </contour>
  </outline>
</glyph>
<glyph name="C" format="2">
  <advance width="614"/>
  <unicode hex="0043"/>
  <outline>
    <contour>
      <point x="308" y="-8" type="curve" smooth="yes"/>
      <point x="466" y="-8"/>
      <point x="561" y="75"/>
      <point x="561" y="227" type="curve" smooth="yes"/>
      <point x="561" y="234" type="line"/>
      <point x="429" y="234" type="line"/>
      <point x="429" y="226" type="line" smooth="yes"/>
      <point x="429" y="156"/>
      <point x="387" y="112"/>
      <point x="311" y="112" type="curve" smooth="yes"/>
      <point x="225" y="112"/>
      <point x="186" y="161"/>
      <point x="186" y="275" type="curve" smooth="yes"/>
      <point x="186" y="428" type="line" smooth="yes"/>
      <point x="186" y="550"/>
      <point x="223" y="599"/>
      <point x="309" y="599" type="curve" smooth="yes"/>
      <point x="385" y="599"/>
      <point x="429" y="553"/>
      <point x="429" y="481" type="curve" smooth="yes"/>
      <point x="429" y="475" type="line"/>
      <point x="563" y="475" type="line"/>
      <point x="563" y="482" type="line" smooth="yes"/>
      <point x="563" y="630"/>
      <point x="464" y="717"/>
      <point x="310" y="717" type="curve" smooth="yes"/>
      <point x="137" y="717"/>
      <point x="51" y="623"/>
      <point x="51" y="435" type="curve" smooth="yes"/>
      <point x="51" y="273" type="line" smooth="yes"/>
      <point x="51" y="85"/>
      <point x="137" y="-8"/>
    </contour>
  </outline>
</glyph>
<glyph name="D" format="2">
  <advance width="614"/>
  <unicode hex="0044"/>
  <outline>
    <contour>
      <point x="60" y="0" type="line"/>
      <point x="305" y="0" type="line" smooth="yes"/>
      <point x="463" y="0"/>
      <point x="563" y="82"/>
      <point x="563" y="282" type="curve" smooth="yes"/>
      <point x="563" y="426" type="line" smooth="yes"/>
      <point x="563" y="626"/>
      <point x="467" y="707"/>
      <point x="309" y="707" type="curve" smooth="yes"/>
      <point x="60" y="707" type="line"/>
    </contour>
    <contour>
      <point x="195" y="117" type="line"/>
      <point x="195" y="590" type="line"/>
      <point x="308" y="590" type="line" smooth="yes"/>
      <point x="390" y="590"/>
      <point x="429" y="539"/>
      <point x="429" y="419" type="curve" smooth="yes"/>
      <point x="429" y="283" type="line" smooth="yes"/>
      <point x="429" y="169"/>
      <point x="388" y="117"/>
      <point x="308" y="117" type="curve" smooth="yes"/>
    </contour>
  </outline>
</glyph>
<glyph name="G" format="2">
  <advance width="614"/>
  <unicode hex="0047"/>
  <outline>
    <contour>
      <point x="308" y="-8" type="curve" smooth="yes"/>
      <point x="478" y="-8"/>
      <point x="563" y="82"/>
      <point x="563" y="263" type="curve" smooth="yes"/>
      <point x="563" y="384" type="line"/>
      <point x="307" y="384" type="line"/>
      <point x="307" y="273" type="line"/>
      <point x="432" y="273" type="line"/>
      <point x="432" y="240" type="line" smooth="yes"/>
      <point x="432" y="154"/>
      <point x="396" y="112"/>
      <point x="314" y="112" type="curve" smooth="yes"/>
      <point x="226" y="112"/>
      <point x="186" y="159"/>
      <point x="186" y="275" type="curve" smooth="yes"/>
      <point x="186" y="428" type="line" smooth="yes"/>
      <point x="186" y="550"/>
      <point x="223" y="599"/>
      <point x="309" y="599" type="curve" smooth="yes"/>
      <point x="385" y="599"/>
      <point x="429" y="551"/>
      <point x="429" y="487" type="curve" smooth="yes"/>
      <point x="429" y="480" type="line"/>
      <point x="563" y="480" type="line"/>
      <point x="563" y="487" type="line" smooth="yes"/>
      <point x="563" y="631"/>
      <point x="464" y="717"/>
      <point x="310" y="717" type="curve" smooth="yes"/>
      <point x="137" y="717"/>
      <point x="51" y="623"/>
      <point x="51" y="435" type="curve" smooth="yes"/>
      <point x="51" y="273" type="line" smooth="yes"/>
      <point x="51" y="85"/>
      <point x="137" y="-8"/>
    </contour>
  </outline>
</glyph>
<glyph name="J" format="2">
  <advance width="338"/>
  <unicode hex="004A"/>
  <anchor x="204" y="707" name="top"/>
  <outline>
    <contour>
      <point x="25" y="0" type="line"/>
      <point x="111" y="0" type="line" smooth="yes"/>
      <point x="213" y="0"/>
      <point x="272" y="58"/>
      <point x="272" y="162" type="curve" smooth="yes"/>
      <point x="272" y="707" type="line"/>
      <point x="137" y="707" type="line"/>
      <point x="137" y="184" type="line" smooth="yes"/>
      <point x="137" y="134"/>
      <point x="122" y="118"/>
      <point x="80" y="118" type="curve" smooth="yes"/>
      <point x="25" y="118" type="line"/>
    </contour>
  </outline>
</glyph>
<glyph name="O" format="2">
  <advance width="614"/>
  <unicode hex="004F"/>
  <anchor x="307" y="707" name="top"/>
  <outline>
    <contour>
      <point x="304" y="-8" type="curve" smooth="yes"/>
      <point x="462" y="-8"/>
      <point x="563" y="73"/>
      <point x="563" y="273" type="curve" smooth="yes"/>
      <point x="563" y="435" type="line" smooth="yes"/>
      <point x="563" y="635"/>
      <point x="466" y="717"/>
      <point x="308" y="717" type="curve" smooth="yes"/>
      <point x="137" y="717"/>
      <point x="51" y="623"/>
      <point x="51" y="435" type="curve" smooth="yes"/>
      <point x="51" y="273" type="line" smooth="yes"/>
      <point x="51" y="85"/>
      <point x="135" y="-8"/>
    </contour>
    <contour>
      <point x="186" y="275" type="curve" smooth="yes"/>
      <point x="186" y="428" type="line" smooth="yes"/>
      <point x="186" y="550"/>
      <point x="222" y="599"/>
      <point x="308" y="599" type="curve" smooth="yes"/>
      <point x="390" y="599"/>
      <point x="429" y="548"/>
      <point x="429" y="428" type="curve" smooth="yes"/>
      <point x="429" y="275" type="line" smooth="yes"/>
      <point x="429" y="161"/>
      <point x="390" y="112"/>
      <point x="308" y="112" type="curve" smooth="yes"/>
      <point x="222" y="112"/>
      <point x="186" y="159"/>
    </contour>
  </outline>
</glyph>
<glyph name="R" format="2">
  <advance width="614"/>
  <unicode hex="0052"/>
  <outline>
    <contour>
      <point x="60" y="0" type="line"/>
      <point x="195" y="0" type="line"/>
      <point x="195" y="287" type="line"/>
      <point x="295" y="287" type="line"/>
      <point x="429" y="0" type="line"/>
      <point x="584" y="0" type="line"/>
      <point x="430" y="307" type="line"/>
      <point x="510" y="337"/>
      <point x="555" y="404"/>
      <point x="555" y="496" type="curve" smooth="yes"/>
      <point x="555" y="626"/>
      <point x="467" y="707"/>
      <point x="329" y="707" type="curve" smooth="yes"/>
      <point x="60" y="707" type="line"/>
    </contour>
    <contour>
      <point x="195" y="398" type="line"/>
      <point x="195" y="590" type="line"/>
      <point x="322" y="590" type="line" smooth="yes"/>
      <point x="384" y="590"/>
      <point x="421" y="554"/>
      <point x="421" y="496" type="curve" smooth="yes"/>
      <point x="421" y="434"/>
      <point x="384" y="398"/>
      <point x="322" y="398" type="curve" smooth="yes"/>
    </contour>
  </outline>
</glyph>
<glyph name="S" format="2">
  <advance width="561"/>
  <unicode hex="0053"/>
  <anchor x="279" y="707" name="top"/>
  <outline>
    <contour>
      <point x="273" y="-6" type="curve" smooth="yes"/>
      <point x="427" y="-6"/>
      <point x="525" y="71"/>
      <point x="525" y="213" type="curve" smooth="yes"/>
      <point x="525" y="324"/>
      <point x="465" y="390"/>
      <point x="343" y="412" type="curve" smooth="yes"/>
      <point x="268" y="425" type="line" smooth="yes"/>
      <point x="202" y="437"/>
      <point x="171" y="464"/>
      <point x="171" y="514" type="curve" smooth="yes"/>
      <point x="171" y="570"/>
      <point x="206" y="604"/>
      <point x="276" y="604" type="curve" smooth="yes"/>
      <point x="344" y="604"/>
      <point x="380" y="574"/>
      <point x="384" y="506" type="curve"/>
      <point x="513" y="506" type="line"/>
      <point x="503" y="640"/>
      <point x="419" y="717"/>
      <point x="279" y="717" type="curve" smooth="yes"/>
      <point x="135" y="717"/>
      <point x="41" y="636"/>
      <point x="41" y="504" type="curve" smooth="yes"/>
      <point x="41" y="394"/>
      <point x="104" y="328"/>
      <point x="232" y="307" type="curve" smooth="yes"/>
      <point x="299" y="296" type="line" smooth="yes"/>
      <point x="365" y="286"/>
      <point x="393" y="258"/>
      <point x="393" y="202" type="curve" smooth="yes"/>
      <point x="393" y="140"/>
      <point x="356" y="109"/>
      <point x="280" y="109" type="curve" smooth="yes"/>
      <point x="200" y="109"/>
      <point x="163" y="137"/>
      <point x="153" y="215" type="curve"/>
      <point x="26" y="215" type="line"/>
      <point x="36" y="71"/>
      <point x="121" y="-6"/>
    </contour>
  </outline>
</glyph>
<glyph name="U" format="2">
  <advance width="628"/>
  <unicode hex="0055"/>
  <anchor x="314" y="707" name="top"/>
  <outline>
    <contour>
      <point x="313" y="-6" type="curve" smooth="yes"/>
      <point x="457" y="-6"/>
      <point x="568" y="95"/>
      <point x="568" y="233" type="curve" smooth="yes"/>
      <point x="568" y="707" type="line"/>
      <point x="433" y="707" type="line"/>
      <point x="433" y="238" type="line" smooth="yes"/>
      <point x="433" y="158"/>
      <point x="387" y="111"/>
      <point x="313" y="111" type="curve" smooth="yes"/>
      <point x="239" y="111"/>
      <point x="195" y="158"/>
      <point x="195" y="238" type="curve" smooth="yes"/>
      <point x="195" y="707" type="line"/>
      <point x="60" y="707" type="line"/>
      <point x="60" y="233" type="line" smooth="yes"/>
      <point x="60" y="95"/>
      <point x="169" y="-6"/>
    </contour>
  </outline>
</glyph>
<glyph name="a" format="2">
  <advance width="513"/>
  <unicode hex="0061"/>
  <anchor x="248" y="532" name="top"/>
  <outline>
    <contour>
      <point x="209" y="-6" type="curve" smooth="yes"/>
      <point x="238" y="-6"/>
      <point x="261" y="-2"/>
      <point x="280" y="6" type="curve" smooth="yes"/>
      <point x="299" y="14"/>
      <point x="317" y="28"/>
      <point x="335" y="46" type="curve"/>
      <point x="335" y="0" type="line"/>
      <point x="458" y="0" type="line"/>
      <point x="458" y="350" type="line" smooth="yes"/>
      <point x="458" y="412"/>
      <point x="439" y="459"/>
      <point x="403" y="491" type="curve" smooth="yes"/>
      <point x="367" y="523"/>
      <point x="316" y="539"/>
      <point x="248" y="539" type="curve" smooth="yes"/>
      <point x="188" y="539"/>
      <point x="139" y="524"/>
      <point x="104" y="495" type="curve" smooth="yes"/>
      <point x="69" y="466"/>
      <point x="51" y="427"/>
      <point x="51" y="377" type="curve" smooth="yes"/>
      <point x="51" y="373" type="line"/>
      <point x="169" y="373" type="line"/>
      <point x="169" y="376" type="line" smooth="yes"/>
      <point x="169" y="396"/>
      <point x="176" y="411"/>
      <point x="190" y="423" type="curve" smooth="yes"/>
      <point x="204" y="435"/>
      <point x="223" y="441"/>
      <point x="247" y="441" type="curve" smooth="yes"/>
      <point x="304" y="441"/>
      <point x="332" y="413"/>
      <point x="332" y="356" type="curve" smooth="yes"/>
      <point x="332" y="314" type="line"/>
      <point x="219" y="314" type="line" smooth="yes"/>
      <point x="162" y="314"/>
      <point x="117" y="301"/>
      <point x="85" y="273" type="curve" smooth="yes"/>
      <point x="53" y="245"/>
      <point x="37" y="208"/>
      <point x="37" y="160" type="curve" smooth="yes"/>
      <point x="37" y="108"/>
      <point x="52" y="67"/>
      <point x="82" y="38" type="curve" smooth="yes"/>
      <point x="112" y="9"/>
      <point x="154" y="-6"/>
    </contour>
    <contour>
      <point x="160" y="163" type="curve" smooth="yes"/>
      <point x="160" y="206"/>
      <point x="187" y="227"/>
      <point x="240" y="227" type="curve" smooth="yes"/>
      <point x="332" y="227" type="line"/>
      <point x="332" y="189" type="line" smooth="yes"/>
      <point x="332" y="158"/>
      <point x="325" y="134"/>
      <point x="310" y="119" type="curve" smooth="yes"/>
      <point x="295" y="104"/>
      <point x="271" y="96"/>
      <point x="238" y="96" type="curve" smooth="yes"/>
      <point x="186" y="96"/>
      <point x="160" y="119"/>
    </contour>
  </outline>
</glyph>
<glyph name="c" format="2">
  <advance width="517"/>
  <unicode hex="0063"/>
  <outline>
    <contour>
      <point x="262" y="-6" type="curve" smooth="yes"/>
      <point x="394" y="-6"/>
      <point x="471" y="65"/>
      <point x="471" y="183" type="curve" smooth="yes"/>
      <point x="471" y="190" type="line"/>
      <point x="350" y="190" type="line"/>
      <point x="350" y="184" type="line" smooth="yes"/>
      <point x="350" y="134"/>
      <point x="318" y="106"/>
      <point x="264" y="106" type="curve" smooth="yes"/>
      <point x="206" y="106"/>
      <point x="172" y="138"/>
      <point x="172" y="218" type="curve" smooth="yes"/>
      <point x="172" y="314" type="line" smooth="yes"/>
      <point x="172" y="388"/>
      <point x="203" y="426"/>
      <point x="264" y="426" type="curve" smooth="yes"/>
      <point x="318" y="426"/>
      <point x="350" y="395"/>
      <point x="350" y="345" type="curve" smooth="yes"/>
      <point x="350" y="339" type="line"/>
      <point x="471" y="339" type="line"/>
      <point x="471" y="349" type="line" smooth="yes"/>
      <point x="471" y="467"/>
      <point x="394" y="539"/>
      <point x="262" y="539" type="curve" smooth="yes"/>
      <point x="128" y="539"/>
      <point x="46" y="468"/>
      <point x="46" y="316" type="curve" smooth="yes"/>
      <point x="46" y="217" type="line" smooth="yes"/>
      <point x="46" y="65"/>
      <point x="128" y="-6"/>
    </contour>
  </outline>
</glyph>
<glyph name="d" format="2">
  <advance width="526"/>
  <unicode hex="0064"/>
  <outline>
    <contour>
      <point x="222" y="-6" type="curve" smooth="yes"/>
      <point x="276" y="-6"/>
      <point x="318" y="12"/>
      <point x="347" y="49" type="curve"/>
      <point x="347" y="0" type="line"/>
      <point x="471" y="0" type="line"/>
      <point x="471" y="707" type="line"/>
      <point x="345" y="707" type="line"/>
      <point x="345" y="478" type="line"/>
      <point x="316" y="518"/>
      <point x="274" y="539"/>
      <point x="221" y="539" type="curve" smooth="yes"/>
      <point x="117" y="539"/>
      <point x="46" y="467"/>
      <point x="46" y="319" type="curve" smooth="yes"/>
      <point x="46" y="214" type="line" smooth="yes"/>
      <point x="46" y="66"/>
      <point x="120" y="-6"/>
    </contour>
    <contour>
      <point x="173" y="218" type="curve" smooth="yes"/>
      <point x="173" y="314" type="line" smooth="yes"/>
      <point x="173" y="388"/>
      <point x="201" y="426"/>
      <point x="258" y="426" type="curve" smooth="yes"/>
      <point x="312" y="426"/>
      <point x="345" y="386"/>
      <point x="345" y="314" type="curve" smooth="yes"/>
      <point x="345" y="218" type="line" smooth="yes"/>
      <point x="345" y="146"/>
      <point x="313" y="106"/>
      <point x="255" y="106" type="curve" smooth="yes"/>
      <point x="200" y="106"/>
      <point x="173" y="144"/>
    </contour>
  </outline>
</glyph>
<glyph name="e" format="2">
  <advance width="529"/>
  <unicode hex="0065"/>
  <anchor x="264" y="532" name="top"/>
  <outline>
    <contour>
      <point x="269" y="-6" type="curve" smooth="yes"/>
      <point x="399" y="-6"/>
      <point x="479" y="60"/>
      <point x="479" y="162" type="curve" smooth="yes"/>
      <point x="479" y="167" type="line"/>
      <point x="358" y="167" type="line"/>
      <point x="357" y="164" type="line"/>
      <point x="355" y="126"/>
      <point x="324" y="103"/>
      <point x="274" y="103" type="curve" smooth="yes"/>
      <point x="208" y="103"/>
      <point x="172" y="134"/>
      <point x="172" y="214" type="curve" smooth="yes"/>
      <point x="172" y="228" type="line"/>
      <point x="483" y="228" type="line"/>
      <point x="483" y="299" type="line" smooth="yes"/>
      <point x="483" y="457"/>
      <point x="399" y="539"/>
      <point x="265" y="539" type="curve" smooth="yes"/>
      <point x="129" y="539"/>
      <point x="46" y="459"/>
      <point x="46" y="299" type="curve" smooth="yes"/>
      <point x="46" y="234" type="line" smooth="yes"/>
      <point x="46" y="70"/>
      <point x="133" y="-6"/>
    </contour>
    <contour>
      <point x="172" y="315" type="line"/>
      <point x="172" y="318" type="line" smooth="yes"/>
      <point x="172" y="398"/>
      <point x="205" y="430"/>
      <point x="265" y="430" type="curve" smooth="yes"/>
      <point x="326" y="430"/>
      <point x="356" y="397"/>
      <point x="356" y="329" type="curve" smooth="yes"/>
      <point x="356" y="315" type="line"/>
    </contour>
  </outline>
</glyph>
<glyph name="g" format="2">
  <advance width="526"/>
  <unicode hex="0067"/>
  <outline>
    <contour>
      <point x="255" y="-168" type="curve" smooth="yes"/>
      <point x="391" y="-168"/>
      <point x="471" y="-87"/>
      <point x="471" y="39" type="curve" smooth="yes"/>
      <point x="471" y="532" type="line"/>
      <point x="345" y="532" type="line"/>
      <point x="345" y="478" type="line"/>
      <point x="316" y="518"/>
      <point x="274" y="539"/>
      <point x="221" y="539" type="curve" smooth="yes"/>
      <point x="117" y="539"/>
      <point x="46" y="467"/>
      <point x="46" y="319" type="curve" smooth="yes"/>
      <point x="46" y="261" type="line" smooth="yes"/>
      <point x="46" y="113"/>
      <point x="120" y="41"/>
      <point x="222" y="41" type="curve" smooth="yes"/>
      <point x="276" y="41"/>
      <point x="318" y="59"/>
      <point x="347" y="96" type="curve"/>
      <point x="347" y="31" type="line" smooth="yes"/>
      <point x="347" y="-35"/>
      <point x="318" y="-68"/>
      <point x="260" y="-68" type="curve" smooth="yes"/>
      <point x="212" y="-68"/>
      <point x="181" y="-45"/>
      <point x="175" y="-13" type="curve"/>
      <point x="53" y="-13" type="line"/>
      <point x="59" y="-109"/>
      <point x="131" y="-168"/>
    </contour>
    <contour>
      <point x="173" y="265" type="curve" smooth="yes"/>
      <point x="173" y="314" type="line" smooth="yes"/>
      <point x="173" y="388"/>
      <point x="201" y="426"/>
      <point x="258" y="426" type="curve" smooth="yes"/>
      <point x="312" y="426"/>
      <point x="345" y="386"/>
      <point x="345" y="314" type="curve" smooth="yes"/>
      <point x="345" y="265" type="line" smooth="yes"/>
      <point x="345" y="193"/>
      <point x="313" y="154"/>
      <point x="255" y="154" type="curve" smooth="yes"/>
      <point x="200" y="154"/>
      <point x="173" y="191"/>
    </contour>
  </outline>
</glyph>
<glyph name="h" format="2">
  <advance width="532"/>
  <unicode hex="0068"/>
  <outline>
    <contour>
      <point x="55" y="0" type="line"/>
      <point x="182" y="0" type="line"/>
      <point x="182" y="332" type="line" smooth="yes"/>
      <point x="182" y="392"/>
      <point x="217" y="426"/>
      <point x="267" y="426" type="curve" smooth="yes"/>
      <point x="317" y="426"/>
      <point x="350" y="394"/>
      <point x="350" y="332" type="curve" smooth="yes"/>
      <point x="350" y="0" type="line"/>
      <point x="477" y="0" type="line"/>
      <point x="477" y="347" type="line" smooth="yes"/>
      <point x="477" y="467"/>
      <point x="415" y="539"/>
      <point x="305" y="539" type="curve" smooth="yes"/>
      <point x="257" y="539"/>
      <point x="214" y="521"/>
      <point x="182" y="485" type="curve"/>
      <point x="182" y="707" type="line"/>
      <point x="55" y="707" type="line"/>
    </contour>
  </outline>
</glyph>
<glyph name="j" format="2">
  <advance width="246"/>
  <unicode hex="006A"/>
  <outline>
    <contour>
      <point x="57" y="605" type="line"/>
      <point x="186" y="605" type="line"/>
      <point x="186" y="707" type="line"/>
      <point x="57" y="707" type="line"/>
    </contour>
    <contour>
      <point x="-34" y="-160" type="line"/>
      <point x="26" y="-160" type="line" smooth="yes"/>
      <point x="77" y="-160"/>
      <point x="116" y="-146"/>
      <point x="144" y="-118" type="curve" smooth="yes"/>
      <point x="172" y="-90"/>
      <point x="186" y="-50"/>
      <point x="186" y="2" type="curve" smooth="yes"/>
      <point x="186" y="532" type="line"/>
      <point x="60" y="532" type="line"/>
      <point x="60" y="10" type="line" smooth="yes"/>
      <point x="60" y="-11"/>
      <point x="56" y="-26"/>
      <point x="48" y="-36" type="curve" smooth="yes"/>
      <point x="40" y="-46"/>
      <point x="27" y="-50"/>
      <point x="9" y="-50" type="curve" smooth="yes"/>
      <point x="-34" y="-50" type="line"/>
    </contour>
  </outline>
</glyph>
<glyph name="l" format="2">
  <advance width="293"/>
  <unicode hex="006C"/>
  <outline>
    <contour>
      <point x="217" y="0" type="curve" smooth="yes"/>
      <point x="275" y="0" type="line"/>
      <point x="275" y="110" type="line"/>
      <point x="232" y="110" type="line" smooth="yes"/>
      <point x="196" y="110"/>
      <point x="182" y="126"/>
      <point x="182" y="170" type="curve" smooth="yes"/>
      <point x="182" y="707" type="line"/>
      <point x="55" y="707" type="line"/>
      <point x="55" y="162" type="line" smooth="yes"/>
      <point x="55" y="58"/>
      <point x="115" y="0"/>
    </contour>
  </outline>
</glyph>
<glyph name="m" format="2">
  <advance width="827"/>
  <unicode hex="006D"/>
  <outline>
    <contour>
      <point x="55" y="0" type="line"/>
      <point x="182" y="0" type="line"/>
      <point x="182" y="332" type="line" smooth="yes"/>
      <point x="182" y="408"/>
      <point x="235" y="426"/>
      <point x="267" y="426" type="curve" smooth="yes"/>
      <point x="344" y="426"/>
      <point x="350" y="355"/>
      <point x="350" y="332" type="curve" smooth="yes"/>
      <point x="350" y="0" type="line"/>
      <point x="477" y="0" type="line"/>
      <point x="477" y="335" type="line" smooth="yes"/>
      <point x="477" y="376"/>
      <point x="498" y="426"/>
      <point x="562" y="426" type="curve" smooth="yes"/>
      <point x="639" y="426"/>
      <point x="645" y="355"/>
      <point x="645" y="332" type="curve" smooth="yes"/>
      <point x="645" y="0" type="line"/>
      <point x="772" y="0" type="line"/>
      <point x="772" y="347" type="line" smooth="yes"/>
      <point x="772" y="528"/>
      <point x="628" y="539"/>
      <point x="592" y="539" type="curve" smooth="yes"/>
      <point x="533" y="539"/>
      <point x="482" y="516"/>
      <point x="441" y="472" type="curve"/>
      <point x="410" y="516"/>
      <point x="364" y="539"/>
      <point x="305" y="539" type="curve" smooth="yes"/>
      <point x="236" y="539"/>
      <point x="191" y="497"/>
      <point x="179" y="484" type="curve"/>
      <point x="179" y="532" type="line"/>
      <point x="55" y="532" type="line"/>
    </contour>
  </outline>
</glyph>
<glyph name="n" format="2">
  <advance width="532"/>
  <unicode hex="006E"/>
  <anchor x="266" y="532" name="top"/>
  <outline>
    <contour>
      <point x="55" y="532" type="line"/>
      <point x="179" y="532" type="line"/>
      <point x="179" y="484" type="line"/>
      <point x="195" y="502"/>
      <point x="214" y="516"/>
      <point x="236" y="525" type="curve" smooth="yes"/>
      <point x="258" y="534"/>
      <point x="281" y="539"/>
      <point x="305" y="539" type="curve" smooth="yes"/>
      <point x="360" y="539"/>
      <point x="402" y="521"/>
      <point x="432" y="487" type="curve" smooth="yes"/>
      <point x="462" y="453"/>
      <point x="477" y="406"/>
      <point x="477" y="347" type="curve" smooth="yes"/>
      <point x="477" y="0" type="line"/>
      <point x="350" y="0" type="line"/>
      <point x="350" y="332" type="line" smooth="yes"/>
      <point x="350" y="362"/>
      <point x="343" y="385"/>
      <point x="328" y="401" type="curve" smooth="yes"/>
      <point x="313" y="417"/>
      <point x="292" y="426"/>
      <point x="267" y="426" type="curve" smooth="yes"/>
      <point x="242" y="426"/>
      <point x="222" y="417"/>
      <point x="206" y="401" type="curve" smooth="yes"/>
      <point x="190" y="385"/>
      <point x="182" y="362"/>
      <point x="182" y="332" type="curve" smooth="yes"/>
      <point x="182" y="0" type="line"/>
      <point x="55" y="0" type="line"/>
    </contour>
  </outline>
</glyph>
<glyph name="o" format="2">
  <advance width="522"/>
  <unicode hex="006F"/>
  <anchor x="262" y="532" name="top"/>
  <outline>
    <contour>
      <point x="262" y="-6" type="curve" smooth="yes"/>
      <point x="394" y="-6"/>
      <point x="476" y="65"/>
      <point x="476" y="217" type="curve" smooth="yes"/>
      <point x="476" y="316" type="line" smooth="yes"/>
      <point x="476" y="468"/>
      <point x="394" y="539"/>
      <point x="262" y="539" type="curve" smooth="yes"/>
      <point x="128" y="539"/>
      <point x="46" y="468"/>
      <point x="46" y="316" type="curve" smooth="yes"/>
      <point x="46" y="217" type="line" smooth="yes"/>
      <point x="46" y="65"/>
      <point x="128" y="-6"/>
    </contour>
    <contour>
      <point x="172" y="218" type="curve" smooth="yes"/>
      <point x="172" y="314" type="line" smooth="yes"/>
      <point x="172" y="388"/>
      <point x="202" y="426"/>
      <point x="262" y="426" type="curve" smooth="yes"/>
      <point x="321" y="426"/>
      <point x="350" y="388"/>
      <point x="350" y="314" type="curve" smooth="yes"/>
      <point x="350" y="218" type="line" smooth="yes"/>
      <point x="350" y="144"/>
      <point x="321" y="106"/>
      <point x="262" y="106" type="curve" smooth="yes"/>
      <point x="202" y="106"/>
      <point x="172" y="144"/>
    </contour>
  </outline>
</glyph>
<glyph name="r" format="2">
  <advance width="366"/>
  <unicode hex="0072"/>
  <outline>
    <contour>
      <point x="55" y="0" type="line"/>
      <point x="182" y="0" type="line"/>
      <point x="182" y="319" type="line" smooth="yes"/>
      <point x="182" y="391"/>
      <point x="223" y="432"/>
      <point x="285" y="432" type="curve" smooth="yes"/>
      <point x="303" y="432"/>
      <point x="324" y="429"/>
      <point x="348" y="421" type="curve"/>
      <point x="348" y="540" type="line"/>
      <point x="335" y="543"/>
      <point x="321" y="544"/>
      <point x="305" y="544" type="curve" smooth="yes"/>
      <point x="251" y="544"/>
      <point x="205" y="523"/>
      <point x="179" y="477" type="curve"/>
      <point x="179" y="532" type="line"/>
      <point x="55" y="532" type="line"/>
    </contour>
  </outline>
</glyph>
<glyph name="s" format="2">
  <advance width="485"/>
  <unicode hex="0073"/>
  <anchor x="243" y="532" name="top"/>
  <outline>
    <contour>
      <point x="239" y="-6" type="curve" smooth="yes"/>
      <point x="365" y="-6"/>
      <point x="453" y="55"/>
      <point x="453" y="165" type="curve" smooth="yes"/>
      <point x="453" y="253"/>
      <point x="399" y="302"/>
      <point x="293" y="318" type="curve" smooth="yes"/>
      <point x="230" y="328" type="line" smooth="yes"/>
      <point x="182" y="334"/>
      <point x="163" y="351"/>
      <point x="163" y="383" type="curve" smooth="yes"/>
      <point x="163" y="417"/>
      <point x="191" y="439"/>
      <point x="243" y="439" type="curve" smooth="yes"/>
      <point x="295" y="439"/>
      <point x="326" y="418"/>
      <point x="326" y="382" type="curve" smooth="yes"/>
      <point x="326" y="378" type="line"/>
      <point x="443" y="378" type="line"/>
      <point x="443" y="384" type="line" smooth="yes"/>
      <point x="443" y="471"/>
      <point x="363" y="539"/>
      <point x="243" y="539" type="curve" smooth="yes"/>
      <point x="127" y="539"/>
      <point x="44" y="476"/>
      <point x="44" y="374" type="curve" smooth="yes"/>
      <point x="44" y="286"/>
      <point x="94" y="240"/>
      <point x="200" y="222" type="curve" smooth="yes"/>
      <point x="256" y="213" type="line" smooth="yes"/>
      <point x="310" y="205"/>
      <point x="332" y="188"/>
      <point x="332" y="156" type="curve" smooth="yes"/>
      <point x="332" y="116"/>
      <point x="299" y="96"/>
      <point x="243" y="96" type="curve" smooth="yes"/>
      <point x="191" y="96"/>
      <point x="156" y="118"/>
      <point x="156" y="158" type="curve" smooth="yes"/>
      <point x="156" y="162" type="line"/>
      <point x="37" y="162" type="line"/>
      <point x="37" y="158" type="line" smooth="yes"/>
      <point x="37" y="58"/>
      <point x="117" y="-6"/>
    </contour>
  </outline>
</glyph>
<glyph name="t" format="2">
  <advance width="360"/>
  <unicode hex="0074"/>
  <outline>
    <contour>
      <point x="257" y="0" type="curve" smooth="yes"/>
      <point x="317" y="0" type="line"/>
      <point x="317" y="108" type="line"/>
      <point x="278" y="108" type="line" smooth="yes"/>
      <point x="243" y="108"/>
      <point x="225" y="126"/>
      <point x="225" y="162" type="curve" smooth="yes"/>
      <point x="225" y="443" type="line"/>
      <point x="328" y="443" type="line"/>
      <point x="328" y="532" type="line"/>
      <point x="225" y="532" type="line"/>
      <point x="225" y="681" type="line"/>
      <point x="99" y="637" type="line"/>
      <point x="99" y="532" type="line"/>
      <point x="26" y="532" type="line"/>
      <point x="26" y="443" type="line"/>
      <point x="99" y="443" type="line"/>
      <point x="99" y="154" type="line" smooth="yes"/>
      <point x="99" y="60"/>
      <point x="161" y="0"/>
    </contour>
  </outline>
</glyph>
<glyph name="u" format="2">
  <advance width="532"/>
  <unicode hex="0075"/>
  <anchor x="266" y="532" name="top"/>
  <outline>
    <contour>
      <point x="266" y="-6" type="curve" smooth="yes"/>
      <point x="337" y="-6"/>
      <point x="390" y="12"/>
      <point x="425" y="49" type="curve" smooth="yes"/>
      <point x="460" y="86"/>
      <point x="477" y="141"/>
      <point x="477" y="215" type="curve" smooth="yes"/>
      <point x="477" y="532" type="line"/>
      <point x="350" y="532" type="line"/>
      <point x="350" y="221" type="line" smooth="yes"/>
      <point x="350" y="181"/>
      <point x="344" y="152"/>
      <point x="333" y="134" type="curve" smooth="yes"/>
      <point x="322" y="116"/>
      <point x="299" y="106"/>
      <point x="266" y="106" type="curve" smooth="yes"/>
      <point x="233" y="106"/>
      <point x="210" y="117"/>
      <point x="199" y="136" type="curve" smooth="yes"/>
      <point x="188" y="155"/>
      <point x="182" y="183"/>
      <point x="182" y="221" type="curve" smooth="yes"/>
      <point x="182" y="532" type="line"/>
      <point x="55" y="532" type="line"/>
      <point x="55" y="215" type="line" smooth="yes"/>
      <point x="55" y="68"/>
      <point x="125" y="-6"/>
    </contour>
  </outline>
</glyph>
<glyph name="v" format="2">
  <advance width="492"/>
  <unicode hex="0076"/>
  <outline>
    <contour>
      <point x="194" y="0" type="line"/>
      <point x="298" y="0" type="line"/>
      <point x="483" y="532" type="line"/>
      <point x="349" y="532" type="line"/>
      <point x="247" y="195" type="line"/>
      <point x="143" y="532" type="line"/>
      <point x="9" y="532" type="line"/>
    </contour>
  </outline>
</glyph>
<glyph name="y" format="2">
  <advance width="493"/>
  <unicode hex="0079"/>
  <anchor x="247" y="532" name="top"/>
  <outline>
    <contour>
      <point x="78" y="-158" type="line"/>
      <point x="122" y="-158" type="line" smooth="yes"/>
      <point x="206" y="-158"/>
      <point x="255" y="-124"/>
      <point x="283" y="-46" type="curve" smooth="yes"/>
      <point x="484" y="532" type="line"/>
      <point x="354" y="532" type="line"/>
      <point x="248" y="198" type="line"/>
      <point x="143" y="532" type="line"/>
      <point x="9" y="532" type="line"/>
      <point x="189" y="14" type="line"/>
      <point x="187" y="7" type="line" smooth="yes"/>
      <point x="175" y="-33"/>
      <point x="158" y="-44"/>
      <point x="118" y="-44" type="curve" smooth="yes"/>
      <point x="78" y="-44" type="line"/>
    </contour>
  </outline>
</glyph>
<glyph name="z" format="2">
  <advance width="465"/>
  <unicode hex="007A"/>
  <anchor x="232" y="532" name="top"/>
  <outline>
    <contour>
      <point x="46" y="0" type="line"/>
      <point x="420" y="0" type="line"/>
      <point x="420" y="106" type="line"/>
      <point x="184" y="106" type="line"/>
      <point x="420" y="426" type="line"/>
      <point x="420" y="532" type="line"/>
      <point x="46" y="532" type="line"/>
      <point x="46" y="426" type="line"/>
      <point x="282" y="426" type="line"/>
      <point x="46" y="106" type="line"/>
    </contour>
  </outline>
</glyph>
<glyph name="braceleft" format="2">
  <advance width="368"/>
  <unicode hex="007B"/>
  <outline>
    <contour>
      <point x="251" y="-86" type="curve" smooth="yes"/>
      <point x="323" y="-86" type="line"/>
      <point x="323" y="16" type="line"/>
      <point x="287" y="16" type="line" smooth="yes"/>
      <point x="258" y="16"/>
      <point x="244" y="31"/>
      <point x="244" y="61" type="curve" smooth="yes"/>
      <point x="244" y="208" type="line" smooth="yes"/>
      <point x="244" y="286"/>
      <point x="225" y="318"/>
      <point x="171" y="338" type="curve"/>
      <point x="225" y="356"/>
      <point x="244" y="390"/>
      <point x="244" y="468" type="curve" smooth="yes"/>
      <point x="244" y="610" type="line" smooth="yes"/>
      <point x="244" y="640"/>
      <point x="258" y="655"/>
      <point x="287" y="655" type="curve" smooth="yes"/>
      <point x="323" y="655" type="line"/>
      <point x="323" y="758" type="line"/>
      <point x="251" y="758" type="line" smooth="yes"/>
      <point x="169" y="758"/>
      <point x="124" y="713"/>
      <point x="124" y="633" type="curve" smooth="yes"/>
      <point x="124" y="474" type="line" smooth="yes"/>
      <point x="124" y="416"/>
      <point x="104" y="392"/>
      <point x="46" y="392" type="curve"/>
      <point x="46" y="284" type="line"/>
      <point x="104" y="284"/>
      <point x="124" y="260"/>
      <point x="124" y="202" type="curve" smooth="yes"/>
      <point x="124" y="40" type="line" smooth="yes"/>
      <point x="124" y="-42"/>
      <point x="169" y="-86"/>
    </contour>
  </outline>
</glyph>
<glyph name="braceright" format="2">
  <advance width="368"/>
  <unicode hex="007D"/>
  <outline>
    <contour>
      <point x="46" y="-86" type="line"/>
      <point x="119" y="-86" type="line" smooth="yes"/>
      <point x="201" y="-86"/>
      <point x="245" y="-42"/>
      <point x="245" y="40" type="curve" smooth="yes"/>
      <point x="245" y="202" type="line" smooth="yes"/>
      <point x="245" y="260"/>
      <point x="267" y="284"/>
      <point x="323" y="284" type="curve"/>
      <point x="323" y="392" type="line"/>
      <point x="267" y="392"/>
      <point x="245" y="416"/>
      <point x="245" y="474" type="curve" smooth="yes"/>
      <point x="245" y="633" type="line" smooth="yes"/>
      <point x="245" y="713"/>
      <point x="201" y="758"/>
      <point x="119" y="758" type="curve" smooth="yes"/>
      <point x="46" y="758" type="line"/>
      <point x="46" y="655" type="line"/>
      <point x="82" y="655" type="line" smooth="yes"/>
      <point x="111" y="655"/>
      <point x="126" y="640"/>
      <point x="126" y="610" type="curve" smooth="yes"/>
      <point x="126" y="468" type="line" smooth="yes"/>
      <point x="126" y="390"/>
      <point x="145" y="356"/>
      <point x="199" y="338" type="curve"/>
      <point x="145" y="318"/>
      <point x="126" y="286"/>
      <point x="126" y="208" type="curve" smooth="yes"/>
      <point x="126" y="61" type="line" smooth="yes"/>
      <point x="126" y="31"/>
      <point x="111" y="16"/>
      <point x="82" y="16" type="curve" smooth="yes"/>
      <point x="46" y="16" type="line"/>
    </contour>
  </outline>
</glyph>
<glyph name="asciitilde" format="2">
  <advance width="541"/>
  <unicode hex="007E"/>
  <outline>
    <contour>
      <point x="355" y="200" type="curve" smooth="yes"/>
      <point x="417" y="200"/>
      <point x="471" y="240"/>
      <point x="503" y="312" type="curve"/>
      <point x="421" y="362" type="line"/>
      <point x="401" y="322"/>
      <point x="381" y="305"/>
      <point x="351" y="305" type="curve" smooth="yes"/>
      <point x="331" y="305"/>
      <point x="315" y="314"/>
      <point x="285" y="330" type="curve" smooth="yes"/>
      <point x="247" y="352"/>
      <point x="222" y="362"/>
      <point x="186" y="362" type="curve" smooth="yes"/>
      <point x="124" y="362"/>
      <point x="72" y="323"/>
      <point x="40" y="251" type="curve"/>
      <point x="122" y="201" type="line"/>
      <point x="144" y="241"/>
      <point x="163" y="258"/>
      <point x="191" y="258" type="curve" smooth="yes"/>
      <point x="211" y="258"/>
      <point x="225" y="251"/>
      <point x="257" y="233" type="curve" smooth="yes"/>
      <point x="293" y="211"/>
      <point x="319" y="200"/>
    </contour>
  </outline>
</glyph>
<glyph name="cent" format="2">
  <advance width="560"/>
  <unicode hex="00A2"/>
  <outline>
    <contour>
      <point x="255" y="-102" type="line"/>
      <point x="315" y="-102" type="line"/>
      <point x="315" y="-2" type="line"/>
      <point x="413" y="16"/>
      <point x="471" y="83"/>
      <point x="471" y="183" type="curve" smooth="yes"/>
      <point x="471" y="190" type="line"/>
      <point x="350" y="190" type="line"/>
      <point x="350" y="184" type="line" smooth="yes"/>
      <point x="350" y="134"/>
      <point x="318" y="106"/>
      <point x="264" y="106" type="curve" smooth="yes"/>
      <point x="206" y="106"/>
      <point x="172" y="138"/>
      <point x="172" y="218" type="curve" smooth="yes"/>
      <point x="172" y="314" type="line" smooth="yes"/>
      <point x="172" y="388"/>
      <point x="203" y="426"/>
      <point x="264" y="426" type="curve" smooth="yes"/>
      <point x="318" y="426"/>
      <point x="350" y="395"/>
      <point x="350" y="345" type="curve" smooth="yes"/>
      <point x="350" y="339" type="line"/>
      <point x="471" y="339" type="line"/>
      <point x="471" y="349" type="line" smooth="yes"/>
      <point x="471" y="451"/>
      <point x="415" y="517"/>
      <point x="315" y="535" type="curve"/>
      <point x="315" y="650" type="line"/>
      <point x="255" y="650" type="line"/>
      <point x="255" y="539" type="line"/>
      <point x="125" y="537"/>
      <point x="46" y="464"/>
      <point x="46" y="316" type="curve" smooth="yes"/>
      <point x="46" y="217" type="line" smooth="yes"/>
      <point x="46" y="67"/>
      <point x="125" y="-4"/>
      <point x="255" y="-6" type="curve"/>
    </contour>
  </outline>
</glyph>
<glyph name="sterling" format="2">
  <advance width="477"/>
  <unicode hex="00A3"/>
  <outline>
    <contour>
      <point x="44" y="0" type="line"/>
      <point x="452" y="0" type="line"/>
      <point x="452" y="116" type="line"/>
      <point x="191" y="116" type="line"/>
      <point x="212" y="139"/>
      <point x="223" y="173"/>
      <point x="223" y="219" type="curve" smooth="yes"/>
      <point x="223" y="283" type="line"/>
      <point x="356" y="283" type="line"/>
      <point x="356" y="399" type="line"/>
      <point x="223" y="399" type="line"/>
      <point x="223" y="540" type="line" smooth="yes"/>
      <point x="223" y="580"/>
      <point x="242" y="603"/>
      <point x="276" y="603" type="curve" smooth="yes"/>
      <point x="308" y="603"/>
      <point x="327" y="583"/>
      <point x="327" y="547" type="curve"/>
      <point x="452" y="547" type="line"/>
      <point x="452" y="657"/>
      <point x="384" y="717"/>
      <point x="274" y="717" type="curve" smooth="yes"/>
      <point x="156" y="717"/>
      <point x="89" y="646"/>
      <point x="89" y="524" type="curve" smooth="yes"/>
      <point x="89" y="399" type="line"/>
      <point x="26" y="399" type="line"/>
      <point x="26" y="283" type="line"/>
      <point x="89" y="283" type="line"/>
      <point x="89" y="206" type="line" smooth="yes"/>
      <point x="89" y="152"/>
      <point x="76" y="127"/>
      <point x="44" y="111" type="curve"/>
    </contour>
  </outline>
</glyph>
<glyph name="section" format="2">
  <advance width="523"/>
  <unicode hex="00A7"/>
  <outline>
    <contour>
      <point x="258" y="-172" type="curve" smooth="yes"/>
      <point x="314" y="-172"/>
      <point x="359" y="-156"/>
      <point x="392" y="-126" type="curve" smooth="yes"/>
      <point x="425" y="-96"/>
      <point x="442" y="-57"/>
      <point x="442" y="-10" type="curve" smooth="yes"/>
      <point x="442" y="23"/>
      <point x="437" y="50"/>
      <point x="427" y="72" type="curve" smooth="yes"/>
      <point x="417" y="94"/>
      <point x="399" y="112"/>
      <point x="373" y="127" type="curve"/>
      <point x="400" y="140"/>
      <point x="422" y="160"/>
      <point x="438" y="188" type="curve" smooth="yes"/>
      <point x="454" y="216"/>
      <point x="463" y="249"/>
      <point x="463" y="284" type="curve" smooth="yes"/>
      <point x="463" y="335"/>
      <point x="451" y="376"/>
      <point x="426" y="408" type="curve" smooth="yes"/>
      <point x="401" y="440"/>
      <point x="363" y="463"/>
      <point x="312" y="477" type="curve" smooth="yes"/>
      <point x="271" y="489"/>
      <point x="243" y="501"/>
      <point x="228" y="514" type="curve" smooth="yes"/>
      <point x="213" y="527"/>
      <point x="205" y="544"/>
      <point x="205" y="568" type="curve" smooth="yes"/>
      <point x="205" y="586"/>
      <point x="210" y="601"/>
      <point x="221" y="612" type="curve" smooth="yes"/>
      <point x="232" y="623"/>
      <point x="247" y="629"/>
      <point x="266" y="629" type="curve" smooth="yes"/>
      <point x="308" y="629"/>
      <point x="330" y="605"/>
      <point x="330" y="558" type="curve"/>
      <point x="444" y="558" type="line"/>
      <point x="444" y="612"/>
      <point x="429" y="655"/>
      <point x="399" y="686" type="curve" smooth="yes"/>
      <point x="369" y="717"/>
      <point x="323" y="733"/>
      <point x="264" y="733" type="curve" smooth="yes"/>
      <point x="228" y="733"/>
      <point x="196" y="726"/>
      <point x="169" y="712" type="curve" smooth="yes"/>
      <point x="142" y="698"/>
      <point x="120" y="678"/>
      <point x="105" y="653" type="curve" smooth="yes"/>
      <point x="90" y="628"/>
      <point x="83" y="600"/>
      <point x="83" y="569" type="curve" smooth="yes"/>
      <point x="83" y="540"/>
      <point x="88" y="515"/>
      <point x="98" y="493" type="curve" smooth="yes"/>
      <point x="108" y="471"/>
      <point x="126" y="453"/>
      <point x="150" y="439" type="curve"/>
      <point x="122" y="424"/>
      <point x="100" y="403"/>
      <point x="84" y="376" type="curve" smooth="yes"/>
      <point x="68" y="349"/>
      <point x="60" y="317"/>
      <point x="60" y="282" type="curve" smooth="yes"/>
      <point x="60" y="231"/>
      <point x="72" y="189"/>
      <point x="97" y="157" type="curve" smooth="yes"/>
      <point x="122" y="125"/>
      <point x="160" y="102"/>
      <point x="211" y="88" type="curve" smooth="yes"/>
      <point x="253" y="76"/>
      <point x="282" y="64"/>
      <point x="297" y="50" type="curve" smooth="yes"/>
      <point x="312" y="36"/>
      <point x="321" y="18"/>
      <point x="321" y="-7" type="curve" smooth="yes"/>
      <point x="321" y="-25"/>
      <point x="315" y="-40"/>
      <point x="304" y="-51" type="curve" smooth="yes"/>
      <point x="293" y="-62"/>
      <point x="277" y="-68"/>
      <point x="256" y="-68" type="curve" smooth="yes"/>
      <point x="212" y="-68"/>
      <point x="190" y="-44"/>
      <point x="190" y="4" type="curve"/>
      <point x="75" y="4" type="line"/>
      <point x="75" y="-52"/>
      <point x="91" y="-95"/>
      <point x="122" y="-126" type="curve" smooth="yes"/>
      <point x="153" y="-157"/>
      <point x="199" y="-172"/>
    </contour>
    <contour>
      <point x="203" y="216" type="curve" smooth="yes"/>
      <point x="189" y="232"/>
      <point x="182" y="254"/>
      <point x="182" y="283" type="curve" smooth="yes"/>
      <point x="182" y="312"/>
      <point x="189" y="333"/>
      <point x="203" y="349" type="curve" smooth="yes"/>
      <point x="217" y="365"/>
      <point x="237" y="373"/>
      <point x="262" y="373" type="curve" smooth="yes"/>
      <point x="287" y="373"/>
      <point x="305" y="365"/>
      <point x="319" y="349" type="curve" smooth="yes"/>
      <point x="333" y="333"/>
      <point x="340" y="311"/>
      <point x="340" y="283" type="curve" smooth="yes"/>
      <point x="340" y="255"/>
      <point x="333" y="233"/>
      <point x="319" y="217" type="curve" smooth="yes"/>
      <point x="305" y="201"/>
      <point x="287" y="193"/>
      <point x="262" y="193" type="curve" smooth="yes"/>
      <point x="237" y="193"/>
      <point x="217" y="200"/>
    </contour>
  </outline>
</glyph>
<glyph name="copyright" format="2">
  <advance width="857"/>
  <unicode hex="00A9"/>
  <outline>
    <contour>
      <point x="420" y="152" type="curve" smooth="yes"/>
      <point x="514" y="152"/>
      <point x="573" y="206"/>
      <point x="573" y="290" type="curve" smooth="yes"/>
      <point x="573" y="295" type="line"/>
      <point x="485" y="295" type="line"/>
      <point x="485" y="291" type="line" smooth="yes"/>
      <point x="485" y="255"/>
      <point x="463" y="233"/>
      <point x="423" y="233" type="curve" smooth="yes"/>
      <point x="379" y="233"/>
      <point x="355" y="255"/>
      <point x="355" y="315" type="curve" smooth="yes"/>
      <point x="355" y="385" type="line" smooth="yes"/>
      <point x="355" y="440"/>
      <point x="378" y="467"/>
      <point x="423" y="467" type="curve" smooth="yes"/>
      <point x="461" y="467"/>
      <point x="485" y="444"/>
      <point x="485" y="408" type="curve" smooth="yes"/>
      <point x="485" y="403" type="line"/>
      <point x="573" y="403" type="line"/>
      <point x="573" y="411" type="line" smooth="yes"/>
      <point x="573" y="497"/>
      <point x="516" y="549"/>
      <point x="420" y="549" type="curve" smooth="yes"/>
      <point x="324" y="549"/>
      <point x="264" y="496"/>
      <point x="264" y="386" type="curve" smooth="yes"/>
      <point x="264" y="314" type="line" smooth="yes"/>
      <point x="264" y="202"/>
      <point x="324" y="152"/>
    </contour>
    <contour>
      <point x="418" y="-9" type="curve" smooth="yes"/>
      <point x="628" y="-9"/>
      <point x="769" y="137"/>
      <point x="769" y="350" type="curve" smooth="yes"/>
      <point x="769" y="563"/>
      <point x="628" y="710"/>
      <point x="418" y="710" type="curve" smooth="yes"/>
      <point x="208" y="710"/>
      <point x="68" y="566"/>
      <point x="68" y="350" type="curve" smooth="yes"/>
      <point x="68" y="137"/>
      <point x="208" y="-9"/>
    </contour>
    <contour>
      <point x="418" y="70" type="curve" smooth="yes"/>
      <point x="252" y="70"/>
      <point x="151" y="176"/>
      <point x="151" y="350" type="curve" smooth="yes"/>
      <point x="151" y="524"/>
      <point x="252" y="632"/>
      <point x="418" y="632" type="curve" smooth="yes"/>
      <point x="584" y="632"/>
      <point x="686" y="524"/>
      <point x="686" y="350" type="curve" smooth="yes"/>
      <point x="686" y="176"/>
      <point x="584" y="70"/>
    </contour>
  </outline>
</glyph>
<glyph name="logicalnot" format="2">
  <advance width="541"/>
  <unicode hex="00AC"/>
  <outline>
    <contour>
      <point x="364" y="90" type="line"/>
      <point x="489" y="90" type="line"/>
      <point x="489" y="341" type="line"/>
      <point x="51" y="341" type="line"/>
      <point x="51" y="224" type="line"/>
      <point x="364" y="224" type="line"/>
    </contour>
  </outline>
</glyph>
<glyph name="macron" format="2">
  <advance width="512"/>
  <unicode hex="00AF"/>
  <outline>
    <contour>
      <point x="112" y="604" type="line"/>
      <point x="400" y="604" type="line"/>
      <point x="400" y="717" type="line"/>
      <point x="112" y="717" type="line"/>
    </contour>
  </outline>
</glyph>
<glyph name="degree" format="2">
  <advance width="403"/>
  <unicode hex="00B0"/>
  <outline>
    <contour>
      <point x="202" y="417" type="curve" smooth="yes"/>
      <point x="286" y="417"/>
      <point x="352" y="483"/>
      <point x="352" y="567" type="curve" smooth="yes"/>
      <point x="352" y="651"/>
      <point x="286" y="718"/>
      <point x="202" y="718" type="curve" smooth="yes"/>
      <point x="118" y="718"/>
      <point x="51" y="651"/>
      <point x="51" y="567" type="curve" smooth="yes"/>
      <point x="51" y="481"/>
      <point x="116" y="417"/>
    </contour>
    <contour>
      <point x="131" y="567" type="curve" smooth="yes"/>
      <point x="131" y="611"/>
      <point x="160" y="641"/>
      <point x="202" y="641" type="curve" smooth="yes"/>
      <point x="242" y="641"/>
      <point x="272" y="609"/>
      <point x="272" y="567" type="curve" smooth="yes"/>
      <point x="272" y="525"/>
      <point x="242" y="494"/>
      <point x="202" y="494" type="curve" smooth="yes"/>
      <point x="160" y="494"/>
      <point x="131" y="523"/>
    </contour>
  </outline>
</glyph>
<glyph name="plusminus" format="2">
  <advance width="541"/>
  <unicode hex="00B1"/>
  <outline>
    <contour>
      <point x="213" y="61" type="line"/>
      <point x="330" y="61" type="line"/>
      <point x="330" y="224" type="line"/>
      <point x="493" y="224" type="line"/>
      <point x="493" y="341" type="line"/>
      <point x="330" y="341" type="line"/>
      <point x="330" y="505" type="line"/>
      <point x="213" y="505" type="line"/>
      <point x="213" y="341" type="line"/>
      <point x="49" y="341" type="line"/>
      <point x="49" y="224" type="line"/>
      <point x="213" y="224" type="line"/>
    </contour>
    <contour>
      <point x="49" y="-100" type="line"/>
      <point x="493" y="-100" type="line"/>
      <point x="493" y="17" type="line"/>
      <point x="49" y="17" type="line"/>
    </contour>
  </outline>
</glyph>
<glyph name="periodcentered" format="2">
  <advance width="220"/>
  <unicode hex="00B7"/>
  <outline>
    <contour>
      <point x="39" y="213" type="line"/>
      <point x="181" y="213" type="line"/>
      <point x="181" y="358" type="line"/>
      <point x="39" y="358" type="line"/>
    </contour>
  </outline>
</glyph>
<glyph name="ordmasculine" format="2">
  <advance width="363"/>
  <unicode hex="00BA"/>
  <outline>
    <contour>
      <point x="182" y="436" type="curve" smooth="yes"/>
      <point x="225" y="436"/>
      <point x="259" y="447"/>
      <point x="283" y="470" type="curve" smooth="yes"/>
      <point x="307" y="493"/>
      <point x="319" y="526"/>
      <point x="319" y="572" type="curve" smooth="yes"/>
      <point x="319" y="631" type="line" smooth="yes"/>
      <point x="319" y="677"/>
      <point x="307" y="711"/>
      <point x="283" y="733" type="curve" smooth="yes"/>
      <point x="259" y="755"/>
      <point x="225" y="766"/>
      <point x="182" y="766" type="curve" smooth="yes"/>
      <point x="139" y="766"/>
      <point x="106" y="755"/>
      <point x="81" y="733" type="curve" smooth="yes"/>
      <point x="56" y="711"/>
      <point x="44" y="677"/>
      <point x="44" y="631" type="curve" smooth="yes"/>
      <point x="44" y="572" type="line" smooth="yes"/>
      <point x="44" y="526"/>
      <point x="56" y="493"/>
      <point x="81" y="470" type="curve" smooth="yes"/>
      <point x="106" y="447"/>
      <point x="139" y="436"/>
    </contour>
    <contour>
      <point x="135" y="572" type="curve" smooth="yes"/>
      <point x="135" y="630" type="line" smooth="yes"/>
      <point x="135" y="666"/>
      <point x="150" y="684"/>
      <point x="181" y="684" type="curve" smooth="yes"/>
      <point x="212" y="684"/>
      <point x="227" y="666"/>
      <point x="227" y="630" type="curve" smooth="yes"/>
      <point x="227" y="572" type="line" smooth="yes"/>
      <point x="227" y="536"/>
      <point x="212" y="518"/>
      <point x="181" y="518" type="curve" smooth="yes"/>
      <point x="150" y="518"/>
      <point x="135" y="536"/>
    </contour>
  </outline>
</glyph>
<glyph name="questiondown" format="2">
  <advance width="461"/>
  <unicode hex="00BF"/>
  <outline>
    <contour>
      <point x="234" y="-170" type="curve" smooth="yes"/>
      <point x="360" y="-170"/>
      <point x="432" y="-101"/>
      <point x="434" y="27" type="curve"/>
      <point x="310" y="27" type="line"/>
      <point x="308" y="-27"/>
      <point x="289" y="-55"/>
      <point x="239" y="-55" type="curve" smooth="yes"/>
      <point x="191" y="-55"/>
      <point x="166" y="-28"/>
      <point x="166" y="16" type="curve" smooth="yes"/>
      <point x="166" y="46"/>
      <point x="175" y="70"/>
      <point x="203" y="102" type="curve" smooth="yes"/>
      <point x="251" y="159" type="line" smooth="yes"/>
      <point x="295" y="209"/>
      <point x="301" y="234"/>
      <point x="301" y="292" type="curve" smooth="yes"/>
      <point x="301" y="331" type="line"/>
      <point x="174" y="331" type="line"/>
      <point x="174" y="301" type="line" smooth="yes"/>
      <point x="174" y="261"/>
      <point x="169" y="242"/>
      <point x="137" y="206" type="curve" smooth="yes"/>
      <point x="92" y="154" type="line" smooth="yes"/>
      <point x="50" y="104"/>
      <point x="35" y="65"/>
      <point x="35" y="9" type="curve" smooth="yes"/>
      <point x="35" y="-93"/>
      <point x="114" y="-170"/>
    </contour>
    <contour>
      <point x="171" y="399" type="line"/>
      <point x="304" y="399" type="line"/>
      <point x="304" y="532" type="line"/>
      <point x="171" y="532" type="line"/>
    </contour>
  </outline>
</glyph>
<glyph name="Oslash" format="2">
  <advance width="614"/>
  <unicode hex="00D8"/>
  <anchor x="307" y="707" name="top"/>
  <outline>
    <contour>
      <point x="51" y="-20" type="line"/>
      <point x="125" y="-20" type="line"/>
      <point x="154" y="29" type="line"/>
      <point x="194" y="4"/>
      <point x="243" y="-8"/>
      <point x="304" y="-8" type="curve" smooth="yes"/>
      <point x="462" y="-8"/>
      <point x="563" y="73"/>
      <point x="563" y="273" type="curve" smooth="yes"/>
      <point x="563" y="435" type="line" smooth="yes"/>
      <point x="563" y="522"/>
      <point x="545" y="590"/>
      <point x="507" y="636" type="curve"/>
      <point x="563" y="732" type="line"/>
      <point x="490" y="732" type="line"/>
      <point x="460" y="679" type="line"/>
      <point x="420" y="704"/>
      <point x="369" y="717"/>
      <point x="308" y="717" type="curve" smooth="yes"/>
      <point x="137" y="717"/>
      <point x="51" y="623"/>
      <point x="51" y="435" type="curve" smooth="yes"/>
      <point x="51" y="273" type="line" smooth="yes"/>
      <point x="51" y="185"/>
      <point x="69" y="119"/>
      <point x="105" y="73" type="curve"/>
    </contour>
    <contour>
      <point x="190" y="218" type="line"/>
      <point x="187" y="232"/>
      <point x="186" y="251"/>
      <point x="186" y="275" type="curve" smooth="yes"/>
      <point x="186" y="428" type="line" smooth="yes"/>
      <point x="186" y="550"/>
      <point x="222" y="599"/>
      <point x="308" y="599" type="curve" smooth="yes"/>
      <point x="346" y="599"/>
      <point x="374" y="588"/>
      <point x="393" y="566" type="curve"/>
    </contour>
    <contour>
      <point x="220" y="143" type="curve"/>
      <point x="424" y="494" type="line"/>
      <point x="427" y="472"/>
      <point x="429" y="450"/>
      <point x="429" y="428" type="curve" smooth="yes"/>
      <point x="429" y="275" type="line" smooth="yes"/>
      <point x="429" y="161"/>
      <point x="390" y="112"/>
      <point x="308" y="112" type="curve" smooth="yes"/>
      <point x="270" y="112"/>
      <point x="240" y="122"/>
    </contour>
  </outline>
</glyph>
<glyph name="germandbls" format="2">
  <advance width="536"/>
  <unicode hex="00DF"/>
  <outline>
    <contour>
      <point x="260" y="-4" type="line"/>
      <point x="302" y="-4" type="line" smooth="yes"/>
      <point x="461" y="-4"/>
      <point x="490" y="50"/>
      <point x="490" y="233" type="curve" smooth="yes"/>
      <point x="490" y="356"/>
      <point x="483" y="395"/>
      <point x="423" y="428" type="curve"/>
      <point x="463" y="456"/>
      <point x="481" y="494"/>
      <point x="481" y="548" type="curve" smooth="yes"/>
      <point x="481" y="656"/>
      <point x="404" y="717"/>
      <point x="270" y="717" type="curve" smooth="yes"/>
      <point x="120" y="717"/>
      <point x="55" y="646"/>
      <point x="55" y="510" type="curve" smooth="yes"/>
      <point x="55" y="0" type="line"/>
      <point x="182" y="0" type="line"/>
      <point x="182" y="521" type="line" smooth="yes"/>
      <point x="182" y="581"/>
      <point x="209" y="608"/>
      <point x="271" y="608" type="curve" smooth="yes"/>
      <point x="329" y="608"/>
      <point x="355" y="588"/>
      <point x="355" y="542" type="curve" smooth="yes"/>
      <point x="355" y="498"/>
      <point x="338" y="476"/>
      <point x="292" y="476" type="curve" smooth="yes"/>
      <point x="260" y="476" type="line"/>
      <point x="260" y="371" type="line"/>
      <point x="284" y="371" type="line" smooth="yes"/>
      <point x="359" y="371"/>
      <point x="365" y="344"/>
      <point x="365" y="236" type="curve" smooth="yes"/>
      <point x="365" y="125"/>
      <point x="362" y="102"/>
      <point x="293" y="102" type="curve" smooth="yes"/>
      <point x="260" y="102" type="line"/>
    </contour>
  </outline>
</glyph>
<glyph name="ae" format="2">
  <advance width="814"/>
  <unicode hex="00E6"/>
  <outline>
    <contour>
      <point x="227" y="-6" type="curve" smooth="yes"/>
      <point x="297" y="-6"/>
      <point x="355" y="18"/>
      <point x="395" y="58" type="curve"/>
      <point x="436" y="15"/>
      <point x="492" y="-6"/>
      <point x="563" y="-6" type="curve" smooth="yes"/>
      <point x="692" y="-6"/>
      <point x="764" y="69"/>
      <point x="764" y="162" type="curve" smooth="yes"/>
      <point x="764" y="167" type="line"/>
      <point x="643" y="167" type="line"/>
      <point x="643" y="164" type="line" smooth="yes"/>
      <point x="639" y="126"/>
      <point x="609" y="103"/>
      <point x="559" y="103" type="curve" smooth="yes"/>
      <point x="493" y="103"/>
      <point x="458" y="134"/>
      <point x="458" y="214" type="curve" smooth="yes"/>
      <point x="458" y="228" type="line"/>
      <point x="768" y="228" type="line"/>
      <point x="768" y="299" type="line" smooth="yes"/>
      <point x="768" y="457"/>
      <point x="683" y="539"/>
      <point x="551" y="539" type="curve" smooth="yes"/>
      <point x="491" y="539"/>
      <point x="441" y="521"/>
      <point x="403" y="487" type="curve"/>
      <point x="365" y="521"/>
      <point x="314" y="539"/>
      <point x="248" y="539" type="curve" smooth="yes"/>
      <point x="128" y="539"/>
      <point x="51" y="477"/>
      <point x="51" y="377" type="curve" smooth="yes"/>
      <point x="51" y="373" type="line"/>
      <point x="169" y="373" type="line"/>
      <point x="169" y="376" type="line" smooth="yes"/>
      <point x="169" y="416"/>
      <point x="199" y="441"/>
      <point x="247" y="441" type="curve" smooth="yes"/>
      <point x="304" y="441"/>
      <point x="332" y="413"/>
      <point x="332" y="356" type="curve" smooth="yes"/>
      <point x="332" y="314" type="line"/>
      <point x="219" y="314" type="line" smooth="yes"/>
      <point x="105" y="314"/>
      <point x="37" y="256"/>
      <point x="37" y="160" type="curve" smooth="yes"/>
      <point x="37" y="58"/>
      <point x="111" y="-6"/>
    </contour>
    <contour>
      <point x="238" y="96" type="curve" smooth="yes"/>
      <point x="186" y="96"/>
      <point x="160" y="119"/>
      <point x="160" y="163" type="curve" smooth="yes"/>
      <point x="160" y="206"/>
      <point x="187" y="227"/>
      <point x="240" y="227" type="curve" smooth="yes"/>
      <point x="332" y="227" type="line"/>
      <point x="332" y="195" type="line" smooth="yes"/>
      <point x="332" y="129"/>
      <point x="301" y="96"/>
    </contour>
    <contour>
      <point x="458" y="315" type="line"/>
      <point x="458" y="318" type="line" smooth="yes"/>
      <point x="458" y="398"/>
      <point x="491" y="430"/>
      <point x="551" y="430" type="curve" smooth="yes"/>
      <point x="612" y="430"/>
      <point x="642" y="397"/>
      <point x="642" y="329" type="curve" smooth="yes"/>
      <point x="642" y="315" type="line"/>
    </contour>
  </outline>
</glyph>
<glyph name="ccedilla" format="2">
  <advance width="517"/>
  <unicode hex="00E7"/>
  <outline>
    <contour>
      <point x="162" y="-160" type="line"/>
      <point x="279" y="-160" type="line"/>
      <point x="329" y="1" type="line"/>
      <point x="419" y="23"/>
      <point x="471" y="87"/>
      <point x="471" y="183" type="curve" smooth="yes"/>
      <point x="471" y="190" type="line"/>
      <point x="350" y="190" type="line"/>
      <point x="350" y="184" type="line" smooth="yes"/>
      <point x="350" y="134"/>
      <point x="318" y="106"/>
      <point x="264" y="106" type="curve" smooth="yes"/>
      <point x="206" y="106"/>
      <point x="172" y="138"/>
      <point x="172" y="218" type="curve" smooth="yes"/>
      <point x="172" y="314" type="line" smooth="yes"/>
      <point x="172" y="388"/>
      <point x="203" y="426"/>
      <point x="264" y="426" type="curve" smooth="yes"/>
      <point x="318" y="426"/>
      <point x="350" y="395"/>
      <point x="350" y="345" type="curve" smooth="yes"/>
      <point x="350" y="339" type="line"/>
      <point x="471" y="339" type="line"/>
      <point x="471" y="349" type="line" smooth="yes"/>
      <point x="471" y="467"/>
      <point x="394" y="539"/>
      <point x="262" y="539" type="curve" smooth="yes"/>
      <point x="128" y="539"/>
      <point x="46" y="468"/>
      <point x="46" y="316" type="curve" smooth="yes"/>
      <point x="46" y="217" type="line" smooth="yes"/>
      <point x="46" y="79"/>
      <point x="113" y="8"/>
      <point x="225" y="-4" type="curve"/>
    </contour>
  </outline>
</glyph>
<glyph name="eth" format="2">
  <advance width="521"/>
  <unicode hex="00F0"/>
  <outline>
    <contour>
      <point x="259" y="-11" type="curve" smooth="yes"/>
      <point x="328" y="-11"/>
      <point x="381" y="9"/>
      <point x="419" y="50" type="curve" smooth="yes"/>
      <point x="457" y="91"/>
      <point x="475" y="148"/>
      <point x="475" y="223" type="curve" smooth="yes"/>
      <point x="475" y="265" type="line" smooth="yes"/>
      <point x="475" y="313"/>
      <point x="466" y="359"/>
      <point x="449" y="403" type="curve" smooth="yes"/>
      <point x="432" y="447"/>
      <point x="405" y="495"/>
      <point x="368" y="548" type="curve" smooth="yes"/>
      <point x="343" y="583" type="line"/>
      <point x="416" y="605" type="line"/>
      <point x="390" y="686" type="line"/>
      <point x="292" y="655" type="line"/>
      <point x="252" y="712" type="line"/>
      <point x="121" y="712" type="line"/>
      <point x="183" y="623" type="line"/>
      <point x="102" y="598" type="line"/>
      <point x="128" y="517" type="line"/>
      <point x="233" y="550" type="line"/>
      <point x="295" y="462" type="line"/>
      <point x="275" y="472"/>
      <point x="251" y="476"/>
      <point x="224" y="476" type="curve" smooth="yes"/>
      <point x="168" y="476"/>
      <point x="124" y="456"/>
      <point x="93" y="417" type="curve" smooth="yes"/>
      <point x="62" y="378"/>
      <point x="46" y="325"/>
      <point x="46" y="259" type="curve" smooth="yes"/>
      <point x="46" y="214" type="line" smooth="yes"/>
      <point x="46" y="144"/>
      <point x="64" y="89"/>
      <point x="101" y="49" type="curve" smooth="yes"/>
      <point x="138" y="9"/>
      <point x="191" y="-11"/>
    </contour>
    <contour>
      <point x="164" y="216" type="curve" smooth="yes"/>
      <point x="164" y="263" type="line" smooth="yes"/>
      <point x="164" y="337"/>
      <point x="196" y="374"/>
      <point x="261" y="374" type="curve" smooth="yes"/>
      <point x="324" y="374"/>
      <point x="356" y="336"/>
      <point x="356" y="261" type="curve" smooth="yes"/>
      <point x="356" y="217" type="line" smooth="yes"/>
      <point x="356" y="138"/>
      <point x="324" y="99"/>
      <point x="261" y="99" type="curve" smooth="yes"/>
      <point x="196" y="99"/>
      <point x="164" y="138"/>
    </contour>
  </outline>
</glyph>
<glyph name="divide" format="2">
  <advance width="541"/>
  <unicode hex="00F7"/>
  <outline>
    <contour>
      <point x="270" y="44" type="curve" smooth="yes"/>
      <point x="310" y="44"/>
      <point x="339" y="75"/>
      <point x="339" y="113" type="curve" smooth="yes"/>
      <point x="339" y="151"/>
      <point x="308" y="181"/>
      <point x="270" y="181" type="curve" smooth="yes"/>
      <point x="232" y="181"/>
      <point x="203" y="151"/>
      <point x="203" y="113" type="curve" smooth="yes"/>
      <point x="203" y="75"/>
      <point x="232" y="44"/>
    </contour>
    <contour>
      <point x="49" y="224" type="line"/>
      <point x="493" y="224" type="line"/>
      <point x="493" y="341" type="line"/>
      <point x="49" y="341" type="line"/>
    </contour>
    <contour>
      <point x="270" y="385" type="curve" smooth="yes"/>
      <point x="308" y="385"/>
      <point x="339" y="416"/>
      <point x="339" y="454" type="curve" smooth="yes"/>
      <point x="339" y="492"/>
      <point x="308" y="522"/>
      <point x="270" y="522" type="curve" smooth="yes"/>
      <point x="232" y="522"/>
      <point x="203" y="492"/>
      <point x="203" y="454" type="curve" smooth="yes"/>
      <point x="203" y="416"/>
      <point x="232" y="385"/>
    </contour>
  </outline>
</glyph>
<glyph name="oslash" format="2">
  <advance width="522"/>
  <unicode hex="00F8"/>
  <outline>
    <contour>
      <point x="46" y="-30" type="line"/>
      <point x="110" y="-30" type="line"/>
      <point x="141" y="20" type="line"/>
      <point x="174" y="2"/>
      <point x="214" y="-6"/>
      <point x="262" y="-6" type="curve" smooth="yes"/>
      <point x="328" y="-6"/>
      <point x="381" y="12"/>
      <point x="419" y="48" type="curve" smooth="yes"/>
      <point x="457" y="84"/>
      <point x="476" y="141"/>
      <point x="476" y="217" type="curve" smooth="yes"/>
      <point x="476" y="316" type="line" smooth="yes"/>
      <point x="476" y="386"/>
      <point x="459" y="439"/>
      <point x="425" y="477" type="curve"/>
      <point x="476" y="559" type="line"/>
      <point x="413" y="559" type="line"/>
      <point x="383" y="511" type="line"/>
      <point x="350" y="529"/>
      <point x="309" y="539"/>
      <point x="262" y="539" type="curve" smooth="yes"/>
      <point x="195" y="539"/>
      <point x="143" y="520"/>
      <point x="104" y="484" type="curve" smooth="yes"/>
      <point x="65" y="448"/>
      <point x="46" y="392"/>
      <point x="46" y="316" type="curve" smooth="yes"/>
      <point x="46" y="217" type="line" smooth="yes"/>
      <point x="46" y="147"/>
      <point x="63" y="92"/>
      <point x="98" y="54" type="curve"/>
    </contour>
    <contour>
      <point x="175" y="178" type="line"/>
      <point x="173" y="190"/>
      <point x="172" y="203"/>
      <point x="172" y="218" type="curve" smooth="yes"/>
      <point x="172" y="314" type="line" smooth="yes"/>
      <point x="172" y="388"/>
      <point x="202" y="426"/>
      <point x="262" y="426" type="curve" smooth="yes"/>
      <point x="285" y="426"/>
      <point x="304" y="420"/>
      <point x="318" y="408" type="curve"/>
    </contour>
    <contour>
      <point x="205" y="124" type="curve"/>
      <point x="347" y="352" type="line"/>
      <point x="349" y="341"/>
      <point x="350" y="328"/>
      <point x="350" y="314" type="curve" smooth="yes"/>
      <point x="350" y="218" type="line" smooth="yes"/>
      <point x="350" y="144"/>
      <point x="321" y="106"/>
      <point x="262" y="106" type="curve" smooth="yes"/>
      <point x="238" y="106"/>
      <point x="219" y="112"/>
    </contour>
  </outline>
</glyph>
<glyph name="thorn" format="2">
  <advance width="527"/>
  <unicode hex="00FE"/>
  <outline>
    <contour>
      <point x="55" y="-160" type="line"/>
      <point x="179" y="-160" type="line"/>
      <point x="179" y="49" type="line"/>
      <point x="209" y="12"/>
      <point x="251" y="-6"/>
      <point x="305" y="-6" type="curve" smooth="yes"/>
      <point x="407" y="-6"/>
      <point x="481" y="66"/>
      <point x="481" y="214" type="curve" smooth="yes"/>
      <point x="481" y="319" type="line" smooth="yes"/>
      <point x="481" y="467"/>
      <point x="407" y="539"/>
      <point x="301" y="539" type="curve" smooth="yes"/>
      <point x="251" y="539"/>
      <point x="211" y="518"/>
      <point x="182" y="478" type="curve"/>
      <point x="182" y="707" type="line"/>
      <point x="55" y="707" type="line"/>
    </contour>
    <contour>
      <point x="272" y="106" type="curve" smooth="yes"/>
      <point x="214" y="106"/>
      <point x="181" y="146"/>
      <point x="181" y="218" type="curve" smooth="yes"/>
      <point x="181" y="314" type="line" smooth="yes"/>
      <point x="181" y="386"/>
      <point x="215" y="426"/>
      <point x="269" y="426" type="curve" smooth="yes"/>
      <point x="321" y="426"/>
      <point x="354" y="394"/>
      <point x="354" y="314" type="curve" smooth="yes"/>
      <point x="354" y="218" type="line" smooth="yes"/>
      <point x="354" y="144"/>
      <point x="327" y="106"/>
    </contour>
  </outline>
</glyph>
<glyph name="Aogonek" format="2">
  <advance width="620"/>
  <unicode hex="0104"/>
  <outline>
    <component base="A"/>
    <contour>
      <point x="579" y="-227" type="curve"/>
      <point x="579" y="-138" type="line"/>
      <point x="537" y="-137"/>
      <point x="512" y="-140"/>
      <point x="487" y="-114" type="curve"/>
      <point x="586" y="0" type="line"/>
      <point x="477" y="0" type="line"/>
      <point x="385" y="-106" type="line"/>
      <point x="395" y="-134"/>
      <point x="408" y="-157"/>
      <point x="428" y="-174" type="curve" smooth="yes"/>
      <point x="465" y="-209"/>
      <point x="516" y="-226"/>
    </contour>
  </outline>
</glyph>
<glyph name="dcroat" format="2">
  <advance width="526"/>
  <unicode hex="0111"/>
  <outline>
    <component base="d"/>
    <contour>
      <point x="238" y="581" type="line"/>
      <point x="526" y="581" type="line"/>
      <point x="526" y="654" type="line"/>
      <point x="238" y="654" type="line"/>
    </contour>
  </outline>
</glyph>
<glyph name="eogonek" format="2">
  <advance width="529"/>
  <unicode hex="0119"/>
  <outline>
    <component base="e"/>
    <contour>
      <point x="407" y="-197" type="curve"/>
      <point x="407" y="-108" type="line"/>
      <point x="365" y="-107"/>
      <point x="340" y="-110"/>
      <point x="315" y="-84" type="curve"/>
      <point x="407" y="43" type="line"/>
      <point x="325" y="43" type="line"/>
      <point x="213" y="-76" type="line"/>
      <point x="223" y="-104"/>
      <point x="236" y="-127"/>
      <point x="256" y="-144" type="curve" smooth="yes"/>
      <point x="293" y="-179"/>
      <point x="344" y="-196"/>
    </contour>
  </outline>
</glyph>
<glyph name="gcommaaccent" format="2">
  <advance width="526"/>
  <unicode hex="0123"/>
  <outline>
    <component base="g"/>
    <contour>
      <point x="203" y="564" type="line"/>
      <point x="303" y="564" type="line"/>
      <point x="303" y="707" type="line"/>
      <point x="203" y="626" type="line"/>
    </contour>
  </outline>
</glyph>
<glyph name="IJ" format="2">
  <advance width="628"/>
  <unicode hex="0132"/>
  <outline>
    <contour>
      <point x="313" y="-6" type="curve" smooth="yes"/>
      <point x="457" y="-6"/>
      <point x="568" y="95"/>
      <point x="568" y="233" type="curve" smooth="yes"/>
      <point x="568" y="707" type="line"/>
      <point x="433" y="707" type="line"/>
      <point x="433" y="238" type="line" smooth="yes"/>
      <point x="433" y="158"/>
      <point x="387" y="111"/>
      <point x="313" y="111" type="curve" smooth="yes"/>
      <point x="246" y="111"/>
      <point x="203" y="149"/>
      <point x="196" y="216" type="curve"/>
      <point x="61" y="216" type="line"/>
      <point x="68" y="87"/>
      <point x="176" y="-6"/>
    </contour>
    <contour>
      <point x="60" y="352" type="line"/>
      <point x="195" y="352" type="line"/>
      <point x="195" y="707" type="line"/>
      <point x="60" y="707" type="line"/>
    </contour>
  </outline>
</glyph>
<glyph name="ij" format="2">
  <advance width="495"/>
  <unicode hex="0133"/>
  <outline>
    <contour>
      <point x="264" y="-168" type="curve" smooth="yes"/>
      <point x="400" y="-168"/>
      <point x="440" y="-73"/>
      <point x="440" y="39" type="curve" smooth="yes"/>
      <point x="440" y="532" type="line"/>
      <point x="314" y="532" type="line"/>
      <point x="314" y="265" type="line" smooth="yes"/>
      <point x="314" y="205"/>
      <point x="312" y="164"/>
      <point x="254" y="164" type="curve" smooth="yes"/>
      <point x="199" y="164"/>
      <point x="182" y="191"/>
      <point x="182" y="265" type="curve" smooth="yes"/>
      <point x="182" y="532" type="line"/>
      <point x="55" y="532" type="line"/>
      <point x="55" y="261" type="line" smooth="yes"/>
      <point x="55" y="113"/>
      <point x="129" y="51"/>
      <point x="231" y="51" type="curve" smooth="yes"/>
      <point x="285" y="51"/>
      <point x="304" y="50"/>
      <point x="316" y="96" type="curve"/>
      <point x="316" y="31" type="line" smooth="yes"/>
      <point x="316" y="-35"/>
      <point x="307" y="-68"/>
      <point x="249" y="-68" type="curve" smooth="yes"/>
      <point x="201" y="-68"/>
      <point x="190" y="-45"/>
      <point x="184" y="-13" type="curve"/>
      <point x="62" y="-13" type="line"/>
      <point x="68" y="-109"/>
      <point x="140" y="-168"/>
    </contour>
    <contour>
      <point x="55" y="605" type="line"/>
      <point x="182" y="605" type="line"/>
      <point x="182" y="707" type="line"/>
      <point x="55" y="707" type="line"/>
    </contour>
    <contour>
      <point x="314" y="605" type="line"/>
      <point x="440" y="605" type="line"/>
      <point x="440" y="707" type="line"/>
      <point x="314" y="707" type="line"/>
    </contour>
  </outline>
</glyph>
<glyph name="Lslash" format="2">
  <advance width="528"/>
  <unicode hex="0141"/>
  <outline>
    <component base="L"/>
    <contour>
      <point x="20" y="279" type="line"/>
      <point x="311" y="416" type="line"/>
      <point x="311" y="529" type="line"/>
      <point x="21" y="392" type="line"/>
    </contour>
  </outline>
</glyph>
<glyph name="eng" format="2">
  <advance width="532"/>
  <unicode hex="014B"/>
  <outline>
    <contour>
      <point x="257" y="-173" type="line"/>
      <point x="315" y="-173" type="line" smooth="yes"/>
      <point x="427" y="-173"/>
      <point x="477" y="-166"/>
      <point x="477" y="0" type="curve" smooth="yes"/>
      <point x="477" y="347" type="line" smooth="yes"/>
      <point x="477" y="465"/>
      <point x="415" y="539"/>
      <point x="305" y="539" type="curve" smooth="yes"/>
      <point x="257" y="539"/>
      <point x="211" y="520"/>
      <point x="179" y="484" type="curve"/>
      <point x="179" y="532" type="line"/>
      <point x="55" y="532" type="line"/>
      <point x="55" y="0" type="line"/>
      <point x="182" y="0" type="line"/>
      <point x="182" y="332" type="line" smooth="yes"/>
      <point x="182" y="392"/>
      <point x="217" y="426"/>
      <point x="267" y="426" type="curve" smooth="yes"/>
      <point x="317" y="426"/>
      <point x="350" y="392"/>
      <point x="350" y="332" type="curve" smooth="yes"/>
      <point x="350" y="0" type="line" smooth="yes"/>
      <point x="350" y="-49"/>
      <point x="334" y="-63"/>
      <point x="300" y="-63" type="curve" smooth="yes"/>
      <point x="257" y="-63" type="line"/>
    </contour>
  </outline>
</glyph>
<glyph name="oe" format="2">
  <advance width="832"/>
  <unicode hex="0153"/>
  <outline>
    <contour>
      <point x="262" y="-6" type="curve" smooth="yes"/>
      <point x="328" y="-6"/>
      <point x="380" y="11"/>
      <point x="417" y="46" type="curve"/>
      <point x="455" y="11"/>
      <point x="506" y="-6"/>
      <point x="572" y="-6" type="curve" smooth="yes"/>
      <point x="704" y="-6"/>
      <point x="782" y="60"/>
      <point x="782" y="162" type="curve" smooth="yes"/>
      <point x="782" y="167" type="line"/>
      <point x="662" y="167" type="line"/>
      <point x="662" y="164" type="line" smooth="yes"/>
      <point x="658" y="126"/>
      <point x="628" y="103"/>
      <point x="578" y="103" type="curve" smooth="yes"/>
      <point x="512" y="103"/>
      <point x="476" y="134"/>
      <point x="476" y="214" type="curve" smooth="yes"/>
      <point x="476" y="228" type="line"/>
      <point x="786" y="228" type="line"/>
      <point x="786" y="299" type="line" smooth="yes"/>
      <point x="786" y="457"/>
      <point x="701" y="539"/>
      <point x="569" y="539" type="curve" smooth="yes"/>
      <point x="506" y="539"/>
      <point x="455" y="521"/>
      <point x="417" y="486" type="curve"/>
      <point x="380" y="521"/>
      <point x="328" y="539"/>
      <point x="262" y="539" type="curve" smooth="yes"/>
      <point x="128" y="539"/>
      <point x="46" y="468"/>
      <point x="46" y="316" type="curve" smooth="yes"/>
      <point x="46" y="217" type="line" smooth="yes"/>
      <point x="46" y="65"/>
      <point x="128" y="-6"/>
    </contour>
    <contour>
      <point x="476" y="315" type="line"/>
      <point x="476" y="398"/>
      <point x="509" y="430"/>
      <point x="569" y="430" type="curve" smooth="yes"/>
      <point x="630" y="430"/>
      <point x="660" y="397"/>
      <point x="660" y="329" type="curve" smooth="yes"/>
      <point x="660" y="315" type="line"/>
    </contour>
    <contour>
      <point x="172" y="218" type="curve" smooth="yes"/>
      <point x="172" y="314" type="line" smooth="yes"/>
      <point x="172" y="388"/>
      <point x="202" y="426"/>
      <point x="262" y="426" type="curve" smooth="yes"/>
      <point x="321" y="426"/>
      <point x="350" y="388"/>
      <point x="350" y="314" type="curve" smooth="yes"/>
      <point x="350" y="218" type="line" smooth="yes"/>
      <point x="350" y="144"/>
      <point x="321" y="106"/>
      <point x="262" y="106" type="curve" smooth="yes"/>
      <point x="202" y="106"/>
      <point x="172" y="144"/>
    </contour>
  </outline>
</glyph>
<glyph name="Uogonek" format="2">
  <advance width="628"/>
  <unicode hex="0172"/>
  <outline>
    <component base="U"/>
    <contour>
      <point x="437" y="-207" type="curve"/>
      <point x="437" y="-118" type="line"/>
      <point x="395" y="-117"/>
      <point x="370" y="-120"/>
      <point x="345" y="-94" type="curve"/>
      <point x="438" y="24" type="line"/>
      <point x="324" y="0" type="line"/>
      <point x="243" y="-86" type="line"/>
      <point x="253" y="-114"/>
      <point x="266" y="-137"/>
      <point x="286" y="-154" type="curve" smooth="yes"/>
      <point x="323" y="-189"/>
      <point x="374" y="-206"/>
    </contour>
  </outline>
</glyph>
<glyph name="uogonek" format="2">
  <advance width="532"/>
  <unicode hex="0173"/>
  <outline>
    <component base="u"/>
    <contour>
      <point x="387" y="-207" type="curve"/>
      <point x="387" y="-118" type="line"/>
      <point x="345" y="-117"/>
      <point x="320" y="-120"/>
      <point x="295" y="-94" type="curve"/>
      <point x="387" y="21" type="line"/>
      <point x="279" y="5" type="line"/>
      <point x="193" y="-86" type="line"/>
      <point x="203" y="-114"/>
      <point x="216" y="-137"/>
      <point x="236" y="-154" type="curve" smooth="yes"/>
      <point x="273" y="-189"/>
      <point x="324" y="-206"/>
    </contour>
  </outline>
</glyph>
<glyph name="florin" format="2">
  <advance width="429"/>
  <unicode hex="0192"/>
  <outline>
    <contour>
      <point x="9" y="-160" type="line"/>
      <point x="55" y="-160" type="line" smooth="yes"/>
      <point x="167" y="-160"/>
      <point x="217" y="-113"/>
      <point x="237" y="9" type="curve" smooth="yes"/>
      <point x="284" y="321" type="line"/>
      <point x="402" y="321" type="line"/>
      <point x="402" y="433" type="line"/>
      <point x="300" y="433" type="line"/>
      <point x="314" y="527" type="line" smooth="yes"/>
      <point x="320" y="573"/>
      <point x="343" y="590"/>
      <point x="385" y="590" type="curve" smooth="yes"/>
      <point x="420" y="590" type="line"/>
      <point x="420" y="707" type="line"/>
      <point x="368" y="707" type="line" smooth="yes"/>
      <point x="258" y="707"/>
      <point x="206" y="657"/>
      <point x="188" y="541" type="curve" smooth="yes"/>
      <point x="172" y="433" type="line"/>
      <point x="76" y="433" type="line"/>
      <point x="76" y="321" type="line"/>
      <point x="156" y="321" type="line"/>
      <point x="112" y="25" type="line" smooth="yes"/>
      <point x="104" y="-25"/>
      <point x="85" y="-40"/>
      <point x="39" y="-40" type="curve" smooth="yes"/>
      <point x="9" y="-40" type="line"/>
    </contour>
  </outline>
</glyph>
<glyph name="oogonek" format="2">
  <advance width="522"/>
  <unicode hex="01EB"/>
  <outline>
    <contour>
      <point x="387" y="-205" type="curve"/>
      <point x="387" y="-116" type="line"/>
      <point x="345" y="-115"/>
      <point x="320" y="-118"/>
      <point x="295" y="-92" type="curve"/>
      <point x="387" y="24" type="line"/>
      <point x="399" y="31"/>
      <point x="409" y="39"/>
      <point x="419" y="48" type="curve" smooth="yes"/>
      <point x="454" y="82"/>
      <point x="473" y="134"/>
      <point x="476" y="202" type="curve"/>
      <point x="476" y="316" type="line"/>
      <point x="476" y="392"/>
      <point x="457" y="448"/>
      <point x="419" y="484" type="curve" smooth="yes"/>
      <point x="381" y="520"/>
      <point x="328" y="539"/>
      <point x="262" y="539" type="curve" smooth="yes"/>
      <point x="195" y="539"/>
      <point x="143" y="520"/>
      <point x="104" y="484" type="curve" smooth="yes"/>
      <point x="65" y="448"/>
      <point x="46" y="392"/>
      <point x="46" y="316" type="curve" smooth="yes"/>
      <point x="46" y="217" type="line" smooth="yes"/>
      <point x="46" y="135"/>
      <point x="69" y="76"/>
      <point x="113" y="40" type="curve"/>
      <point x="152" y="9"/>
      <point x="203" y="-7"/>
      <point x="266" y="-6" type="curve"/>
      <point x="193" y="-84" type="line"/>
      <point x="203" y="-112"/>
      <point x="216" y="-135"/>
      <point x="236" y="-152" type="curve" smooth="yes"/>
      <point x="273" y="-187"/>
      <point x="324" y="-204"/>
    </contour>
    <contour>
      <point x="172" y="218" type="curve" smooth="yes"/>
      <point x="172" y="314" type="line" smooth="yes"/>
      <point x="172" y="388"/>
      <point x="202" y="426"/>
      <point x="262" y="426" type="curve" smooth="yes"/>
      <point x="321" y="426"/>
      <point x="350" y="388"/>
      <point x="350" y="314" type="curve" smooth="yes"/>
      <point x="350" y="218" type="line" smooth="yes"/>
      <point x="350" y="144"/>
      <point x="321" y="106"/>
      <point x="262" y="106" type="curve" smooth="yes"/>
      <point x="202" y="106"/>
      <point x="172" y="144"/>
    </contour>
  </outline>
</glyph>
<glyph name="dotlessj" format="2">
  <advance width="246"/>
  <unicode hex="0237"/>
  <anchor x="123" y="532" name="top"/>
  <outline>
    <contour>
      <point x="-34" y="-160" type="line"/>
      <point x="26" y="-160" type="line" smooth="yes"/>
      <point x="128" y="-160"/>
      <point x="186" y="-102"/>
      <point x="186" y="2" type="curve" smooth="yes"/>
      <point x="186" y="532" type="line"/>
      <point x="60" y="532" type="line"/>
      <point x="60" y="10" type="line" smooth="yes"/>
      <point x="60" y="-32"/>
      <point x="45" y="-50"/>
      <point x="9" y="-50" type="curve" smooth="yes"/>
      <point x="-34" y="-50" type="line"/>
    </contour>
  </outline>
</glyph>
<glyph name="ring" format="2">
  <advance width="512"/>
  <unicode hex="02DA"/>
  <outline>
    <contour>
      <point x="254" y="591" type="curve" smooth="yes"/>
      <point x="314" y="591"/>
      <point x="359" y="636"/>
      <point x="359" y="696" type="curve" smooth="yes"/>
      <point x="359" y="758"/>
      <point x="314" y="803"/>
      <point x="254" y="803" type="curve" smooth="yes"/>
      <point x="194" y="803"/>
      <point x="148" y="758"/>
      <point x="148" y="696" type="curve" smooth="yes"/>
      <point x="148" y="636"/>
      <point x="194" y="591"/>
    </contour>
    <contour>
      <point x="207" y="696" type="curve" smooth="yes"/>
      <point x="207" y="724"/>
      <point x="226" y="746"/>
      <point x="254" y="746" type="curve" smooth="yes"/>
      <point x="282" y="746"/>
      <point x="302" y="724"/>
      <point x="302" y="696" type="curve" smooth="yes"/>
      <point x="302" y="668"/>
      <point x="282" y="647"/>
      <point x="254" y="647" type="curve" smooth="yes"/>
      <point x="228" y="647"/>
      <point x="207" y="668"/>
    </contour>
  </outline>
</glyph>
<glyph name="ogonek" format="2">
  <advance width="512"/>
  <unicode hex="02DB"/>
  <outline>
    <contour>
      <point x="345" y="13" type="line"/>
      <point x="427" y="13" type="line"/>
      <point x="427" y="1" type="line"/>
      <point x="335" y="-114" type="line"/>
      <point x="360" y="-140"/>
      <point x="385" y="-137"/>
      <point x="427" y="-138" type="curve"/>
      <point x="427" y="-227" type="line"/>
      <point x="364" y="-226"/>
      <point x="313" y="-209"/>
      <point x="276" y="-174" type="curve" smooth="yes"/>
      <point x="256" y="-157"/>
      <point x="243" y="-134"/>
      <point x="233" y="-106" type="curve"/>
    </contour>
  </outline>
</glyph>
<glyph name="tilde" format="2">
  <advance width="512"/>
  <unicode hex="02DC"/>
  <outline>
    <contour>
      <point x="111" y="596" type="line"/>
      <point x="147" y="628"/>
      <point x="161" y="636"/>
      <point x="189" y="636" type="curve" smooth="yes"/>
      <point x="205" y="636"/>
      <point x="224" y="630"/>
      <point x="246" y="618" type="curve" smooth="yes"/>
      <point x="274" y="602"/>
      <point x="291" y="597"/>
      <point x="317" y="597" type="curve" smooth="yes"/>
      <point x="349" y="597"/>
      <point x="368" y="609"/>
      <point x="400" y="641" type="curve"/>
      <point x="400" y="734" type="line"/>
      <point x="364" y="702"/>
      <point x="351" y="693"/>
      <point x="323" y="693" type="curve" smooth="yes"/>
      <point x="307" y="693"/>
      <point x="288" y="699"/>
      <point x="266" y="711" type="curve" smooth="yes"/>
      <point x="238" y="727"/>
      <point x="222" y="732"/>
      <point x="194" y="732" type="curve" smooth="yes"/>
      <point x="162" y="732"/>
      <point x="143" y="720"/>
      <point x="111" y="688" type="curve"/>
    </contour>
  </outline>
</glyph>
<glyph name="circumflexcmb" format="2">
  <unicode hex="0302"/>
  <anchor x="0" y="532" name="_top"/>
  <outline>
    <contour>
      <point x="-165" y="591" type="line"/>
      <point x="-65" y="591" type="line"/>
      <point x="0" y="671" type="line"/>
      <point x="65" y="591" type="line"/>
      <point x="164" y="591" type="line"/>
      <point x="46" y="745" type="line"/>
      <point x="-47" y="745" type="line"/>
    </contour>
  </outline>
</glyph>
<glyph name="tildecomb" format="2">
  <unicode hex="0303"/>
  <anchor x="0" y="532" name="_top"/>
  <outline>
    <contour>
      <point x="-145" y="596" type="line"/>
      <point x="-109" y="628"/>
      <point x="-95" y="636"/>
      <point x="-67" y="636" type="curve" smooth="yes"/>
      <point x="-51" y="636"/>
      <point x="-32" y="630"/>
      <point x="-10" y="618" type="curve" smooth="yes"/>
      <point x="18" y="602"/>
      <point x="35" y="597"/>
      <point x="61" y="597" type="curve" smooth="yes"/>
      <point x="93" y="597"/>
      <point x="112" y="609"/>
      <point x="144" y="641" type="curve"/>
      <point x="144" y="734" type="line"/>
      <point x="108" y="702"/>
      <point x="95" y="693"/>
      <point x="67" y="693" type="curve" smooth="yes"/>
      <point x="51" y="693"/>
      <point x="32" y="699"/>
      <point x="10" y="711" type="curve" smooth="yes"/>
      <point x="-18" y="727"/>
      <point x="-34" y="732"/>
      <point x="-62" y="732" type="curve" smooth="yes"/>
      <point x="-94" y="732"/>
      <point x="-113" y="720"/>
      <point x="-145" y="688" type="curve"/>
    </contour>
  </outline>
</glyph>
<glyph name="macroncmb" format="2">
  <unicode hex="0304"/>
  <anchor x="0" y="519" name="_top"/>
  <outline>
    <contour>
      <point x="-144" y="604" type="line"/>
      <point x="144" y="604" type="line"/>
      <point x="144" y="717" type="line"/>
      <point x="-144" y="717" type="line"/>
    </contour>
  </outline>
</glyph>
<glyph name="brevecmb" format="2">
  <unicode hex="0306"/>
  <outline>
    <contour>
      <point x="0" y="568" type="curve" smooth="yes"/>
      <point x="100" y="568"/>
      <point x="152" y="625"/>
      <point x="152" y="729" type="curve" smooth="yes"/>
      <point x="152" y="743" type="line"/>
      <point x="73" y="743" type="line"/>
      <point x="73" y="729" type="line" smooth="yes"/>
      <point x="73" y="669"/>
      <point x="49" y="640"/>
      <point x="0" y="640" type="curve" smooth="yes"/>
      <point x="-49" y="640"/>
      <point x="-73" y="669"/>
      <point x="-73" y="729" type="curve" smooth="yes"/>
      <point x="-73" y="743" type="line"/>
      <point x="-152" y="743" type="line"/>
      <point x="-152" y="729" type="line" smooth="yes"/>
      <point x="-152" y="625"/>
      <point x="-100" y="568"/>
    </contour>
  </outline>
</glyph>
<glyph name="dotaccentcmb" format="2">
  <unicode hex="0307"/>
  <anchor x="0" y="519" name="_top"/>
  <outline>
    <contour>
      <point x="-65" y="610" type="line"/>
      <point x="69" y="610" type="line"/>
      <point x="69" y="712" type="line"/>
      <point x="-65" y="712" type="line"/>
    </contour>
  </outline>
</glyph>
<glyph name="dieresiscmb" format="2">
  <unicode hex="0308"/>
  <anchor x="0" y="532" name="_top"/>
  <outline>
    <contour>
      <point x="-154" y="720" type="line"/>
      <point x="-44" y="720" type="line"/>
      <point x="-44" y="601" type="line"/>
      <point x="-154" y="601" type="line"/>
    </contour>
    <contour>
      <point x="43" y="720" type="line"/>
      <point x="153" y="720" type="line"/>
      <point x="153" y="601" type="line"/>
      <point x="43" y="601" type="line"/>
    </contour>
  </outline>
</glyph>
<glyph name="ringcmb" format="2">
  <unicode hex="030A"/>
  <anchor x="0" y="532" name="_top"/>
  <outline>
    <contour>
      <point x="0" y="591" type="curve" smooth="yes"/>
      <point x="60" y="591"/>
      <point x="105" y="636"/>
      <point x="105" y="696" type="curve" smooth="yes"/>
      <point x="105" y="758"/>
      <point x="60" y="803"/>
      <point x="0" y="803" type="curve" smooth="yes"/>
      <point x="-60" y="803"/>
      <point x="-105" y="758"/>
      <point x="-105" y="696" type="curve" smooth="yes"/>
      <point x="-105" y="636"/>
      <point x="-60" y="591"/>
    </contour>
    <contour>
      <point x="-47" y="696" type="curve" smooth="yes"/>
      <point x="-47" y="724"/>
      <point x="-28" y="746"/>
      <point x="0" y="746" type="curve" smooth="yes"/>
      <point x="28" y="746"/>
      <point x="48" y="724"/>
      <point x="48" y="696" type="curve" smooth="yes"/>
      <point x="48" y="668"/>
      <point x="28" y="647"/>
      <point x="0" y="647" type="curve" smooth="yes"/>
      <point x="-26" y="647"/>
      <point x="-47" y="668"/>
    </contour>
  </outline>
</glyph>
<glyph name="hungarumlautcmb" format="2">
  <unicode hex="030B"/>
  <outline>
    <contour>
      <point x="-159" y="602" type="line"/>
      <point x="-49" y="602" type="line"/>
      <point x="92" y="738" type="line"/>
      <point x="-48" y="738" type="line"/>
    </contour>
    <contour>
      <point x="41" y="602" type="line"/>
      <point x="151" y="602" type="line"/>
      <point x="292" y="738" type="line"/>
      <point x="152" y="738" type="line"/>
    </contour>
  </outline>
</glyph>
<glyph name="caroncmb" format="2">
  <unicode hex="030C"/>
  <anchor x="0" y="519" name="_top"/>
  <outline>
    <contour>
      <point x="-47" y="584" type="line"/>
      <point x="46" y="584" type="line"/>
      <point x="164" y="738" type="line"/>
      <point x="65" y="738" type="line"/>
      <point x="0" y="658" type="line"/>
      <point x="-65" y="738" type="line"/>
      <point x="-165" y="738" type="line"/>
    </contour>
  </outline>
</glyph>
<glyph name="commaaccentcomb" format="2">
  <unicode hex="0326"/>
  <anchor x="0" y="0" name="_bottom"/>
  <outline>
    <contour>
      <point x="-50" y="-173" type="line"/>
      <point x="50" y="-92" type="line"/>
      <point x="50" y="-30" type="line"/>
      <point x="-50" y="-30" type="line"/>
    </contour>
  </outline>
</glyph>
<glyph name="cedillacmb" format="2">
  <unicode hex="0327"/>
  <anchor x="0" y="0" name="_bottom"/>
  <outline>
    <contour>
      <point x="160" y="-160" type="line"/>
      <point x="276" y="-160" type="line"/>
      <point x="331" y="13" type="line"/>
      <point x="230" y="13" type="line"/>
    </contour>
  </outline>
</glyph>
<glyph name="ogonekcmb" format="2">
  <unicode hex="0328"/>
  <anchor x="-1" y="0" name="_bottom"/>
  <outline>
    <contour>
      <point x="82" y="-227" type="curve"/>
      <point x="82" y="-138" type="line"/>
      <point x="40" y="-137"/>
      <point x="15" y="-140"/>
      <point x="-10" y="-114" type="curve"/>
      <point x="82" y="1" type="line"/>
      <point x="82" y="13" type="line"/>
      <point x="0" y="13" type="line"/>
      <point x="-112" y="-106" type="line"/>
      <point x="-102" y="-134"/>
      <point x="-89" y="-157"/>
      <point x="-69" y="-174" type="curve" smooth="yes"/>
      <point x="-32" y="-209"/>
      <point x="19" y="-226"/>
    </contour>
  </outline>
</glyph>
<glyph name="alpha" format="2">
  <advance width="644"/>
  <unicode hex="03B1"/>
  <outline>
    <contour>
      <point x="262" y="-6" type="curve" smooth="yes"/>
      <point x="339" y="-6"/>
      <point x="399" y="17"/>
      <point x="435" y="67" type="curve"/>
      <point x="472" y="33"/>
      <point x="518" y="16"/>
      <point x="578" y="16" type="curve"/>
      <point x="578" y="122" type="line"/>
      <point x="527" y="124"/>
      <point x="491" y="158"/>
      <point x="491" y="223" type="curve" smooth="yes"/>
      <point x="491" y="309" type="line" smooth="yes"/>
      <point x="491" y="374"/>
      <point x="527" y="408"/>
      <point x="578" y="410" type="curve"/>
      <point x="578" y="517" type="line"/>
      <point x="518" y="517"/>
      <point x="472" y="499"/>
      <point x="437" y="467" type="curve" smooth="yes"/>
      <point x="403" y="510"/>
      <point x="339" y="539"/>
      <point x="262" y="539" type="curve" smooth="yes"/>
      <point x="128" y="539"/>
      <point x="46" y="468"/>
      <point x="46" y="316" type="curve" smooth="yes"/>
      <point x="46" y="217" type="line" smooth="yes"/>
      <point x="46" y="65"/>
      <point x="128" y="-6"/>
    </contour>
    <contour>
      <point x="172" y="218" type="curve" smooth="yes"/>
      <point x="172" y="314" type="line" smooth="yes"/>
      <point x="172" y="388"/>
      <point x="202" y="426"/>
      <point x="262" y="426" type="curve" smooth="yes"/>
      <point x="321" y="426"/>
      <point x="360" y="388"/>
      <point x="360" y="314" type="curve" smooth="yes"/>
      <point x="360" y="218" type="line" smooth="yes"/>
      <point x="360" y="144"/>
      <point x="321" y="106"/>
      <point x="262" y="106" type="curve" smooth="yes"/>
      <point x="202" y="106"/>
      <point x="172" y="144"/>
    </contour>
  </outline>
</glyph>
<glyph name="Njecyr" format="2">
  <advance width="957"/>
  <unicode hex="040A"/>
  <outline>
    <component base="H"/>
    <contour>
      <point x="525" y="439" type="line"/>
      <point x="675" y="439" type="line" smooth="yes"/>
      <point x="816" y="439"/>
      <point x="906" y="355"/>
      <point x="906" y="223" type="curve" smooth="yes"/>
      <point x="906" y="85"/>
      <point x="818" y="0"/>
      <point x="675" y="0" type="curve" smooth="yes"/>
      <point x="525" y="0" type="line"/>
      <point x="525" y="117" type="line"/>
      <point x="668" y="117" type="line" smooth="yes"/>
      <point x="735" y="117"/>
      <point x="772" y="155"/>
      <point x="772" y="223" type="curve" smooth="yes"/>
      <point x="772" y="284"/>
      <point x="732" y="321"/>
      <point x="668" y="321" type="curve" smooth="yes"/>
      <point x="525" y="321" type="line"/>
    </contour>
  </outline>
</glyph>
<glyph name="Tshecyr" format="2">
  <advance width="727"/>
  <unicode hex="040B"/>
  <outline>
    <contour>
      <point x="186" y="0" type="line"/>
      <point x="322" y="0" type="line"/>
      <point x="322" y="321" type="line"/>
      <point x="360" y="336"/>
      <point x="400" y="341"/>
      <point x="438" y="341" type="curve" smooth="yes"/>
      <point x="502" y="341"/>
      <point x="542" y="284"/>
      <point x="542" y="223" type="curve" smooth="yes"/>
      <point x="542" y="0" type="line"/>
      <point x="676" y="0" type="line"/>
      <point x="676" y="223" type="line" smooth="yes"/>
      <point x="676" y="355"/>
      <point x="586" y="459"/>
      <point x="445" y="459" type="curve" smooth="yes"/>
      <point x="404" y="459"/>
      <point x="363" y="454"/>
      <point x="322" y="439" type="curve"/>
      <point x="322" y="590" type="line"/>
      <point x="502" y="590" type="line"/>
      <point x="502" y="707" type="line"/>
      <point x="6" y="707" type="line"/>
      <point x="6" y="590" type="line"/>
      <point x="186" y="590" type="line"/>
    </contour>
  </outline>
</glyph>
<glyph name="Dzhecyr" format="2">
  <advance width="602"/>
  <unicode hex="040F"/>
  <outline>
    <contour>
      <point x="60" y="707" type="line"/>
      <point x="194" y="707" type="line"/>
      <point x="194" y="117" type="line"/>
      <point x="408" y="117" type="line"/>
      <point x="408" y="707" type="line"/>
      <point x="542" y="707" type="line"/>
      <point x="542" y="0" type="line"/>
      <point x="368" y="0" type="line"/>
      <point x="368" y="-170" type="line"/>
      <point x="234" y="-170" type="line"/>
      <point x="234" y="0" type="line"/>
      <point x="60" y="0" type="line"/>
    </contour>
  </outline>
</glyph>
<glyph name="Becyr" format="2">
  <advance width="607"/>
  <unicode hex="0411"/>
  <outline>
    <contour>
      <point x="60" y="707" type="line"/>
      <point x="509" y="707" type="line"/>
      <point x="509" y="590" type="line"/>
      <point x="195" y="590" type="line"/>
      <point x="195" y="439" type="line"/>
      <point x="325" y="439" type="line" smooth="yes"/>
      <point x="466" y="439"/>
      <point x="556" y="355"/>
      <point x="556" y="223" type="curve" smooth="yes"/>
      <point x="556" y="85"/>
      <point x="468" y="0"/>
      <point x="325" y="0" type="curve" smooth="yes"/>
      <point x="60" y="0" type="line"/>
    </contour>
    <contour>
      <point x="195" y="321" type="line"/>
      <point x="195" y="117" type="line"/>
      <point x="318" y="117" type="line" smooth="yes"/>
      <point x="385" y="117"/>
      <point x="422" y="155"/>
      <point x="422" y="223" type="curve" smooth="yes"/>
      <point x="422" y="284"/>
      <point x="382" y="321"/>
      <point x="318" y="321" type="curve" smooth="yes"/>
    </contour>
  </outline>
</glyph>
<glyph name="Decyr" format="2">
  <advance width="703"/>
  <unicode hex="0414"/>
  <outline>
    <contour>
      <point x="171" y="707" type="line"/>
      <point x="617" y="707" type="line"/>
      <point x="617" y="117" type="line"/>
      <point x="692" y="117" type="line"/>
      <point x="692" y="-170" type="line"/>
      <point x="558" y="-170" type="line"/>
      <point x="558" y="0" type="line"/>
      <point x="145" y="0" type="line"/>
      <point x="145" y="-170" type="line"/>
      <point x="11" y="-170" type="line"/>
      <point x="11" y="117" type="line"/>
      <point x="41" y="117" type="line"/>
      <point x="87" y="117"/>
      <point x="137" y="223"/>
      <point x="157" y="507" type="curve" smooth="yes"/>
    </contour>
    <contour>
      <point x="297" y="590" type="line"/>
      <point x="290" y="490" type="line" smooth="yes"/>
      <point x="280" y="352"/>
      <point x="255" y="212"/>
      <point x="204" y="117" type="curve"/>
      <point x="483" y="117" type="line"/>
      <point x="483" y="590" type="line"/>
    </contour>
  </outline>
</glyph>
<glyph name="Zecyr" format="2">
  <advance width="630"/>
  <unicode hex="0417"/>
  <outline>
    <contour>
      <point x="332" y="-8" type="curve" smooth="yes"/>
      <point x="463" y="-8"/>
      <point x="579" y="64"/>
      <point x="579" y="199" type="curve" smooth="yes"/>
      <point x="579" y="212" type="line" smooth="yes"/>
      <point x="579" y="278"/>
      <point x="544" y="337"/>
      <point x="481" y="364" type="curve"/>
      <point x="535" y="391"/>
      <point x="570" y="446"/>
      <point x="570" y="505" type="curve" smooth="yes"/>
      <point x="570" y="514" type="line" smooth="yes"/>
      <point x="570" y="648"/>
      <point x="447" y="717"/>
      <point x="321" y="717" type="curve" smooth="yes"/>
      <point x="164" y="717"/>
      <point x="61" y="640"/>
      <point x="61" y="515" type="curve" smooth="yes"/>
      <point x="61" y="510" type="line"/>
      <point x="196" y="510" type="line"/>
      <point x="196" y="515" type="line" smooth="yes"/>
      <point x="196" y="568"/>
      <point x="247" y="600"/>
      <point x="316" y="600" type="curve" smooth="yes"/>
      <point x="388" y="600"/>
      <point x="435" y="563"/>
      <point x="435" y="506" type="curve" smooth="yes"/>
      <point x="435" y="500" type="line" smooth="yes"/>
      <point x="435" y="445"/>
      <point x="394" y="418"/>
      <point x="341" y="418" type="curve" smooth="yes"/>
      <point x="248" y="418" type="line"/>
      <point x="248" y="301" type="line"/>
      <point x="349" y="301" type="line" smooth="yes"/>
      <point x="408" y="301"/>
      <point x="445" y="270"/>
      <point x="445" y="208" type="curve" smooth="yes"/>
      <point x="445" y="200" type="line" smooth="yes"/>
      <point x="445" y="142"/>
      <point x="388" y="109"/>
      <point x="329" y="109" type="curve" smooth="yes"/>
      <point x="253" y="109"/>
      <point x="196" y="145"/>
      <point x="196" y="194" type="curve" smooth="yes"/>
      <point x="196" y="199" type="line"/>
      <point x="61" y="199" type="line"/>
      <point x="61" y="191" type="line" smooth="yes"/>
      <point x="61" y="72"/>
      <point x="170" y="-8"/>
    </contour>
  </outline>
</glyph>
<glyph name="Icyr" format="2">
  <advance width="649"/>
  <unicode hex="0418"/>
  <guideline x="315" y="0" angle="90" name="h1"/>
  <anchor x="315" y="776" name="top"/>
  <outline>
    <contour>
      <point x="60" y="0" type="line"/>
      <point x="194" y="0" type="line"/>
      <point x="454" y="441" type="line"/>
      <point x="454" y="0" type="line"/>
      <point x="589" y="0" type="line"/>
      <point x="589" y="707" type="line"/>
      <point x="454" y="707" type="line"/>
      <point x="194" y="264" type="line"/>
      <point x="194" y="707" type="line"/>
      <point x="60" y="707" type="line"/>
    </contour>
  </outline>
</glyph>
<glyph name="Kacyr" format="2">
  <advance width="624"/>
  <unicode hex="041A"/>
  <guideline x="0" y="707" angle="0" name="horizontal"/>
  <guideline x="303" y="0" angle="90" name="h1"/>
  <anchor x="303" y="776" name="top"/>
  <outline>
    <contour>
      <point x="60" y="0" type="line"/>
      <point x="195" y="0" type="line"/>
      <point x="195" y="299" type="line"/>
      <point x="256" y="299" type="line"/>
      <point x="463" y="0" type="line"/>
      <point x="618" y="0" type="line"/>
      <point x="351" y="394" type="line"/>
      <point x="600" y="707" type="line"/>
      <point x="439" y="707" type="line"/>
      <point x="224" y="416" type="line"/>
      <point x="195" y="416" type="line"/>
      <point x="195" y="707" type="line"/>
      <point x="60" y="707" type="line"/>
    </contour>
  </outline>
</glyph>
<glyph name="Elcyr" format="2">
  <advance width="618"/>
  <unicode hex="041B"/>
  <outline>
    <contour>
      <point x="21" y="-8" type="line"/>
      <point x="141" y="-8"/>
      <point x="202" y="67"/>
      <point x="213" y="227" type="curve" smooth="yes"/>
      <point x="238" y="590" type="line"/>
      <point x="424" y="590" type="line"/>
      <point x="424" y="0" type="line"/>
      <point x="558" y="0" type="line"/>
      <point x="558" y="707" type="line"/>
      <point x="112" y="707" type="line"/>
      <point x="81" y="262" type="line" smooth="yes"/>
      <point x="73" y="151"/>
      <point x="59" y="117"/>
      <point x="21" y="117" type="curve"/>
    </contour>
  </outline>
</glyph>
<glyph name="Pecyr" format="2">
  <advance width="615"/>
  <unicode hex="041F"/>
  <outline>
    <contour>
      <point x="60" y="0" type="line"/>
      <point x="195" y="0" type="line"/>
      <point x="195" y="590" type="line"/>
      <point x="420" y="590" type="line"/>
      <point x="420" y="0" type="line"/>
      <point x="555" y="0" type="line"/>
      <point x="555" y="707" type="line"/>
      <point x="60" y="707" type="line"/>
    </contour>
  </outline>
</glyph>
<glyph name="Ucyr" format="2">
  <advance width="554"/>
  <unicode hex="0423"/>
  <guideline x="269" y="0" angle="90" name="h1"/>
  <anchor x="269" y="776" name="top"/>
  <outline>
    <contour>
      <point x="70" y="-8" type="line"/>
      <point x="132" y="-8" type="line" smooth="yes"/>
      <point x="228" y="-8"/>
      <point x="286" y="35"/>
      <point x="326" y="136" type="curve" smooth="yes"/>
      <point x="550" y="707" type="line"/>
      <point x="402" y="707" type="line"/>
      <point x="271" y="377" type="line"/>
      <point x="151" y="707" type="line"/>
      <point x="4" y="707" type="line"/>
      <point x="203" y="198" type="line"/>
      <point x="184" y="153" type="line" smooth="yes"/>
      <point x="174" y="130"/>
      <point x="144" y="117"/>
      <point x="102" y="117" type="curve" smooth="yes"/>
      <point x="70" y="117" type="line"/>
    </contour>
  </outline>
</glyph>
<glyph name="Efcyr" format="2">
  <advance width="726"/>
  <unicode hex="0424"/>
  <guideline x="307" y="0" angle="90" name="h1"/>
  <anchor x="362" y="776" name="top"/>
  <outline>
    <contour>
      <point x="296" y="0" type="line"/>
      <point x="430" y="0" type="line"/>
      <point x="430" y="62" type="line"/>
      <point x="591" y="66"/>
      <point x="675" y="164"/>
      <point x="675" y="345" type="curve" smooth="yes"/>
      <point x="675" y="377" type="line" smooth="yes"/>
      <point x="675" y="557"/>
      <point x="590" y="653"/>
      <point x="430" y="657" type="curve"/>
      <point x="430" y="707" type="line"/>
      <point x="296" y="707" type="line"/>
      <point x="296" y="657" type="line"/>
      <point x="135" y="653"/>
      <point x="51" y="555"/>
      <point x="51" y="374" type="curve" smooth="yes"/>
      <point x="51" y="342" type="line" smooth="yes"/>
      <point x="51" y="162"/>
      <point x="136" y="66"/>
      <point x="296" y="62" type="curve"/>
    </contour>
    <contour>
      <point x="296" y="182" type="line"/>
      <point x="223" y="187"/>
      <point x="186" y="240"/>
      <point x="186" y="344" type="curve" smooth="yes"/>
      <point x="186" y="367" type="line" smooth="yes"/>
      <point x="186" y="477"/>
      <point x="222" y="532"/>
      <point x="296" y="537" type="curve"/>
    </contour>
    <contour>
      <point x="430" y="182" type="curve"/>
      <point x="430" y="537" type="line"/>
      <point x="503" y="532"/>
      <point x="540" y="479"/>
      <point x="540" y="375" type="curve" smooth="yes"/>
      <point x="540" y="352" type="line" smooth="yes"/>
      <point x="540" y="242"/>
      <point x="504" y="187"/>
    </contour>
  </outline>
</glyph>
<glyph name="Tsecyr" format="2">
  <advance width="627"/>
  <unicode hex="0426"/>
  <outline>
    <contour>
      <point x="482" y="-170" type="line"/>
      <point x="616" y="-170" type="line"/>
      <point x="616" y="117" type="line"/>
      <point x="541" y="117" type="line"/>
      <point x="541" y="707" type="line"/>
      <point x="407" y="707" type="line"/>
      <point x="407" y="117" type="line"/>
      <point x="194" y="117" type="line"/>
      <point x="194" y="707" type="line"/>
      <point x="60" y="707" type="line"/>
      <point x="60" y="0" type="line"/>
      <point x="482" y="0" type="line"/>
    </contour>
  </outline>
</glyph>
<glyph name="Checyr" format="2">
  <advance width="628"/>
  <unicode hex="0427"/>
  <outline>
    <contour>
      <point x="434" y="0" type="line"/>
      <point x="568" y="0" type="line"/>
      <point x="568" y="707" type="line"/>
      <point x="434" y="707" type="line"/>
      <point x="434" y="376" type="line"/>
      <point x="410" y="355"/>
      <point x="374" y="346"/>
      <point x="313" y="346" type="curve" smooth="yes"/>
      <point x="235" y="346"/>
      <point x="195" y="398"/>
      <point x="195" y="473" type="curve" smooth="yes"/>
      <point x="195" y="707" type="line"/>
      <point x="60" y="707" type="line"/>
      <point x="60" y="468" type="line" smooth="yes"/>
      <point x="60" y="323"/>
      <point x="160" y="229"/>
      <point x="313" y="229" type="curve" smooth="yes"/>
      <point x="362" y="229"/>
      <point x="400" y="235"/>
      <point x="434" y="248" type="curve"/>
    </contour>
  </outline>
</glyph>
<glyph name="Softcyr" format="2">
  <advance width="607"/>
  <unicode hex="042C"/>
  <guideline x="284" y="0" angle="90" name="h1"/>
  <guideline x="284" y="0" angle="90" name="h1"/>
  <anchor x="284" y="776" name="top"/>
  <outline>
    <contour>
      <point x="60" y="0" type="line"/>
      <point x="325" y="0" type="line" smooth="yes"/>
      <point x="468" y="0"/>
      <point x="556" y="85"/>
      <point x="556" y="223" type="curve" smooth="yes"/>
      <point x="556" y="355"/>
      <point x="466" y="439"/>
      <point x="325" y="439" type="curve" smooth="yes"/>
      <point x="195" y="439" type="line"/>
      <point x="195" y="707" type="line"/>
      <point x="60" y="707" type="line"/>
    </contour>
    <contour>
      <point x="195" y="117" type="line"/>
      <point x="195" y="321" type="line"/>
      <point x="318" y="321" type="line" smooth="yes"/>
      <point x="382" y="321"/>
      <point x="422" y="284"/>
      <point x="422" y="223" type="curve" smooth="yes"/>
      <point x="422" y="155"/>
      <point x="385" y="117"/>
      <point x="318" y="117" type="curve" smooth="yes"/>
    </contour>
  </outline>
</glyph>
<glyph name="Ereversedcyr" format="2">
  <advance width="613"/>
  <unicode hex="042D"/>
  <guideline x="302" y="0" angle="90" name="h1"/>
  <anchor x="302" y="776" name="top"/>
  <outline>
    <contour>
      <point x="305" y="-8" type="curve" smooth="yes"/>
      <point x="476" y="-8"/>
      <point x="562" y="85"/>
      <point x="562" y="273" type="curve" smooth="yes"/>
      <point x="562" y="435" type="line" smooth="yes"/>
      <point x="562" y="623"/>
      <point x="476" y="717"/>
      <point x="303" y="717" type="curve" smooth="yes"/>
      <point x="149" y="717"/>
      <point x="50" y="630"/>
      <point x="50" y="482" type="curve" smooth="yes"/>
      <point x="50" y="475" type="line"/>
      <point x="184" y="475" type="line"/>
      <point x="184" y="481" type="line" smooth="yes"/>
      <point x="184" y="553"/>
      <point x="228" y="599"/>
      <point x="304" y="599" type="curve" smooth="yes"/>
      <point x="390" y="599"/>
      <point x="427" y="550"/>
      <point x="427" y="428" type="curve" smooth="yes"/>
      <point x="427" y="416" type="line"/>
      <point x="222" y="416" type="line"/>
      <point x="222" y="298" type="line"/>
      <point x="427" y="298" type="line"/>
      <point x="427" y="275" type="line" smooth="yes"/>
      <point x="427" y="161"/>
      <point x="388" y="112"/>
      <point x="302" y="112" type="curve" smooth="yes"/>
      <point x="226" y="112"/>
      <point x="184" y="156"/>
      <point x="184" y="226" type="curve" smooth="yes"/>
      <point x="184" y="234" type="line"/>
      <point x="52" y="234" type="line"/>
      <point x="52" y="227" type="line" smooth="yes"/>
      <point x="52" y="75"/>
      <point x="147" y="-8"/>
    </contour>
  </outline>
</glyph>
<glyph name="Yucyr" format="2">
  <advance width="834"/>
  <unicode hex="042E"/>
  <guideline x="460" y="0" angle="90" name="h1"/>
  <anchor x="460" y="776" name="top"/>
  <outline>
    <component base="O" xOffset="220"/>
    <contour>
      <point x="60" y="707" type="line"/>
      <point x="195" y="707" type="line"/>
      <point x="195" y="416" type="line"/>
      <point x="340" y="416" type="line"/>
      <point x="340" y="299" type="line"/>
      <point x="195" y="299" type="line"/>
      <point x="195" y="0" type="line"/>
      <point x="60" y="0" type="line"/>
    </contour>
  </outline>
</glyph>
<glyph name="Yacyr" format="2">
  <advance width="614"/>
  <unicode hex="042F"/>
  <guideline x="342" y="0" angle="90" name="h1"/>
  <anchor x="342" y="776" name="top"/>
  <outline>
    <contour>
      <point x="30" y="0" type="line"/>
      <point x="185" y="0" type="line"/>
      <point x="319" y="287" type="line"/>
      <point x="419" y="287" type="line"/>
      <point x="419" y="0" type="line"/>
      <point x="554" y="0" type="line"/>
      <point x="554" y="707" type="line"/>
      <point x="285" y="707" type="line" smooth="yes"/>
      <point x="216" y="707"/>
      <point x="161" y="688"/>
      <point x="120" y="650" type="curve" smooth="yes"/>
      <point x="79" y="612"/>
      <point x="59" y="561"/>
      <point x="59" y="496" type="curve" smooth="yes"/>
      <point x="59" y="450"/>
      <point x="69" y="410"/>
      <point x="91" y="378" type="curve" smooth="yes"/>
      <point x="113" y="346"/>
      <point x="144" y="322"/>
      <point x="184" y="307" type="curve"/>
    </contour>
    <contour>
      <point x="219" y="423" type="curve" smooth="yes"/>
      <point x="202" y="440"/>
      <point x="193" y="465"/>
      <point x="193" y="496" type="curve" smooth="yes"/>
      <point x="193" y="525"/>
      <point x="202" y="547"/>
      <point x="220" y="564" type="curve" smooth="yes"/>
      <point x="238" y="581"/>
      <point x="261" y="590"/>
      <point x="292" y="590" type="curve" smooth="yes"/>
      <point x="419" y="590" type="line"/>
      <point x="419" y="398" type="line"/>
      <point x="292" y="398" type="line" smooth="yes"/>
      <point x="261" y="398"/>
      <point x="236" y="406"/>
    </contour>
  </outline>
</glyph>
<glyph name="becyr" format="2">
  <advance width="519"/>
  <unicode hex="0431"/>
  <outline>
    <contour>
      <point x="260" y="-6" type="curve" smooth="yes"/>
      <point x="387" y="-6"/>
      <point x="473" y="83"/>
      <point x="473" y="214" type="curve" smooth="yes"/>
      <point x="473" y="266" type="line" smooth="yes"/>
      <point x="473" y="382"/>
      <point x="423" y="486"/>
      <point x="293" y="486" type="curve" smooth="yes"/>
      <point x="244" y="486"/>
      <point x="205" y="470"/>
      <point x="177" y="438" type="curve"/>
      <point x="174" y="438" type="line"/>
      <point x="174" y="458" type="line" smooth="yes"/>
      <point x="174" y="573"/>
      <point x="327" y="546"/>
      <point x="401" y="567" type="curve"/>
      <point x="401" y="707" type="line"/>
      <point x="258" y="637"/>
      <point x="46" y="700"/>
      <point x="47" y="447" type="curve" smooth="yes"/>
      <point x="47" y="244" type="line" smooth="yes"/>
      <point x="47" y="86"/>
      <point x="102" y="-6"/>
    </contour>
    <contour>
      <point x="173" y="218" type="curve" smooth="yes"/>
      <point x="173" y="261" type="line" smooth="yes"/>
      <point x="173" y="317"/>
      <point x="196" y="373"/>
      <point x="261" y="373" type="curve" smooth="yes"/>
      <point x="329" y="373"/>
      <point x="346" y="319"/>
      <point x="346" y="261" type="curve" smooth="yes"/>
      <point x="346" y="218" type="line" smooth="yes"/>
      <point x="346" y="162"/>
      <point x="325" y="106"/>
      <point x="258" y="106" type="curve" smooth="yes"/>
      <point x="191" y="106"/>
      <point x="173" y="159"/>
    </contour>
  </outline>
</glyph>
<glyph name="gecyr" format="2">
  <advance width="366"/>
  <unicode hex="0433"/>
  <guideline x="209" y="0" angle="90" name="h1"/>
  <anchor x="209" y="602" name="top"/>
  <outline>
    <contour>
      <point x="55" y="532" type="line"/>
      <point x="348" y="532" type="line"/>
      <point x="348" y="421" type="line"/>
      <point x="182" y="421" type="line"/>
      <point x="182" y="0" type="line"/>
      <point x="55" y="0" type="line"/>
    </contour>
  </outline>
</glyph>
<glyph name="decyr" format="2">
  <advance width="606"/>
  <unicode hex="0434"/>
  <guideline x="259" y="369" angle="84.7422"/>
  <guideline x="149" y="532" angle="264.33"/>
  <outline>
    <contour>
      <point x="149" y="532" type="line"/>
      <point x="515" y="532" type="line"/>
      <point x="515" y="111" type="line"/>
      <point x="586" y="111" type="line"/>
      <point x="586" y="-170" type="line"/>
      <point x="460" y="-170" type="line"/>
      <point x="460" y="0" type="line"/>
      <point x="147" y="0" type="line"/>
      <point x="147" y="-170" type="line"/>
      <point x="21" y="-170" type="line"/>
      <point x="21" y="111" type="line"/>
      <point x="51" y="111" type="line"/>
      <point x="85" y="111"/>
      <point x="111" y="156"/>
      <point x="118" y="226" type="curve" smooth="yes"/>
    </contour>
    <contour>
      <point x="266" y="445" type="line"/>
      <point x="244" y="210" type="line" smooth="yes"/>
      <point x="241" y="173"/>
      <point x="229" y="139"/>
      <point x="212" y="111" type="curve"/>
      <point x="389" y="111" type="line"/>
      <point x="389" y="445" type="line"/>
    </contour>
  </outline>
</glyph>
<glyph name="kacyr" format="2">
  <advance width="527"/>
  <unicode hex="043A"/>
  <guideline x="0" y="343" angle="0"/>
  <guideline x="0" y="258" angle="0"/>
  <guideline x="0" y="277" angle="0"/>
  <guideline x="247" y="0" angle="90" name="h1"/>
  <anchor x="247" y="602" name="top"/>
  <outline>
    <contour>
      <point x="55" y="0" type="line"/>
      <point x="182" y="0" type="line"/>
      <point x="182" y="222" type="line"/>
      <point x="244" y="222" type="line"/>
      <point x="365" y="0" type="line"/>
      <point x="518" y="0" type="line"/>
      <point x="343" y="320" type="line"/>
      <point x="493" y="532" type="line"/>
      <point x="342" y="532" type="line"/>
      <point x="211" y="333" type="line"/>
      <point x="182" y="333" type="line"/>
      <point x="182" y="532" type="line"/>
      <point x="55" y="532" type="line"/>
    </contour>
  </outline>
</glyph>
<glyph name="pecyr" format="2">
  <advance width="522"/>
  <unicode hex="043F"/>
  <outline>
    <contour>
      <point x="55" y="0" type="line"/>
      <point x="181" y="0" type="line"/>
      <point x="181" y="421" type="line"/>
      <point x="341" y="421" type="line"/>
      <point x="341" y="0" type="line"/>
      <point x="467" y="0" type="line"/>
      <point x="467" y="532" type="line"/>
      <point x="55" y="532" type="line"/>
    </contour>
  </outline>
</glyph>
<glyph name="tecyr" format="2">
  <advance width="432"/>
  <unicode hex="0442"/>
  <guideline x="228" y="0" angle="90" name="h1"/>
  <anchor x="216" y="602" name="top"/>
  <outline>
    <contour>
      <point x="6" y="532" type="line"/>
      <point x="426" y="532" type="line"/>
      <point x="426" y="421" type="line"/>
      <point x="280" y="421" type="line"/>
      <point x="280" y="0" type="line"/>
      <point x="153" y="0" type="line"/>
      <point x="153" y="421" type="line"/>
      <point x="6" y="421" type="line"/>
    </contour>
  </outline>
</glyph>
<glyph name="checyr" format="2">
  <advance width="532"/>
  <unicode hex="0447"/>
  <outline>
    <contour>
      <point x="350" y="0" type="line"/>
      <point x="477" y="0" type="line"/>
      <point x="477" y="532" type="line"/>
      <point x="350" y="532" type="line"/>
      <point x="350" y="265" type="line"/>
      <point x="330" y="254"/>
      <point x="307" y="246"/>
      <point x="265" y="246" type="curve" smooth="yes"/>
      <point x="209" y="246"/>
      <point x="182" y="288"/>
      <point x="182" y="340" type="curve" smooth="yes"/>
      <point x="182" y="532" type="line"/>
      <point x="55" y="532" type="line"/>
      <point x="55" y="325" type="line" smooth="yes"/>
      <point x="55" y="217"/>
      <point x="112" y="133"/>
      <point x="227" y="133" type="curve" smooth="yes"/>
      <point x="272" y="133"/>
      <point x="318" y="145"/>
      <point x="350" y="161" type="curve"/>
    </contour>
  </outline>
</glyph>
<glyph name="ereversedcyr" format="2">
  <advance width="517"/>
  <unicode hex="044D"/>
  <guideline x="0" y="532" angle="0" name="horizontal"/>
  <guideline x="262" y="0" angle="90" name="h1"/>
  <anchor x="262" y="602" name="top"/>
  <outline>
    <contour>
      <point x="255" y="-6" type="curve" smooth="yes"/>
      <point x="389" y="-6"/>
      <point x="471" y="65"/>
      <point x="471" y="217" type="curve" smooth="yes"/>
      <point x="471" y="316" type="line" smooth="yes"/>
      <point x="471" y="468"/>
      <point x="389" y="539"/>
      <point x="255" y="539" type="curve" smooth="yes"/>
      <point x="123" y="539"/>
      <point x="46" y="467"/>
      <point x="46" y="349" type="curve" smooth="yes"/>
      <point x="46" y="339" type="line"/>
      <point x="167" y="339" type="line"/>
      <point x="167" y="345" type="line" smooth="yes"/>
      <point x="167" y="395"/>
      <point x="199" y="426"/>
      <point x="253" y="426" type="curve" smooth="yes"/>
      <point x="306" y="426"/>
      <point x="337" y="397"/>
      <point x="344" y="341" type="curve"/>
      <point x="344" y="340" type="line"/>
      <point x="232" y="340" type="line"/>
      <point x="232" y="229" type="line"/>
      <point x="345" y="229" type="line"/>
      <point x="345" y="218" type="line" smooth="yes"/>
      <point x="345" y="138"/>
      <point x="311" y="106"/>
      <point x="253" y="106" type="curve" smooth="yes"/>
      <point x="199" y="106"/>
      <point x="167" y="134"/>
      <point x="167" y="184" type="curve" smooth="yes"/>
      <point x="167" y="190" type="line"/>
      <point x="46" y="190" type="line"/>
      <point x="46" y="183" type="line" smooth="yes"/>
      <point x="46" y="65"/>
      <point x="123" y="-6"/>
    </contour>
  </outline>
</glyph>
<glyph name="yacyr" format="2">
  <advance width="555"/>
  <unicode hex="044F"/>
  <guideline x="311" y="0" angle="90" name="h1"/>
  <anchor x="311" y="602" name="top"/>
  <outline>
    <contour>
      <point x="56" y="0" type="line"/>
      <point x="182" y="0" type="line"/>
      <point x="257" y="159" type="line"/>
      <point x="374" y="159" type="line"/>
      <point x="374" y="0" type="line"/>
      <point x="500" y="0" type="line"/>
      <point x="500" y="532" type="line"/>
      <point x="256" y="532" type="line" smooth="yes"/>
      <point x="156" y="532"/>
      <point x="80" y="455"/>
      <point x="80" y="355" type="curve" smooth="yes"/>
      <point x="80" y="288"/>
      <point x="107" y="237"/>
      <point x="152" y="202" type="curve"/>
    </contour>
    <contour>
      <point x="206" y="346" type="curve" smooth="yes"/>
      <point x="206" y="399"/>
      <point x="240" y="421"/>
      <point x="290" y="421" type="curve" smooth="yes"/>
      <point x="374" y="421" type="line"/>
      <point x="374" y="270" type="line"/>
      <point x="290" y="270" type="line" smooth="yes"/>
      <point x="239" y="270"/>
      <point x="206" y="294"/>
    </contour>
  </outline>
</glyph>
<glyph name="djecyr" format="2">
  <advance width="532"/>
  <unicode hex="0452"/>
  <guideline x="118" y="0" angle="90" name="vertical"/>
  <guideline x="0" y="707" angle="0" name="horizontal"/>
  <guideline x="313" y="0" angle="90" name="h1"/>
  <anchor x="313" y="602" name="top"/>
  <outline>
    <contour>
      <point x="257" y="-160" type="line"/>
      <point x="317" y="-160" type="line" smooth="yes"/>
      <point x="419" y="-160"/>
      <point x="477" y="-101"/>
      <point x="477" y="0" type="curve" smooth="yes"/>
      <point x="477" y="347" type="line" smooth="yes"/>
      <point x="477" y="457"/>
      <point x="422" y="539"/>
      <point x="305" y="539" type="curve" smooth="yes"/>
      <point x="259" y="539"/>
      <point x="213" y="520"/>
      <point x="182" y="485" type="curve"/>
      <point x="182" y="585" type="line"/>
      <point x="292" y="585" type="line"/>
      <point x="292" y="653" type="line"/>
      <point x="182" y="653" type="line"/>
      <point x="182" y="707" type="line"/>
      <point x="55" y="707" type="line"/>
      <point x="55" y="653" type="line"/>
      <point x="10" y="653" type="line"/>
      <point x="10" y="585" type="line"/>
      <point x="55" y="585" type="line"/>
      <point x="55" y="0" type="line"/>
      <point x="182" y="0" type="line"/>
      <point x="182" y="332" type="line" smooth="yes"/>
      <point x="182" y="384"/>
      <point x="212" y="426"/>
      <point x="267" y="426" type="curve" smooth="yes"/>
      <point x="325" y="426"/>
      <point x="350" y="386"/>
      <point x="350" y="332" type="curve" smooth="yes"/>
      <point x="350" y="10" type="line" smooth="yes"/>
      <point x="350" y="-36"/>
      <point x="336" y="-50"/>
      <point x="289" y="-50" type="curve" smooth="yes"/>
      <point x="257" y="-50" type="line"/>
    </contour>
  </outline>
</glyph>
<glyph name="njecyr" format="2">
  <advance width="781"/>
  <unicode hex="045A"/>
  <outline>
    <contour>
      <point x="55" y="0" type="line"/>
      <point x="181" y="0" type="line"/>
      <point x="181" y="229" type="line"/>
      <point x="349" y="229" type="line"/>
      <point x="349" y="0" type="line"/>
      <point x="570" y="0" type="line" smooth="yes"/>
      <point x="673" y="0"/>
      <point x="735" y="63"/>
      <point x="735" y="166" type="curve" smooth="yes"/>
      <point x="735" y="270"/>
      <point x="682" y="340"/>
      <point x="565" y="340" type="curve" smooth="yes"/>
      <point x="475" y="340" type="line"/>
      <point x="475" y="532" type="line"/>
      <point x="349" y="532" type="line"/>
      <point x="349" y="340" type="line"/>
      <point x="181" y="340" type="line"/>
      <point x="181" y="532" type="line"/>
      <point x="55" y="532" type="line"/>
    </contour>
    <contour>
      <point x="475" y="111" type="line"/>
      <point x="475" y="229" type="line"/>
      <point x="560" y="229" type="line" smooth="yes"/>
      <point x="588" y="229"/>
      <point x="609" y="205"/>
      <point x="609" y="172" type="curve" smooth="yes"/>
      <point x="609" y="138"/>
      <point x="588" y="111"/>
      <point x="560" y="111" type="curve" smooth="yes"/>
    </contour>
  </outline>
</glyph>
<glyph name="Gheupturncyrillic" format="2">
  <advance width="539"/>
  <unicode hex="0490"/>
  <outline>
    <component base="Gecyr"/>
    <contour>
      <point x="399" y="707" type="line"/>
      <point x="509" y="707" type="line"/>
      <point x="509" y="867" type="line"/>
      <point x="399" y="867" type="line"/>
    </contour>
  </outline>
</glyph>
<glyph name="gheupturncyrillic" format="2">
  <advance width="366"/>
  <unicode hex="0491"/>
  <outline>
    <component base="gecyr"/>
    <contour>
      <point x="258" y="532" type="line"/>
      <point x="348" y="532" type="line"/>
      <point x="348" y="662" type="line"/>
      <point x="258" y="662" type="line"/>
    </contour>
  </outline>
</glyph>
<glyph name="ustraightcyrillic" format="2">
  <advance width="474"/>
  <unicode hex="04AF"/>
  <outline>
    <contour>
      <point x="304" y="117" type="line"/>
      <point x="304" y="-158" type="line"/>
      <point x="170" y="-158" type="line"/>
      <point x="170" y="116" type="line"/>
      <point x="4" y="533" type="line"/>
      <point x="151" y="533" type="line"/>
      <point x="236" y="286" type="line"/>
      <point x="322" y="533" type="line"/>
      <point x="470" y="533" type="line"/>
    </contour>
  </outline>
</glyph>
<glyph name="Germandbls" format="2">
  <advance width="788"/>
  <unicode hex="1E9E"/>
  <outline>
    <contour>
      <point x="313" y="-3" type="line"/>
      <point x="431" y="-3" type="line" smooth="yes"/>
      <point x="694" y="-3"/>
      <point x="728" y="81"/>
      <point x="728" y="211" type="curve" smooth="yes"/>
      <point x="728" y="324"/>
      <point x="660" y="424"/>
      <point x="517" y="423" type="curve"/>
      <point x="671" y="588" type="line"/>
      <point x="604" y="707"/>
      <point x="444" y="713"/>
      <point x="349" y="714" type="curve" smooth="yes"/>
      <point x="143" y="716"/>
      <point x="77" y="627"/>
      <point x="77" y="477" type="curve" smooth="yes"/>
      <point x="77" y="1" type="line"/>
      <point x="209" y="1" type="line"/>
      <point x="209" y="477" type="line" smooth="yes"/>
      <point x="209" y="546"/>
      <point x="222" y="590"/>
      <point x="349" y="590" type="curve" smooth="yes"/>
      <point x="389" y="590"/>
      <point x="437" y="593"/>
      <point x="486" y="568" type="curve"/>
      <point x="342" y="422" type="line"/>
      <point x="342" y="299" type="line"/>
      <point x="451" y="299" type="line" smooth="yes"/>
      <point x="560" y="299"/>
      <point x="596" y="266"/>
      <point x="596" y="212" type="curve" smooth="yes"/>
      <point x="596" y="136"/>
      <point x="568" y="126"/>
      <point x="455" y="126" type="curve" smooth="yes"/>
      <point x="313" y="126" type="line"/>
    </contour>
  </outline>
</glyph>
<glyph name="quoteleft" format="2">
  <advance width="197"/>
  <unicode hex="2018"/>
  <outline>
    <contour>
      <point x="39" y="443" type="line"/>
      <point x="159" y="443" type="line"/>
      <point x="159" y="750" type="line"/>
      <point x="39" y="648" type="line"/>
    </contour>
  </outline>
</glyph>
<glyph name="bullet" format="2">
  <advance width="463"/>
  <unicode hex="2022"/>
  <outline>
    <contour>
      <point x="125" y="208" type="curve" smooth="yes"/>
      <point x="97" y="236"/>
      <point x="83" y="271"/>
      <point x="83" y="315" type="curve" smooth="yes"/>
      <point x="83" y="359"/>
      <point x="97" y="395"/>
      <point x="125" y="423" type="curve" smooth="yes"/>
      <point x="153" y="451"/>
      <point x="188" y="465"/>
      <point x="232" y="465" type="curve" smooth="yes"/>
      <point x="275" y="465"/>
      <point x="311" y="451"/>
      <point x="339" y="423" type="curve" smooth="yes"/>
      <point x="367" y="395"/>
      <point x="381" y="359"/>
      <point x="381" y="315" type="curve" smooth="yes"/>
      <point x="381" y="271"/>
      <point x="367" y="236"/>
      <point x="339" y="208" type="curve" smooth="yes"/>
      <point x="311" y="180"/>
      <point x="275" y="166"/>
      <point x="232" y="166" type="curve" smooth="yes"/>
      <point x="188" y="166"/>
      <point x="153" y="180"/>
    </contour>
  </outline>
</glyph>
<glyph name="guilsinglright" format="2">
  <advance width="315"/>
  <unicode hex="203A"/>
  <outline>
    <contour>
      <point x="55" y="38" type="line"/>
      <point x="288" y="270" type="line"/>
      <point x="55" y="503" type="line"/>
      <point x="55" y="369" type="line"/>
      <point x="154" y="270" type="line"/>
      <point x="55" y="172" type="line"/>
    </contour>
  </outline>
</glyph>
<glyph name="trademark" format="2">
  <advance width="829"/>
  <unicode hex="2122"/>
  <outline>
    <contour>
      <point x="139" y="303" type="line"/>
      <point x="232" y="303" type="line"/>
      <point x="232" y="624" type="line"/>
      <point x="341" y="624" type="line"/>
      <point x="341" y="707" type="line"/>
      <point x="31" y="707" type="line"/>
      <point x="31" y="624" type="line"/>
      <point x="139" y="624" type="line"/>
    </contour>
    <contour>
      <point x="398" y="303" type="line"/>
      <point x="485" y="303" type="line"/>
      <point x="485" y="514" type="line"/>
      <point x="487" y="514" type="line"/>
      <point x="553" y="361" type="line"/>
      <point x="615" y="361" type="line"/>
      <point x="680" y="514" type="line"/>
      <point x="683" y="514" type="line"/>
      <point x="683" y="303" type="line"/>
      <point x="769" y="303" type="line"/>
      <point x="769" y="707" type="line"/>
      <point x="684" y="707" type="line"/>
      <point x="587" y="474" type="line"/>
      <point x="584" y="474" type="line"/>
      <point x="484" y="707" type="line"/>
      <point x="398" y="707" type="line"/>
    </contour>
  </outline>
</glyph>
<glyph name="minus" format="2">
  <advance width="541"/>
  <unicode hex="2212"/>
  <outline>
    <contour>
      <point x="60" y="224" type="line"/>
      <point x="481" y="224" type="line"/>
      <point x="481" y="341" type="line"/>
      <point x="60" y="341" type="line"/>
    </contour>
  </outline>
</glyph>
<glyph name="fi" format="2">
  <advance width="588"/>
  <unicode hex="FB01"/>
  <outline>
    <component base="f"/>
    <component base="dotlessi" xOffset="342"/>
    <contour>
      <point x="402" y="587" type="line"/>
      <point x="528" y="587" type="line"/>
      <point x="528" y="689" type="line"/>
      <point x="402" y="689" type="line"/>
    </contour>
  </outline>
</glyph>
<glyph name="a.ss02" format="2">
  <advance width="513"/>
  <outline>
    <contour>
      <point x="240" y="-5" type="curve" smooth="yes"/>
      <point x="274" y="-5"/>
      <point x="306" y="1"/>
      <point x="333" y="17" type="curve"/>
      <point x="333" y="0" type="line"/>
      <point x="456" y="0" type="line"/>
      <point x="457" y="529" type="line"/>
      <point x="332" y="529" type="line"/>
      <point x="332" y="511" type="line"/>
      <point x="303" y="527"/>
      <point x="271" y="534"/>
      <point x="238" y="534" type="curve" smooth="yes"/>
      <point x="104" y="534"/>
      <point x="50" y="438"/>
      <point x="50" y="313" type="curve" smooth="yes"/>
      <point x="50" y="217" type="line" smooth="yes"/>
      <point x="50" y="93"/>
      <point x="108" y="-5"/>
    </contour>
    <contour>
      <point x="332" y="221" type="line" smooth="yes"/>
      <point x="332" y="166"/>
      <point x="314" y="108"/>
      <point x="250" y="108" type="curve" smooth="yes"/>
      <point x="192" y="108"/>
      <point x="175" y="167"/>
      <point x="175" y="216" type="curve" smooth="yes"/>
      <point x="175" y="278" type="line" smooth="yes"/>
      <point x="175" y="332"/>
      <point x="177" y="421"/>
      <point x="249" y="421" type="curve" smooth="yes"/>
      <point x="311" y="421"/>
      <point x="332" y="357"/>
      <point x="332" y="304" type="curve" smooth="yes"/>
    </contour>
  </outline>
</glyph>
<glyph name="eight.dnom" format="2">
  <advance width="343"/>
  <outline>
    <contour>
      <point x="29" y="312" type="line" smooth="yes"/>
      <point x="29" y="379"/>
      <point x="83" y="438"/>
      <point x="172" y="438" type="curve" smooth="yes"/>
      <point x="256" y="438"/>
      <point x="316" y="386"/>
      <point x="316" y="312" type="curve" smooth="yes"/>
      <point x="316" y="301" type="line" smooth="yes"/>
      <point x="316" y="275"/>
      <point x="307" y="245"/>
      <point x="277" y="221" type="curve"/>
      <point x="285" y="215"/>
      <point x="323" y="185"/>
      <point x="323" y="130" type="curve" smooth="yes"/>
      <point x="323" y="116" type="line" smooth="yes"/>
      <point x="323" y="31"/>
      <point x="257" y="-18"/>
      <point x="172" y="-18" type="curve" smooth="yes"/>
      <point x="86" y="-18"/>
      <point x="20" y="34"/>
      <point x="20" y="116" type="curve" smooth="yes"/>
      <point x="20" y="129" type="line" smooth="yes"/>
      <point x="20" y="145"/>
      <point x="24" y="189"/>
      <point x="66" y="220" type="curve"/>
      <point x="48" y="234"/>
      <point x="29" y="259"/>
      <point x="29" y="301" type="curve" smooth="yes"/>
    </contour>
    <contour>
      <point x="172" y="263" type="curve" smooth="yes"/>
      <point x="179" y="263"/>
      <point x="209" y="265"/>
      <point x="209" y="301" type="curve" smooth="yes"/>
      <point x="209" y="312" type="line" smooth="yes"/>
      <point x="209" y="326"/>
      <point x="201" y="347"/>
      <point x="172" y="347" type="curve" smooth="yes"/>
      <point x="142" y="347"/>
      <point x="136" y="324"/>
      <point x="136" y="312" type="curve" smooth="yes"/>
      <point x="136" y="301" type="line" smooth="yes"/>
      <point x="136" y="294"/>
      <point x="136" y="263"/>
    </contour>
    <contour>
      <point x="172" y="72" type="curve" smooth="yes"/>
      <point x="182" y="72"/>
      <point x="216" y="75"/>
      <point x="216" y="117" type="curve" smooth="yes"/>
      <point x="216" y="131" type="line" smooth="yes"/>
      <point x="216" y="142"/>
      <point x="213" y="175"/>
      <point x="172" y="175" type="curve" smooth="yes"/>
      <point x="166" y="175"/>
      <point x="128" y="173"/>
      <point x="128" y="131" type="curve" smooth="yes"/>
      <point x="128" y="117" type="line" smooth="yes"/>
      <point x="128" y="87"/>
      <point x="148" y="72"/>
    </contour>
  </outline>
</glyph>
<glyph name="five.dnom" format="2">
  <advance width="325"/>
  <outline>
    <contour>
      <point x="124" y="102" type="line" smooth="yes"/>
      <point x="124" y="93"/>
      <point x="127" y="72"/>
      <point x="161" y="72" type="curve" smooth="yes"/>
      <point x="173" y="72"/>
      <point x="198" y="72"/>
      <point x="198" y="119" type="curve" smooth="yes"/>
      <point x="198" y="151" type="line" smooth="yes"/>
      <point x="198" y="193"/>
      <point x="179" y="198"/>
      <point x="160" y="198" type="curve" smooth="yes"/>
      <point x="135" y="198"/>
      <point x="128" y="184"/>
      <point x="121" y="169" type="curve"/>
      <point x="27" y="169" type="line"/>
      <point x="27" y="431" type="line"/>
      <point x="296" y="431" type="line"/>
      <point x="296" y="340" type="line"/>
      <point x="125" y="340" type="line"/>
      <point x="125" y="277" type="line"/>
      <point x="141" y="284"/>
      <point x="159" y="287"/>
      <point x="178" y="287" type="curve" smooth="yes"/>
      <point x="220" y="287"/>
      <point x="305" y="273"/>
      <point x="305" y="155" type="curve" smooth="yes"/>
      <point x="305" y="116" type="line" smooth="yes"/>
      <point x="305" y="84"/>
      <point x="295" y="-18"/>
      <point x="161" y="-18" type="curve" smooth="yes"/>
      <point x="135" y="-18"/>
      <point x="20" y="-11"/>
      <point x="20" y="97" type="curve" smooth="yes"/>
      <point x="20" y="117" type="line"/>
      <point x="124" y="117" type="line"/>
    </contour>
  </outline>
</glyph>
<glyph name="five.tosf" format="2">
  <advance width="524"/>
  <outline>
    <contour>
      <point x="263" y="-171" type="curve" smooth="yes"/>
      <point x="393" y="-171"/>
      <point x="470" y="-95"/>
      <point x="470" y="35" type="curve" smooth="yes"/>
      <point x="470" y="101" type="line" smooth="yes"/>
      <point x="470" y="233"/>
      <point x="408" y="305"/>
      <point x="290" y="305" type="curve" smooth="yes"/>
      <point x="250" y="305"/>
      <point x="216" y="294"/>
      <point x="189" y="272" type="curve"/>
      <point x="189" y="432" type="line"/>
      <point x="455" y="432" type="line"/>
      <point x="455" y="547" type="line"/>
      <point x="73" y="547" type="line"/>
      <point x="73" y="144" type="line"/>
      <point x="189" y="144" type="line"/>
      <point x="203" y="176"/>
      <point x="228" y="192"/>
      <point x="262" y="192" type="curve" smooth="yes"/>
      <point x="316" y="192"/>
      <point x="340" y="160"/>
      <point x="340" y="94" type="curve" smooth="yes"/>
      <point x="340" y="41" type="line" smooth="yes"/>
      <point x="340" y="-23"/>
      <point x="315" y="-58"/>
      <point x="263" y="-58" type="curve" smooth="yes"/>
      <point x="215" y="-58"/>
      <point x="186" y="-32"/>
      <point x="186" y="12" type="curve" smooth="yes"/>
      <point x="186" y="18" type="line"/>
      <point x="63" y="18" type="line"/>
      <point x="63" y="3" type="line" smooth="yes"/>
      <point x="63" y="-107"/>
      <point x="141" y="-171"/>
    </contour>
  </outline>
</glyph>
<glyph name="four.dnom" format="2">
  <advance width="341"/>
  <outline>
    <contour>
      <point x="184" y="-11" type="line"/>
      <point x="294" y="-11" type="line"/>
      <point x="294" y="56" type="line"/>
      <point x="331" y="56" type="line"/>
      <point x="331" y="148" type="line"/>
      <point x="294" y="148" type="line"/>
      <point x="294" y="247" type="line"/>
      <point x="184" y="247" type="line"/>
      <point x="184" y="148" type="line"/>
      <point x="127" y="148" type="line"/>
      <point x="256" y="431" type="line"/>
      <point x="144" y="431" type="line"/>
      <point x="11" y="139" type="line"/>
      <point x="11" y="56" type="line"/>
      <point x="184" y="56" type="line"/>
    </contour>
  </outline>
</glyph>
<glyph name="four.tosf" format="2">
  <advance width="524"/>
  <outline>
    <contour>
      <point x="318" y="-160" type="line"/>
      <point x="452" y="-160" type="line"/>
      <point x="452" y="0" type="line"/>
      <point x="510" y="0" type="line"/>
      <point x="510" y="117" type="line"/>
      <point x="452" y="117" type="line"/>
      <point x="452" y="266" type="line"/>
      <point x="318" y="266" type="line"/>
      <point x="318" y="117" type="line"/>
      <point x="182" y="117" type="line"/>
      <point x="378" y="543" type="line"/>
      <point x="244" y="543" type="line"/>
      <point x="48" y="117" type="line"/>
      <point x="48" y="0" type="line"/>
      <point x="318" y="0" type="line"/>
    </contour>
  </outline>
</glyph>
<glyph name="gecyr.loclBGR" format="2">
  <advance width="485"/>
  <outline>
    <contour>
      <point x="246" y="-6" type="curve" smooth="yes"/>
      <point x="120" y="-6"/>
      <point x="32" y="55"/>
      <point x="32" y="165" type="curve" smooth="yes"/>
      <point x="32" y="209"/>
      <point x="45" y="244"/>
      <point x="72" y="269" type="curve" smooth="yes"/>
      <point x="99" y="294"/>
      <point x="139" y="310"/>
      <point x="192" y="318" type="curve" smooth="yes"/>
      <point x="255" y="328" type="line" smooth="yes"/>
      <point x="303" y="334"/>
      <point x="322" y="351"/>
      <point x="322" y="383" type="curve" smooth="yes"/>
      <point x="322" y="417"/>
      <point x="294" y="439"/>
      <point x="242" y="439" type="curve" smooth="yes"/>
      <point x="190" y="439"/>
      <point x="159" y="418"/>
      <point x="159" y="382" type="curve" smooth="yes"/>
      <point x="159" y="378" type="line"/>
      <point x="42" y="378" type="line"/>
      <point x="42" y="384" type="line" smooth="yes"/>
      <point x="42" y="471"/>
      <point x="122" y="539"/>
      <point x="242" y="539" type="curve" smooth="yes"/>
      <point x="358" y="539"/>
      <point x="441" y="476"/>
      <point x="441" y="374" type="curve" smooth="yes"/>
      <point x="441" y="330"/>
      <point x="428" y="295"/>
      <point x="403" y="271" type="curve" smooth="yes"/>
      <point x="378" y="247"/>
      <point x="338" y="231"/>
      <point x="285" y="222" type="curve" smooth="yes"/>
      <point x="229" y="213" type="line" smooth="yes"/>
      <point x="175" y="205"/>
      <point x="153" y="188"/>
      <point x="153" y="156" type="curve" smooth="yes"/>
      <point x="153" y="116"/>
      <point x="186" y="96"/>
      <point x="242" y="96" type="curve" smooth="yes"/>
      <point x="294" y="96"/>
      <point x="329" y="118"/>
      <point x="329" y="158" type="curve" smooth="yes"/>
      <point x="329" y="162" type="line"/>
      <point x="448" y="162" type="line"/>
      <point x="448" y="158" type="line" smooth="yes"/>
      <point x="448" y="58"/>
      <point x="368" y="-6"/>
    </contour>
  </outline>
</glyph>
<glyph name="hardcyr.loclBGR" format="2">
  <advance width="561"/>
  <outline>
    <contour>
      <point x="327" y="105" type="curve" smooth="yes"/>
      <point x="377" y="105"/>
      <point x="419" y="153"/>
      <point x="419" y="204" type="curve" smooth="yes"/>
      <point x="419" y="260"/>
      <point x="389" y="295"/>
      <point x="341" y="295" type="curve" smooth="yes"/>
      <point x="303" y="295"/>
      <point x="271" y="292"/>
      <point x="241" y="284" type="curve"/>
      <point x="241" y="205" type="line"/>
      <point x="251" y="144"/>
      <point x="281" y="105"/>
    </contour>
    <contour>
      <point x="115" y="205" type="curve"/>
      <point x="115" y="421" type="line"/>
      <point x="0" y="421" type="line"/>
      <point x="0" y="532" type="line"/>
      <point x="241" y="532" type="line"/>
      <point x="241" y="396" type="line"/>
      <point x="270" y="403"/>
      <point x="301" y="406"/>
      <point x="338" y="406" type="curve" smooth="yes"/>
      <point x="462" y="406"/>
      <point x="545" y="321"/>
      <point x="545" y="195" type="curve" smooth="yes"/>
      <point x="545" y="74"/>
      <point x="464" y="-6"/>
      <point x="329" y="-6" type="curve" smooth="yes"/>
      <point x="201" y="-6"/>
      <point x="115" y="77"/>
    </contour>
  </outline>
</glyph>
<glyph name="kacyr.loclBGR" format="2">
  <advance width="532"/>
  <outline>
    <contour>
      <point x="55" y="0" type="line"/>
      <point x="182" y="0" type="line"/>
      <point x="182" y="222" type="line"/>
      <point x="244" y="222" type="line"/>
      <point x="365" y="0" type="line"/>
      <point x="518" y="0" type="line"/>
      <point x="343" y="320" type="line"/>
      <point x="493" y="532" type="line"/>
      <point x="342" y="532" type="line"/>
      <point x="211" y="333" type="line"/>
      <point x="182" y="333" type="line"/>
      <point x="182" y="707" type="line"/>
      <point x="55" y="707" type="line"/>
    </contour>
  </outline>
</glyph>
<glyph name="nine.dnom" format="2">
  <advance width="337"/>
  <outline>
    <contour>
      <point x="65" y="-11" type="line"/>
      <point x="183" y="-11" type="line"/>
      <point x="290" y="181" type="line" smooth="yes"/>
      <point x="316" y="228"/>
      <point x="321" y="254"/>
      <point x="321" y="283" type="curve" smooth="yes"/>
      <point x="321" y="302" type="line" smooth="yes"/>
      <point x="321" y="428"/>
      <point x="204" y="438"/>
      <point x="169" y="438" type="curve" smooth="yes"/>
      <point x="77" y="438"/>
      <point x="17" y="385"/>
      <point x="17" y="300" type="curve" smooth="yes"/>
      <point x="17" y="280" type="line" smooth="yes"/>
      <point x="17" y="156"/>
      <point x="131" y="152"/>
      <point x="146" y="152" type="curve" smooth="yes"/>
      <point x="149" y="152"/>
      <point x="153" y="153"/>
      <point x="156" y="153" type="curve"/>
    </contour>
    <contour>
      <point x="127" y="285" type="curve" smooth="yes"/>
      <point x="127" y="304" type="line" smooth="yes"/>
      <point x="127" y="342"/>
      <point x="153" y="347"/>
      <point x="169" y="347" type="curve" smooth="yes"/>
      <point x="202" y="347"/>
      <point x="210" y="325"/>
      <point x="210" y="304" type="curve" smooth="yes"/>
      <point x="210" y="284" type="line" smooth="yes"/>
      <point x="210" y="249"/>
      <point x="188" y="241"/>
      <point x="169" y="241" type="curve" smooth="yes"/>
      <point x="132" y="241"/>
      <point x="127" y="269"/>
    </contour>
  </outline>
</glyph>
<glyph name="nine.tosf" format="2">
  <advance width="524"/>
  <outline>
    <contour>
      <point x="136" y="-160" type="line"/>
      <point x="277" y="-160" type="line"/>
      <point x="440" y="147" type="line" smooth="yes"/>
      <point x="455" y="176"/>
      <point x="467" y="204"/>
      <point x="475" y="229" type="curve" smooth="yes"/>
      <point x="483" y="254"/>
      <point x="486" y="279"/>
      <point x="486" y="305" type="curve" smooth="yes"/>
      <point x="486" y="336" type="line" smooth="yes"/>
      <point x="486" y="401"/>
      <point x="467" y="450"/>
      <point x="428" y="486" type="curve" smooth="yes"/>
      <point x="389" y="522"/>
      <point x="336" y="539"/>
      <point x="268" y="539" type="curve" smooth="yes"/>
      <point x="202" y="539"/>
      <point x="150" y="522"/>
      <point x="110" y="485" type="curve" smooth="yes"/>
      <point x="70" y="448"/>
      <point x="50" y="398"/>
      <point x="50" y="333" type="curve" smooth="yes"/>
      <point x="50" y="301" type="line" smooth="yes"/>
      <point x="50" y="241"/>
      <point x="67" y="195"/>
      <point x="100" y="161" type="curve" smooth="yes"/>
      <point x="133" y="127"/>
      <point x="177" y="110"/>
      <point x="232" y="110" type="curve" smooth="yes"/>
      <point x="251" y="110"/>
      <point x="269" y="113"/>
      <point x="284" y="120" type="curve"/>
    </contour>
    <contour>
      <point x="207" y="241" type="curve" smooth="yes"/>
      <point x="192" y="257"/>
      <point x="184" y="279"/>
      <point x="184" y="307" type="curve" smooth="yes"/>
      <point x="184" y="338" type="line" smooth="yes"/>
      <point x="184" y="367"/>
      <point x="192" y="390"/>
      <point x="207" y="405" type="curve" smooth="yes"/>
      <point x="222" y="421"/>
      <point x="242" y="429"/>
      <point x="268" y="429" type="curve" smooth="yes"/>
      <point x="294" y="429"/>
      <point x="314" y="421"/>
      <point x="329" y="405" type="curve" smooth="yes"/>
      <point x="344" y="390"/>
      <point x="351" y="368"/>
      <point x="351" y="339" type="curve" smooth="yes"/>
      <point x="351" y="306" type="line" smooth="yes"/>
      <point x="351" y="278"/>
      <point x="344" y="257"/>
      <point x="329" y="241" type="curve" smooth="yes"/>
      <point x="314" y="226"/>
      <point x="294" y="218"/>
      <point x="268" y="218" type="curve" smooth="yes"/>
      <point x="242" y="218"/>
      <point x="222" y="226"/>
    </contour>
  </outline>
</glyph>
<glyph name="one.dnom" format="2">
  <advance width="227"/>
  <outline>
    <contour>
      <point x="88" y="-11" type="line"/>
      <point x="198" y="-11" type="line"/>
      <point x="198" y="431" type="line"/>
      <point x="96" y="431" type="line"/>
      <point x="12" y="372" type="line"/>
      <point x="12" y="258" type="line"/>
      <point x="88" y="309" type="line"/>
    </contour>
  </outline>
</glyph>
<glyph name="one.tlf" format="2">
  <advance width="524"/>
  <outline>
    <contour>
      <point x="254" y="557" type="line"/>
      <point x="74" y="471" type="line"/>
      <point x="74" y="616" type="line"/>
      <point x="254" y="706" type="line"/>
      <point x="388" y="706" type="line"/>
      <point x="388" y="-1" type="line"/>
      <point x="254" y="-1" type="line"/>
    </contour>
  </outline>
</glyph>
<glyph name="six.dnom" format="2">
  <advance width="337"/>
  <outline>
    <contour>
      <point x="169" y="-18" type="curve" smooth="yes"/>
      <point x="261" y="-18"/>
      <point x="321" y="35"/>
      <point x="321" y="120" type="curve" smooth="yes"/>
      <point x="321" y="139" type="line" smooth="yes"/>
      <point x="321" y="228"/>
      <point x="260" y="267"/>
      <point x="192" y="267" type="curve" smooth="yes"/>
      <point x="189" y="267"/>
      <point x="185" y="267"/>
      <point x="182" y="267" type="curve"/>
      <point x="273" y="431" type="line"/>
      <point x="155" y="431" type="line"/>
      <point x="48" y="238" type="line" smooth="yes"/>
      <point x="17" y="183"/>
      <point x="17" y="148"/>
      <point x="17" y="136" type="curve" smooth="yes"/>
      <point x="17" y="118" type="line" smooth="yes"/>
      <point x="17" y="-8"/>
      <point x="134" y="-18"/>
    </contour>
    <contour>
      <point x="128" y="116" type="curve" smooth="yes"/>
      <point x="128" y="135" type="line" smooth="yes"/>
      <point x="128" y="170"/>
      <point x="150" y="178"/>
      <point x="169" y="178" type="curve" smooth="yes"/>
      <point x="208" y="178"/>
      <point x="211" y="148"/>
      <point x="211" y="135" type="curve" smooth="yes"/>
      <point x="211" y="116" type="line" smooth="yes"/>
      <point x="211" y="78"/>
      <point x="186" y="72"/>
      <point x="169" y="72" type="curve" smooth="yes"/>
      <point x="133" y="72"/>
      <point x="128" y="100"/>
    </contour>
  </outline>
</glyph>
<glyph name="softcyr.loclBGR" format="2">
  <advance width="540"/>
  <outline>
    <contour>
      <point x="267" y="105" type="curve" smooth="yes"/>
      <point x="317" y="105"/>
      <point x="359" y="153"/>
      <point x="359" y="204" type="curve" smooth="yes"/>
      <point x="359" y="260"/>
      <point x="329" y="295"/>
      <point x="281" y="295" type="curve" smooth="yes"/>
      <point x="243" y="295"/>
      <point x="211" y="292"/>
      <point x="181" y="284" type="curve"/>
      <point x="181" y="205" type="line"/>
      <point x="191" y="144"/>
      <point x="221" y="105"/>
    </contour>
    <contour>
      <point x="55" y="205" type="curve"/>
      <point x="55" y="532" type="line"/>
      <point x="181" y="532" type="line"/>
      <point x="181" y="396" type="line"/>
      <point x="210" y="403"/>
      <point x="241" y="406"/>
      <point x="278" y="406" type="curve" smooth="yes"/>
      <point x="402" y="406"/>
      <point x="485" y="321"/>
      <point x="485" y="195" type="curve" smooth="yes"/>
      <point x="485" y="74"/>
      <point x="404" y="-6"/>
      <point x="269" y="-6" type="curve" smooth="yes"/>
      <point x="141" y="-6"/>
      <point x="55" y="77"/>
    </contour>
  </outline>
</glyph>
<glyph name="three.dnom" format="2">
  <advance width="330"/>
  <outline>
    <contour>
      <point x="163" y="-18" type="curve" smooth="yes"/>
      <point x="249" y="-18"/>
      <point x="310" y="34"/>
      <point x="310" y="115" type="curve" smooth="yes"/>
      <point x="310" y="127" type="line" smooth="yes"/>
      <point x="310" y="184"/>
      <point x="281" y="211"/>
      <point x="261" y="224" type="curve"/>
      <point x="299" y="252"/>
      <point x="303" y="293"/>
      <point x="303" y="307" type="curve" smooth="yes"/>
      <point x="303" y="315" type="line" smooth="yes"/>
      <point x="303" y="378"/>
      <point x="260" y="438"/>
      <point x="163" y="438" type="curve" smooth="yes"/>
      <point x="78" y="438"/>
      <point x="20" y="394"/>
      <point x="20" y="314" type="curve" smooth="yes"/>
      <point x="20" y="307"/>
      <point x="20" y="300"/>
      <point x="20" y="293" type="curve"/>
      <point x="124" y="293" type="line"/>
      <point x="124" y="300"/>
      <point x="124" y="307"/>
      <point x="124" y="314" type="curve" smooth="yes"/>
      <point x="124" y="342"/>
      <point x="145" y="347"/>
      <point x="159" y="347" type="curve" smooth="yes"/>
      <point x="189" y="347"/>
      <point x="195" y="325"/>
      <point x="195" y="309" type="curve" smooth="yes"/>
      <point x="195" y="301" type="line" smooth="yes"/>
      <point x="195" y="269"/>
      <point x="174" y="261"/>
      <point x="155" y="261" type="curve" smooth="yes"/>
      <point x="120" y="261" type="line"/>
      <point x="120" y="171" type="line"/>
      <point x="156" y="171" type="line" smooth="yes"/>
      <point x="179" y="171"/>
      <point x="202" y="164"/>
      <point x="202" y="126" type="curve" smooth="yes"/>
      <point x="202" y="115" type="line" smooth="yes"/>
      <point x="202" y="77"/>
      <point x="175" y="72"/>
      <point x="162" y="72" type="curve" smooth="yes"/>
      <point x="132" y="72"/>
      <point x="122" y="84"/>
      <point x="122" y="105" type="curve" smooth="yes"/>
      <point x="122" y="126" type="line"/>
      <point x="17" y="126" type="line"/>
      <point x="17" y="102" type="line" smooth="yes"/>
      <point x="17" y="-6"/>
      <point x="121" y="-18"/>
    </contour>
  </outline>
</glyph>
<glyph name="three.tosf" format="2">
  <advance width="524"/>
  <outline>
    <contour>
      <point x="265" y="-167" type="curve" smooth="yes"/>
      <point x="384" y="-167"/>
      <point x="475" y="-90"/>
      <point x="475" y="31" type="curve" smooth="yes"/>
      <point x="475" y="50" type="line" smooth="yes"/>
      <point x="475" y="89"/>
      <point x="467" y="121"/>
      <point x="451" y="148" type="curve" smooth="yes"/>
      <point x="435" y="175"/>
      <point x="412" y="195"/>
      <point x="381" y="208" type="curve"/>
      <point x="408" y="222"/>
      <point x="428" y="241"/>
      <point x="442" y="264" type="curve" smooth="yes"/>
      <point x="456" y="288"/>
      <point x="464" y="314"/>
      <point x="464" y="344" type="curve" smooth="yes"/>
      <point x="464" y="358" type="line" smooth="yes"/>
      <point x="464" y="470"/>
      <point x="388" y="540"/>
      <point x="264" y="540" type="curve" smooth="yes"/>
      <point x="138" y="540"/>
      <point x="61" y="472"/>
      <point x="61" y="356" type="curve" smooth="yes"/>
      <point x="61" y="340" type="line"/>
      <point x="184" y="340" type="line"/>
      <point x="184" y="356" type="line" smooth="yes"/>
      <point x="184" y="401"/>
      <point x="210" y="429"/>
      <point x="259" y="429" type="curve" smooth="yes"/>
      <point x="306" y="429"/>
      <point x="334" y="398"/>
      <point x="334" y="349" type="curve" smooth="yes"/>
      <point x="334" y="334" type="line" smooth="yes"/>
      <point x="334" y="282"/>
      <point x="304" y="252"/>
      <point x="252" y="252" type="curve" smooth="yes"/>
      <point x="217" y="252" type="line"/>
      <point x="217" y="141" type="line"/>
      <point x="253" y="141" type="line" smooth="yes"/>
      <point x="314" y="141"/>
      <point x="345" y="108"/>
      <point x="345" y="49" type="curve" smooth="yes"/>
      <point x="345" y="31" type="line" smooth="yes"/>
      <point x="345" y="-22"/>
      <point x="314" y="-58"/>
      <point x="263" y="-58" type="curve" smooth="yes"/>
      <point x="210" y="-58"/>
      <point x="181" y="-34"/>
      <point x="181" y="15" type="curve" smooth="yes"/>
      <point x="181" y="31" type="line"/>
      <point x="56" y="31" type="line"/>
      <point x="56" y="9" type="line" smooth="yes"/>
      <point x="56" y="-103"/>
      <point x="133" y="-167"/>
    </contour>
  </outline>
</glyph>
<glyph name="two.dnom" format="2">
  <advance width="322"/>
  <outline>
    <contour>
      <point x="159" y="347" type="curve" smooth="yes"/>
      <point x="145" y="347"/>
      <point x="125" y="341"/>
      <point x="125" y="308" type="curve" smooth="yes"/>
      <point x="125" y="287" type="line"/>
      <point x="17" y="287" type="line"/>
      <point x="17" y="313" type="line" smooth="yes"/>
      <point x="17" y="393"/>
      <point x="83" y="438"/>
      <point x="163" y="438" type="curve" smooth="yes"/>
      <point x="243" y="438"/>
      <point x="306" y="389"/>
      <point x="306" y="314" type="curve" smooth="yes"/>
      <point x="306" y="304" type="line" smooth="yes"/>
      <point x="306" y="286"/>
      <point x="304" y="249"/>
      <point x="262" y="199" type="curve" smooth="yes"/>
      <point x="262" y="199"/>
      <point x="195" y="118"/>
      <point x="164" y="81" type="curve"/>
      <point x="306" y="81" type="line"/>
      <point x="306" y="-11" type="line"/>
      <point x="19" y="-11" type="line"/>
      <point x="19" y="67" type="line"/>
      <point x="172" y="251" type="line" smooth="yes"/>
      <point x="188" y="271"/>
      <point x="195" y="288"/>
      <point x="195" y="303" type="curve" smooth="yes"/>
      <point x="195" y="311" type="line" smooth="yes"/>
      <point x="195" y="326"/>
      <point x="189" y="347"/>
    </contour>
  </outline>
</glyph>
<glyph name="two.tosf" format="2">
  <advance width="524"/>
  <outline>
    <contour>
      <point x="63" y="0" type="line"/>
      <point x="473" y="0" type="line"/>
      <point x="473" y="118" type="line"/>
      <point x="252" y="118" type="line"/>
      <point x="377" y="209" type="line" smooth="yes"/>
      <point x="432" y="249"/>
      <point x="472" y="297"/>
      <point x="473" y="358" type="curve" smooth="yes"/>
      <point x="474" y="393"/>
      <point x="465" y="425"/>
      <point x="448" y="454" type="curve" smooth="yes"/>
      <point x="431" y="483"/>
      <point x="407" y="505"/>
      <point x="376" y="522" type="curve" smooth="yes"/>
      <point x="345" y="539"/>
      <point x="309" y="548"/>
      <point x="268" y="548" type="curve" smooth="yes"/>
      <point x="142" y="548"/>
      <point x="60" y="468"/>
      <point x="60" y="357" type="curve" smooth="yes"/>
      <point x="60" y="354" type="line"/>
      <point x="190" y="354" type="line"/>
      <point x="191" y="406"/>
      <point x="219" y="434"/>
      <point x="263" y="434" type="curve" smooth="yes"/>
      <point x="309" y="434"/>
      <point x="337" y="404"/>
      <point x="337" y="354" type="curve" smooth="yes"/>
      <point x="337" y="309"/>
      <point x="266" y="262"/>
      <point x="231" y="235" type="curve" smooth="yes"/>
      <point x="63" y="106" type="line"/>
    </contour>
  </outline>
</glyph>
<glyph name="zero.dnom" format="2">
  <advance width="335"/>
  <outline>
    <contour>
      <point x="168" y="-18" type="curve" smooth="yes"/>
      <point x="282" y="-18"/>
      <point x="315" y="54"/>
      <point x="315" y="138" type="curve" smooth="yes"/>
      <point x="315" y="286" type="line" smooth="yes"/>
      <point x="315" y="408"/>
      <point x="240" y="438"/>
      <point x="168" y="438" type="curve" smooth="yes"/>
      <point x="41" y="438"/>
      <point x="20" y="345"/>
      <point x="20" y="286" type="curve" smooth="yes"/>
      <point x="20" y="138" type="line" smooth="yes"/>
      <point x="20" y="-12"/>
      <point x="129" y="-18"/>
    </contour>
    <contour>
      <point x="131" y="145" type="curve" smooth="yes"/>
      <point x="131" y="275" type="line" smooth="yes"/>
      <point x="131" y="345"/>
      <point x="151" y="345"/>
      <point x="168" y="345" type="curve" smooth="yes"/>
      <point x="190" y="345"/>
      <point x="205" y="341"/>
      <point x="205" y="275" type="curve" smooth="yes"/>
      <point x="205" y="145" type="line" smooth="yes"/>
      <point x="205" y="77"/>
      <point x="188" y="74"/>
      <point x="168" y="74" type="curve" smooth="yes"/>
      <point x="148" y="74"/>
      <point x="131" y="78"/>
    </contour>
  </outline>
</glyph>
<glyph name="zero.tosf" format="2">
  <advance width="524"/>
  <outline>
    <contour>
      <point x="264" y="-10" type="curve" smooth="yes"/>
      <point x="405" y="-10"/>
      <point x="475" y="65"/>
      <point x="475" y="216" type="curve" smooth="yes"/>
      <point x="475" y="322" type="line" smooth="yes"/>
      <point x="475" y="470"/>
      <point x="405" y="544"/>
      <point x="264" y="544" type="curve" smooth="yes"/>
      <point x="124" y="544"/>
      <point x="54" y="470"/>
      <point x="54" y="322" type="curve" smooth="yes"/>
      <point x="54" y="216" type="line" smooth="yes"/>
      <point x="54" y="65"/>
      <point x="124" y="-10"/>
    </contour>
    <contour>
      <point x="187" y="238" type="curve" smooth="yes"/>
      <point x="187" y="295" type="line" smooth="yes"/>
      <point x="187" y="380"/>
      <point x="207" y="416"/>
      <point x="264" y="416" type="curve" smooth="yes"/>
      <point x="321" y="416"/>
      <point x="341" y="380"/>
      <point x="341" y="295" type="curve" smooth="yes"/>
      <point x="341" y="238" type="line" smooth="yes"/>
      <point x="341" y="153"/>
      <point x="321" y="117"/>
      <point x="264" y="117" type="curve" smooth="yes"/>
      <point x="207" y="117"/>
      <point x="187" y="153"/>
    </contour>
  </outline>
</glyph>
<glyph name="zhecyr.loclBGR" format="2">
  <advance width="817"/>
  <guideline x="119" y="0" angle="90" name="vertical"/>
  <guideline x="0" y="707" angle="0" name="horizontal"/>
  <guideline x="651" y="0" angle="90" name="vertical"/>
  <guideline x="0" y="707" angle="0" name="horizontal"/>
  <anchor x="651" y="707" name="top"/>
  <outline>
    <contour>
      <point x="9" y="0" type="line"/>
      <point x="162" y="0" type="line"/>
      <point x="283" y="222" type="line"/>
      <point x="345" y="222" type="line"/>
      <point x="345" y="0" type="line"/>
      <point x="472" y="0" type="line"/>
      <point x="472" y="222" type="line"/>
      <point x="534" y="222" type="line"/>
      <point x="655" y="0" type="line"/>
      <point x="808" y="0" type="line"/>
      <point x="633" y="320" type="line"/>
      <point x="783" y="532" type="line"/>
      <point x="632" y="532" type="line"/>
      <point x="501" y="333" type="line"/>
      <point x="472" y="333" type="line"/>
      <point x="472" y="707" type="line"/>
      <point x="345" y="707" type="line"/>
      <point x="345" y="333" type="line"/>
      <point x="316" y="333" type="line"/>
      <point x="185" y="532" type="line"/>
      <point x="34" y="532" type="line"/>
      <point x="184" y="320" type="line"/>
    </contour>
  </outline>
</glyph>
